LF.ufo
<glyph name="exclam" format="1">
  <advance width="250"/>
  <unicode hex="0021"/>
  <outline>
    <contour>
      <point x="222" y="179"/>
      <point x="216" y="186"/>
      <point x="205" y="186" type="curve" smooth="yes"/>
      <point x="42" y="186" type="line" smooth="yes"/>
      <point x="31" y="186"/>
      <point x="24" y="179"/>
      <point x="24" y="165" type="curve" smooth="yes"/>
      <point x="24" y="24" type="line" smooth="yes"/>
      <point x="24" y="8"/>
      <point x="30" y="0"/>
      <point x="49" y="0" type="curve" smooth="yes"/>
      <point x="191" y="0" type="line" smooth="yes"/>
      <point x="213" y="0"/>
      <point x="222" y="8"/>
      <point x="222" y="27" type="curve" smooth="yes"/>
      <point x="222" y="167" type="line" smooth="yes"/>
    </contour>
    <contour>
      <point x="231" y="693"/>
      <point x="224" y="700"/>
      <point x="213" y="700" type="curve" smooth="yes"/>
      <point x="35" y="700" type="line" smooth="yes"/>
      <point x="24" y="700"/>
      <point x="15" y="693"/>
      <point x="17" y="679" type="curve" smooth="yes"/>
      <point x="64" y="275" type="line" smooth="yes"/>
      <point x="66" y="259"/>
      <point x="70" y="251"/>
      <point x="89" y="251" type="curve" smooth="yes"/>
      <point x="154" y="251" type="line" smooth="yes"/>
      <point x="176" y="251"/>
      <point x="183" y="259"/>
      <point x="185" y="278" type="curve" smooth="yes"/>
      <point x="230" y="681" type="line" smooth="yes"/>
    </contour>
  </outline>
</glyph>
<glyph name="dollar" format="1">
  <advance width="687"/>
  <unicode hex="0024"/>
  <outline>
    <contour>
      <point x="655" y="337"/>
      <point x="581" y="418"/>
      <point x="482" y="442" type="curve" smooth="yes"/>
      <point x="415" y="458" type="line" smooth="yes"/>
      <point x="405" y="460"/>
      <point x="402" y="463"/>
      <point x="402" y="470" type="curve" smooth="yes"/>
      <point x="402" y="585" type="line" smooth="yes"/>
      <point x="402" y="591"/>
      <point x="407" y="596"/>
      <point x="416" y="593" type="curve" smooth="yes"/>
      <point x="446" y="582"/>
      <point x="472" y="565"/>
      <point x="489" y="550" type="curve" smooth="yes"/>
      <point x="505" y="536"/>
      <point x="514" y="540"/>
      <point x="523" y="551" type="curve" smooth="yes"/>
      <point x="589" y="639" type="line" smooth="yes"/>
      <point x="598" y="651"/>
      <point x="595" y="662"/>
      <point x="584" y="668" type="curve" smooth="yes"/>
      <point x="539" y="696"/>
      <point x="485" y="717"/>
      <point x="419" y="735" type="curve" smooth="yes"/>
      <point x="408" y="738"/>
      <point x="405" y="740"/>
      <point x="403" y="746" type="curve" smooth="yes"/>
      <point x="396" y="764"/>
      <point x="390" y="767"/>
      <point x="381" y="767" type="curve" smooth="yes"/>
      <point x="301" y="767" type="line" smooth="yes"/>
      <point x="281" y="767"/>
      <point x="282" y="739"/>
      <point x="257" y="734" type="curve" smooth="yes"/>
      <point x="112" y="703"/>
      <point x="38" y="619"/>
      <point x="38" y="515" type="curve" smooth="yes"/>
      <point x="38" y="410"/>
      <point x="96" y="314"/>
      <point x="269" y="289" type="curve" smooth="yes"/>
      <point x="280" y="286"/>
      <point x="281" y="283"/>
      <point x="281" y="272" type="curve" smooth="yes"/>
      <point x="280" y="149" type="line" smooth="yes"/>
      <point x="280" y="138"/>
      <point x="275" y="136"/>
      <point x="262" y="138" type="curve" smooth="yes"/>
      <point x="213" y="150"/>
      <point x="170" y="176"/>
      <point x="137" y="207" type="curve" smooth="yes"/>
      <point x="125" y="218"/>
      <point x="115" y="219"/>
      <point x="102" y="204" type="curve" smooth="yes"/>
      <point x="25" y="117" type="line" smooth="yes"/>
      <point x="14" y="105"/>
      <point x="19" y="92"/>
      <point x="39" y="78" type="curve" smooth="yes"/>
      <point x="103" y="33"/>
      <point x="169" y="6"/>
      <point x="260" y="-1" type="curve" smooth="yes"/>
      <point x="274" y="-1"/>
      <point x="278" y="-5"/>
      <point x="278" y="-20" type="curve" smooth="yes"/>
      <point x="278" y="-93" type="line" smooth="yes"/>
      <point x="278" y="-110"/>
      <point x="285" y="-119"/>
      <point x="305" y="-119" type="curve" smooth="yes"/>
      <point x="372" y="-119" type="line" smooth="yes"/>
      <point x="394" y="-119"/>
      <point x="403" y="-110"/>
      <point x="403" y="-90" type="curve" smooth="yes"/>
      <point x="403" y="-22" type="line" smooth="yes"/>
      <point x="403" y="-6"/>
      <point x="405" y="-3"/>
      <point x="424" y="-1" type="curve" smooth="yes"/>
      <point x="566" y="17"/>
      <point x="655" y="109"/>
      <point x="655" y="234" type="curve"/>
    </contour>
    <contour>
      <point x="281" y="482"/>
      <point x="275" y="476"/>
      <point x="261" y="478" type="curve" smooth="yes"/>
      <point x="221" y="484"/>
      <point x="200" y="505"/>
      <point x="200" y="539" type="curve" smooth="yes"/>
      <point x="200" y="564"/>
      <point x="219" y="588"/>
      <point x="267" y="600" type="curve" smooth="yes"/>
      <point x="277" y="602"/>
      <point x="281" y="597"/>
      <point x="281" y="586" type="curve" smooth="yes"/>
      <point x="281" y="499" type="line" smooth="yes"/>
    </contour>
    <contour>
      <point x="402" y="258" type="line" smooth="yes"/>
      <point x="402" y="269"/>
      <point x="405" y="270"/>
      <point x="413" y="269" type="curve" smooth="yes"/>
      <point x="469" y="261"/>
      <point x="491" y="234"/>
      <point x="491" y="200" type="curve" smooth="yes"/>
      <point x="491" y="171"/>
      <point x="465" y="147"/>
      <point x="417" y="137" type="curve" smooth="yes"/>
      <point x="408" y="135"/>
      <point x="402" y="137"/>
      <point x="402" y="144" type="curve" smooth="yes"/>
    </contour>
  </outline>
</glyph>
<glyph name="percent" format="1">
  <advance width="963"/>
  <unicode hex="0025"/>
  <outline>
    <contour>
      <point x="118" y="753"/>
      <point x="30" y="650"/>
      <point x="30" y="541" type="curve" smooth="yes"/>
      <point x="30" y="433"/>
      <point x="116" y="334"/>
      <point x="229" y="334" type="curve" smooth="yes"/>
      <point x="341" y="334"/>
      <point x="426" y="433"/>
      <point x="426" y="541" type="curve" smooth="yes"/>
      <point x="426" y="650"/>
      <point x="339" y="753"/>
      <point x="229" y="753" type="curve" smooth="yes"/>
    </contour>
    <contour>
      <point x="187" y="432"/>
      <point x="175" y="469"/>
      <point x="175" y="540" type="curve" smooth="yes"/>
      <point x="175" y="615"/>
      <point x="188" y="656"/>
      <point x="228" y="656" type="curve" smooth="yes"/>
      <point x="268" y="656"/>
      <point x="281" y="616"/>
      <point x="281" y="540" type="curve" smooth="yes"/>
      <point x="281" y="469"/>
      <point x="270" y="432"/>
      <point x="228" y="432" type="curve" smooth="yes"/>
    </contour>
    <contour>
      <point x="625" y="409"/>
      <point x="537" y="306"/>
      <point x="537" y="197" type="curve" smooth="yes"/>
      <point x="537" y="89"/>
      <point x="623" y="-10"/>
      <point x="736" y="-10" type="curve" smooth="yes"/>
      <point x="848" y="-10"/>
      <point x="933" y="89"/>
      <point x="933" y="197" type="curve" smooth="yes"/>
      <point x="933" y="306"/>
      <point x="846" y="409"/>
      <point x="736" y="409" type="curve" smooth="yes"/>
    </contour>
    <contour>
      <point x="694" y="88"/>
      <point x="682" y="125"/>
      <point x="682" y="196" type="curve" smooth="yes"/>
      <point x="682" y="271"/>
      <point x="695" y="312"/>
      <point x="735" y="312" type="curve" smooth="yes"/>
      <point x="775" y="312"/>
      <point x="788" y="272"/>
      <point x="788" y="196" type="curve" smooth="yes"/>
      <point x="788" y="125"/>
      <point x="777" y="88"/>
      <point x="735" y="88" type="curve" smooth="yes"/>
    </contour>
    <component base="fraction" xOffset="360"/>
  </outline>
</glyph>
<glyph name="comma" format="1">
  <advance width="198"/>
  <unicode hex="002C"/>
  <outline>
    <contour>
      <point x="8" y="184"/>
      <point x="8" y="183"/>
      <point x="4" y="174" type="curve" smooth="yes"/>
      <point x="0" y="165"/>
      <point x="0" y="163"/>
      <point x="1" y="90" type="curve" smooth="yes"/>
      <point x="1" y="26"/>
      <point x="2" y="15"/>
      <point x="5" y="11" type="curve" smooth="yes"/>
      <point x="11" y="1"/>
      <point x="16" y="-1"/>
      <point x="37" y="-1" type="curve" smooth="yes"/>
      <point x="47" y="-1"/>
      <point x="57" y="-1"/>
      <point x="58" y="-3" type="curve" smooth="yes"/>
      <point x="62" y="-5"/>
      <point x="61" y="-18"/>
      <point x="57" y="-26" type="curve" smooth="yes"/>
      <point x="55" y="-30"/>
      <point x="52" y="-37"/>
      <point x="51" y="-42" type="curve" smooth="yes"/>
      <point x="49" y="-48"/>
      <point x="39" y="-70"/>
      <point x="28" y="-93" type="curve" smooth="yes"/>
      <point x="7" y="-136"/>
      <point x="5" y="-143"/>
      <point x="11" y="-152" type="curve" smooth="yes"/>
      <point x="15" y="-158"/>
      <point x="24" y="-162"/>
      <point x="35" y="-162" type="curve" smooth="yes"/>
      <point x="53" y="-162"/>
      <point x="80" y="-150"/>
      <point x="88" y="-138" type="curve" smooth="yes"/>
      <point x="90" y="-135"/>
      <point x="94" y="-131"/>
      <point x="96" y="-129" type="curve" smooth="yes"/>
      <point x="100" y="-125"/>
      <point x="131" y="-78"/>
      <point x="136" y="-67" type="curve" smooth="yes"/>
      <point x="138" y="-63"/>
      <point x="142" y="-58"/>
      <point x="143" y="-57" type="curve" smooth="yes"/>
      <point x="145" y="-55"/>
      <point x="148" y="-51"/>
      <point x="150" y="-47" type="curve" smooth="yes"/>
      <point x="152" y="-43"/>
      <point x="161" y="-31"/>
      <point x="171" y="-20" type="curve" smooth="yes"/>
      <point x="180" y="-9"/>
      <point x="190" y="5"/>
      <point x="193" y="10" type="curve" smooth="yes"/>
      <point x="198" y="20" type="line"/>
      <point x="198" y="95" type="line" smooth="yes"/>
      <point x="198" y="165"/>
      <point x="198" y="171"/>
      <point x="194" y="176" type="curve" smooth="yes"/>
      <point x="187" y="188"/>
      <point x="184" y="188"/>
      <point x="106" y="188" type="curve" smooth="yes"/>
      <point x="67" y="188"/>
      <point x="31" y="187"/>
      <point x="26" y="186" type="curve" smooth="yes"/>
    </contour>
  </outline>
</glyph>
<glyph name="hyphen" format="1">
  <advance width="340"/>
  <unicode hex="002D"/>
  <outline>
    <contour>
      <point x="313" y="307"/>
      <point x="307" y="314"/>
      <point x="296" y="314" type="curve" smooth="yes"/>
      <point x="50" y="314" type="line" smooth="yes"/>
      <point x="39" y="314"/>
      <point x="32" y="307"/>
      <point x="32" y="293" type="curve" smooth="yes"/>
      <point x="32" y="186" type="line" smooth="yes"/>
      <point x="32" y="170"/>
      <point x="38" y="162"/>
      <point x="57" y="162" type="curve" smooth="yes"/>
      <point x="282" y="162" type="line" smooth="yes"/>
      <point x="304" y="162"/>
      <point x="313" y="170"/>
      <point x="313" y="189" type="curve" smooth="yes"/>
      <point x="313" y="295" type="line" smooth="yes"/>
    </contour>
  </outline>
</glyph>
<glyph name="period" format="1">
  <advance width="250"/>
  <unicode hex="002E"/>
  <outline>
    <contour>
      <point x="222" y="183"/>
      <point x="216" y="190"/>
      <point x="205" y="190" type="curve" smooth="yes"/>
      <point x="42" y="190" type="line" smooth="yes"/>
      <point x="31" y="190"/>
      <point x="24" y="183"/>
      <point x="24" y="169" type="curve" smooth="yes"/>
      <point x="24" y="24" type="line" smooth="yes"/>
      <point x="24" y="8"/>
      <point x="30" y="0"/>
      <point x="49" y="0" type="curve" smooth="yes"/>
      <point x="191" y="0" type="line" smooth="yes"/>
      <point x="213" y="0"/>
      <point x="222" y="8"/>
      <point x="222" y="27" type="curve" smooth="yes"/>
      <point x="222" y="171" type="line" smooth="yes"/>
    </contour>
  </outline>
</glyph>
<glyph name="zero" format="1">
  <advance width="650"/>
  <unicode hex="0030"/>
  <outline>
    <contour>
      <point x="157" y="711"/>
      <point x="22" y="567"/>
      <point x="22" y="348" type="curve" smooth="yes"/>
      <point x="22" y="130"/>
      <point x="154" y="-8"/>
      <point x="324" y="-8" type="curve" smooth="yes"/>
      <point x="495" y="-8"/>
      <point x="627" y="131"/>
      <point x="627" y="348" type="curve" smooth="yes"/>
      <point x="627" y="567"/>
      <point x="492" y="711"/>
      <point x="325" y="711" type="curve" smooth="yes"/>
    </contour>
    <contour>
      <point x="265" y="133"/>
      <point x="234" y="175"/>
      <point x="234" y="346" type="curve" smooth="yes"/>
      <point x="234" y="522"/>
      <point x="267" y="567"/>
      <point x="329" y="567" type="curve" smooth="yes"/>
      <point x="390" y="567"/>
      <point x="423" y="522"/>
      <point x="423" y="346" type="curve" smooth="yes"/>
      <point x="423" y="175"/>
      <point x="392" y="133"/>
      <point x="329" y="133" type="curve" smooth="yes"/>
    </contour>
  </outline>
</glyph>
<glyph name="two" format="1">
  <advance width="650"/>
  <unicode hex="0032"/>
  <outline>
    <contour>
      <point x="43" y="135"/>
      <point x="41" y="126"/>
      <point x="41" y="117" type="curve" smooth="yes"/>
      <point x="41" y="24" type="line" smooth="yes"/>
      <point x="41" y="5"/>
      <point x="47" y="0"/>
      <point x="66" y="0" type="curve" smooth="yes"/>
      <point x="594" y="0" type="line" smooth="yes"/>
      <point x="610" y="0"/>
      <point x="617" y="9"/>
      <point x="617" y="21" type="curve" smooth="yes"/>
      <point x="617" y="157" type="line" smooth="yes"/>
      <point x="617" y="170"/>
      <point x="609" y="175"/>
      <point x="596" y="175" type="curve" smooth="yes"/>
      <point x="327" y="175" type="line" smooth="yes"/>
      <point x="311" y="175"/>
      <point x="312" y="180"/>
      <point x="321" y="186" type="curve" smooth="yes"/>
      <point x="489" y="296" type="line" smooth="yes"/>
      <point x="582" y="357"/>
      <point x="614" y="414"/>
      <point x="614" y="487" type="curve" smooth="yes"/>
      <point x="614" y="619"/>
      <point x="507" y="705"/>
      <point x="336" y="705" type="curve" smooth="yes"/>
      <point x="209" y="705"/>
      <point x="118" y="657"/>
      <point x="48" y="543" type="curve" smooth="yes"/>
      <point x="40" y="530"/>
      <point x="42" y="513"/>
      <point x="57" y="506" type="curve" smooth="yes"/>
      <point x="169" y="452" type="line" smooth="yes"/>
      <point x="184" y="445"/>
      <point x="194" y="447"/>
      <point x="199" y="456" type="curve" smooth="yes"/>
      <point x="241" y="532"/>
      <point x="276" y="560"/>
      <point x="324" y="560" type="curve" smooth="yes"/>
      <point x="376" y="560"/>
      <point x="406" y="529"/>
      <point x="406" y="487" type="curve" smooth="yes"/>
      <point x="406" y="442"/>
      <point x="390" y="417"/>
      <point x="258" y="310" type="curve" smooth="yes"/>
      <point x="96" y="178" type="line" smooth="yes"/>
    </contour>
  </outline>
</glyph>
<glyph name="four" format="1">
  <advance width="650"/>
  <unicode hex="0034"/>
  <outline>
    <contour>
      <point x="54" y="326" type="line" smooth="yes"/>
      <point x="32" y="297"/>
      <point x="23" y="283"/>
      <point x="23" y="269" type="curve" smooth="yes"/>
      <point x="23" y="171" type="line" smooth="yes"/>
      <point x="23" y="159"/>
      <point x="30" y="150"/>
      <point x="46" y="150" type="curve" smooth="yes"/>
      <point x="315" y="150" type="line" smooth="yes"/>
      <point x="323" y="150"/>
      <point x="327" y="147"/>
      <point x="328" y="141" type="curve" smooth="yes"/>
      <point x="328" y="24" type="line" smooth="yes"/>
      <point x="328" y="8"/>
      <point x="334" y="0"/>
      <point x="353" y="0" type="curve" smooth="yes"/>
      <point x="500" y="0" type="line" smooth="yes"/>
      <point x="522" y="0"/>
      <point x="531" y="8"/>
      <point x="531" y="27" type="curve" smooth="yes"/>
      <point x="531" y="138" type="line" smooth="yes"/>
      <point x="531" y="147"/>
      <point x="536" y="150"/>
      <point x="543" y="150" type="curve" smooth="yes"/>
      <point x="624" y="150" type="line" smooth="yes"/>
      <point x="640" y="150"/>
      <point x="647" y="159"/>
      <point x="647" y="171" type="curve" smooth="yes"/>
      <point x="647" y="275" type="line" smooth="yes"/>
      <point x="647" y="288"/>
      <point x="639" y="293"/>
      <point x="626" y="293" type="curve" smooth="yes"/>
      <point x="542" y="293" type="line" smooth="yes"/>
      <point x="535" y="293"/>
      <point x="531" y="297"/>
      <point x="531" y="304" type="curve" smooth="yes"/>
      <point x="531" y="681" type="line" smooth="yes"/>
      <point x="531" y="693"/>
      <point x="525" y="700"/>
      <point x="514" y="700" type="curve" smooth="yes"/>
      <point x="373" y="700" type="line" smooth="yes"/>
      <point x="347" y="700"/>
      <point x="341" y="697"/>
      <point x="325" y="677" type="curve" smooth="yes"/>
    </contour>
    <contour>
      <point x="183" y="293"/>
      <point x="183" y="297"/>
      <point x="189" y="305" type="curve" smooth="yes"/>
      <point x="320" y="485" type="line" smooth="yes"/>
      <point x="330" y="499"/>
      <point x="333" y="499"/>
      <point x="333" y="481" type="curve" smooth="yes"/>
      <point x="331" y="299" type="line" smooth="yes"/>
      <point x="331" y="295"/>
      <point x="328" y="293"/>
      <point x="323" y="293" type="curve" smooth="yes"/>
      <point x="195" y="293" type="line" smooth="yes"/>
    </contour>
  </outline>
</glyph>
<glyph name="six" format="1">
  <advance width="644"/>
  <unicode hex="0036"/>
  <outline>
    <contour>
      <point x="298" y="704"/>
      <point x="278" y="702"/>
      <point x="272" y="700" type="curve" smooth="yes"/>
      <point x="265" y="699"/>
      <point x="256" y="696"/>
      <point x="251" y="695" type="curve" smooth="yes"/>
      <point x="246" y="694"/>
      <point x="239" y="691"/>
      <point x="235" y="689" type="curve" smooth="yes"/>
      <point x="230" y="687"/>
      <point x="223" y="684"/>
      <point x="217" y="682" type="curve" smooth="yes"/>
      <point x="212" y="679"/>
      <point x="202" y="674"/>
      <point x="195" y="669" type="curve" smooth="yes"/>
      <point x="188" y="664"/>
      <point x="177" y="658"/>
      <point x="171" y="654" type="curve" smooth="yes"/>
      <point x="157" y="645"/>
      <point x="114" y="603"/>
      <point x="103" y="588" type="curve" smooth="yes"/>
      <point x="98" y="581"/>
      <point x="91" y="572"/>
      <point x="88" y="567" type="curve" smooth="yes"/>
      <point x="80" y="557"/>
      <point x="69" y="534"/>
      <point x="62" y="518" type="curve" smooth="yes"/>
      <point x="60" y="512"/>
      <point x="55" y="500"/>
      <point x="51" y="492" type="curve" smooth="yes"/>
      <point x="43" y="477"/>
      <point x="33" y="446"/>
      <point x="28" y="421" type="curve" smooth="yes"/>
      <point x="27" y="413"/>
      <point x="25" y="403"/>
      <point x="24" y="400" type="curve" smooth="yes"/>
      <point x="21" y="386"/>
      <point x="20" y="336"/>
      <point x="21" y="304" type="curve" smooth="yes"/>
      <point x="23" y="260"/>
      <point x="29" y="232"/>
      <point x="42" y="192" type="curve" smooth="yes"/>
      <point x="47" y="179"/>
      <point x="71" y="128"/>
      <point x="74" y="127" type="curve" smooth="yes"/>
      <point x="75" y="126"/>
      <point x="82" y="117"/>
      <point x="90" y="107" type="curve" smooth="yes"/>
      <point x="97" y="96"/>
      <point x="108" y="83"/>
      <point x="114" y="77" type="curve" smooth="yes"/>
      <point x="126" y="66"/>
      <point x="151" y="46"/>
      <point x="153" y="46" type="curve" smooth="yes"/>
      <point x="154" y="46"/>
      <point x="158" y="43"/>
      <point x="162" y="40" type="curve" smooth="yes"/>
      <point x="171" y="32"/>
      <point x="214" y="11"/>
      <point x="220" y="11" type="curve" smooth="yes"/>
      <point x="222" y="11"/>
      <point x="226" y="10"/>
      <point x="228" y="9" type="curve" smooth="yes"/>
      <point x="240" y="2"/>
      <point x="270" y="-4"/>
      <point x="298" y="-6" type="curve" smooth="yes"/>
      <point x="303" y="-6"/>
      <point x="310" y="-7"/>
      <point x="315" y="-8" type="curve" smooth="yes"/>
      <point x="319" y="-8"/>
      <point x="333" y="-8"/>
      <point x="346" y="-6" type="curve" smooth="yes"/>
      <point x="359" y="-4"/>
      <point x="376" y="-2"/>
      <point x="385" y="-1" type="curve" smooth="yes"/>
      <point x="400" y="0"/>
      <point x="404" y="1"/>
      <point x="419" y="5" type="curve" smooth="yes"/>
      <point x="423" y="6"/>
      <point x="431" y="8"/>
      <point x="438" y="9" type="curve" smooth="yes"/>
      <point x="444" y="10"/>
      <point x="452" y="12"/>
      <point x="454" y="14" type="curve" smooth="yes"/>
      <point x="457" y="15"/>
      <point x="462" y="17"/>
      <point x="465" y="17" type="curve" smooth="yes"/>
      <point x="471" y="17"/>
      <point x="501" y="32"/>
      <point x="513" y="41" type="curve" smooth="yes"/>
      <point x="518" y="44"/>
      <point x="524" y="48"/>
      <point x="526" y="50" type="curve" smooth="yes"/>
      <point x="537" y="55"/>
      <point x="551" y="67"/>
      <point x="566" y="82" type="curve" smooth="yes"/>
      <point x="590" y="107"/>
      <point x="602" y="126"/>
      <point x="612" y="158" type="curve" smooth="yes"/>
      <point x="621" y="189"/>
      <point x="624" y="204"/>
      <point x="624" y="233" type="curve" smooth="yes"/>
      <point x="624" y="263"/>
      <point x="621" y="279"/>
      <point x="609" y="305" type="curve" smooth="yes"/>
      <point x="605" y="313"/>
      <point x="602" y="321"/>
      <point x="602" y="322" type="curve" smooth="yes"/>
      <point x="602" y="328"/>
      <point x="584" y="355"/>
      <point x="572" y="365" type="curve" smooth="yes"/>
      <point x="558" y="378"/>
      <point x="534" y="394"/>
      <point x="525" y="397" type="curve" smooth="yes"/>
      <point x="522" y="398"/>
      <point x="516" y="400"/>
      <point x="513" y="402" type="curve" smooth="yes"/>
      <point x="510" y="404"/>
      <point x="499" y="409"/>
      <point x="489" y="413" type="curve" smooth="yes"/>
      <point x="479" y="417"/>
      <point x="466" y="422"/>
      <point x="461" y="424" type="curve" smooth="yes"/>
      <point x="455" y="427"/>
      <point x="443" y="429"/>
      <point x="430" y="430" type="curve" smooth="yes"/>
      <point x="418" y="431"/>
      <point x="399" y="433"/>
      <point x="388" y="434" type="curve" smooth="yes"/>
      <point x="374" y="435"/>
      <point x="365" y="435"/>
      <point x="361" y="434" type="curve" smooth="yes"/>
      <point x="357" y="433"/>
      <point x="348" y="432"/>
      <point x="342" y="432" type="curve" smooth="yes"/>
      <point x="331" y="432"/>
      <point x="315" y="428"/>
      <point x="296" y="421" type="curve" smooth="yes"/>
      <point x="292" y="420"/>
      <point x="282" y="416"/>
      <point x="273" y="413" type="curve" smooth="yes"/>
      <point x="264" y="410"/>
      <point x="254" y="407"/>
      <point x="252" y="405" type="curve" smooth="yes"/>
      <point x="247" y="402"/>
      <point x="239" y="402"/>
      <point x="236" y="405" type="curve" smooth="yes"/>
      <point x="231" y="410"/>
      <point x="234" y="444"/>
      <point x="242" y="473" type="curve" smooth="yes"/>
      <point x="244" y="481"/>
      <point x="249" y="494"/>
      <point x="253" y="503" type="curve" smooth="yes"/>
      <point x="265" y="529"/>
      <point x="294" y="556"/>
      <point x="316" y="563" type="curve" smooth="yes"/>
      <point x="326" y="566"/>
      <point x="350" y="567"/>
      <point x="362" y="565" type="curve" smooth="yes"/>
      <point x="374" y="562"/>
      <point x="393" y="552"/>
      <point x="403" y="541" type="curve" smooth="yes"/>
      <point x="410" y="535"/>
      <point x="414" y="527"/>
      <point x="426" y="504" type="curve" smooth="yes"/>
      <point x="433" y="491"/>
      <point x="437" y="489"/>
      <point x="458" y="495" type="curve" smooth="yes"/>
      <point x="467" y="498"/>
      <point x="476" y="500"/>
      <point x="477" y="500" type="curve" smooth="yes"/>
      <point x="478" y="500"/>
      <point x="483" y="502"/>
      <point x="488" y="504" type="curve" smooth="yes"/>
      <point x="500" y="509"/>
      <point x="515" y="514"/>
      <point x="520" y="514" type="curve" smooth="yes"/>
      <point x="522" y="514"/>
      <point x="528" y="515"/>
      <point x="532" y="516" type="curve" smooth="yes"/>
      <point x="537" y="518"/>
      <point x="547" y="520"/>
      <point x="554" y="521" type="curve" smooth="yes"/>
      <point x="561" y="523"/>
      <point x="572" y="526"/>
      <point x="578" y="529" type="curve" smooth="yes"/>
      <point x="592" y="536"/>
      <point x="596" y="542"/>
      <point x="594" y="554" type="curve" smooth="yes"/>
      <point x="592" y="564"/>
      <point x="579" y="587"/>
      <point x="566" y="606" type="curve" smooth="yes"/>
      <point x="553" y="623"/>
      <point x="523" y="654"/>
      <point x="511" y="661" type="curve" smooth="yes"/>
      <point x="488" y="675"/>
      <point x="467" y="685"/>
      <point x="463" y="685" type="curve" smooth="yes"/>
      <point x="461" y="685"/>
      <point x="454" y="687"/>
      <point x="448" y="690" type="curve" smooth="yes"/>
      <point x="424" y="701"/>
      <point x="395" y="707"/>
      <point x="367" y="707" type="curve" smooth="yes"/>
      <point x="359" y="707"/>
      <point x="351" y="707"/>
      <point x="349" y="707" type="curve" smooth="yes"/>
      <point x="347" y="708"/>
      <point x="332" y="707"/>
      <point x="315" y="706" type="curve" smooth="yes"/>
    </contour>
    <contour>
      <point x="375" y="291"/>
      <point x="393" y="279"/>
      <point x="401" y="270" type="curve" smooth="yes"/>
      <point x="404" y="267"/>
      <point x="408" y="260"/>
      <point x="412" y="253" type="curve" smooth="yes"/>
      <point x="418" y="242"/>
      <point x="418" y="241"/>
      <point x="418" y="219" type="curve" smooth="yes"/>
      <point x="418" y="196" type="line"/>
      <point x="409" y="179" type="line" smooth="yes"/>
      <point x="399" y="159"/>
      <point x="386" y="145"/>
      <point x="370" y="138" type="curve" smooth="yes"/>
      <point x="360" y="133"/>
      <point x="328" y="127"/>
      <point x="316" y="127" type="curve" smooth="yes"/>
      <point x="299" y="128"/>
      <point x="277" y="142"/>
      <point x="265" y="160" type="curve" smooth="yes"/>
      <point x="256" y="174"/>
      <point x="245" y="195"/>
      <point x="243" y="202" type="curve" smooth="yes"/>
      <point x="242" y="206"/>
      <point x="241" y="212"/>
      <point x="240" y="216" type="curve" smooth="yes"/>
      <point x="239" y="221"/>
      <point x="237" y="234"/>
      <point x="236" y="246" type="curve" smooth="yes"/>
      <point x="235" y="267"/>
      <point x="235" y="268"/>
      <point x="240" y="272" type="curve" smooth="yes"/>
      <point x="246" y="277"/>
      <point x="268" y="288"/>
      <point x="274" y="288" type="curve" smooth="yes"/>
      <point x="276" y="288"/>
      <point x="279" y="288"/>
      <point x="280" y="289" type="curve" smooth="yes"/>
      <point x="281" y="291"/>
      <point x="300" y="295"/>
      <point x="316" y="298" type="curve" smooth="yes"/>
      <point x="325" y="300"/>
      <point x="353" y="298"/>
      <point x="364" y="294" type="curve" smooth="yes"/>
    </contour>
  </outline>
</glyph>
<glyph name="seven" format="1">
  <advance width="589"/>
  <unicode hex="0037"/>
  <outline>
    <contour>
      <point x="47" y="699"/>
      <point x="39" y="696"/>
      <point x="35" y="688" type="curve" smooth="yes"/>
      <point x="30" y="678"/>
      <point x="17" y="543"/>
      <point x="21" y="535" type="curve" smooth="yes"/>
      <point x="26" y="525"/>
      <point x="32" y="523"/>
      <point x="58" y="523" type="curve" smooth="yes"/>
      <point x="72" y="523"/>
      <point x="89" y="524"/>
      <point x="96" y="525" type="curve" smooth="yes"/>
      <point x="103" y="526"/>
      <point x="152" y="527"/>
      <point x="206" y="527" type="curve" smooth="yes"/>
      <point x="259" y="528"/>
      <point x="313" y="529"/>
      <point x="324" y="529" type="curve" smooth="yes"/>
      <point x="350" y="529"/>
      <point x="352" y="528"/>
      <point x="345" y="516" type="curve" smooth="yes"/>
      <point x="343" y="511"/>
      <point x="337" y="501"/>
      <point x="333" y="492" type="curve" smooth="yes"/>
      <point x="329" y="484"/>
      <point x="320" y="469"/>
      <point x="312" y="459" type="curve" smooth="yes"/>
      <point x="305" y="449"/>
      <point x="295" y="433"/>
      <point x="290" y="423" type="curve" smooth="yes"/>
      <point x="268" y="382"/>
      <point x="254" y="358"/>
      <point x="247" y="347" type="curve" smooth="yes"/>
      <point x="232" y="322"/>
      <point x="215" y="293"/>
      <point x="207" y="277" type="curve" smooth="yes"/>
      <point x="202" y="267"/>
      <point x="195" y="253"/>
      <point x="192" y="247" type="curve" smooth="yes"/>
      <point x="188" y="240"/>
      <point x="185" y="233"/>
      <point x="185" y="232" type="curve" smooth="yes"/>
      <point x="185" y="230"/>
      <point x="180" y="219"/>
      <point x="174" y="205" type="curve" smooth="yes"/>
      <point x="160" y="178"/>
      <point x="147" y="146"/>
      <point x="137" y="117" type="curve" smooth="yes"/>
      <point x="133" y="105"/>
      <point x="128" y="90"/>
      <point x="125" y="82" type="curve" smooth="yes"/>
      <point x="113" y="51"/>
      <point x="106" y="18"/>
      <point x="109" y="10" type="curve" smooth="yes"/>
      <point x="113" y="0"/>
      <point x="120" y="-1"/>
      <point x="185" y="0" type="curve" smooth="yes"/>
      <point x="316" y="1"/>
      <point x="332" y="2"/>
      <point x="342" y="10" type="curve" smooth="yes"/>
      <point x="349" y="15"/>
      <point x="351" y="20"/>
      <point x="351" y="38" type="curve" smooth="yes"/>
      <point x="351" y="47"/>
      <point x="352" y="60"/>
      <point x="353" y="68" type="curve" smooth="yes"/>
      <point x="354" y="76"/>
      <point x="357" y="98"/>
      <point x="359" y="117" type="curve" smooth="yes"/>
      <point x="362" y="139"/>
      <point x="365" y="157"/>
      <point x="369" y="169" type="curve" smooth="yes"/>
      <point x="372" y="180"/>
      <point x="376" y="194"/>
      <point x="377" y="202" type="curve" smooth="yes"/>
      <point x="379" y="209"/>
      <point x="382" y="220"/>
      <point x="385" y="226" type="curve" smooth="yes"/>
      <point x="388" y="232"/>
      <point x="391" y="244"/>
      <point x="393" y="252" type="curve" smooth="yes"/>
      <point x="395" y="261"/>
      <point x="398" y="272"/>
      <point x="401" y="278" type="curve" smooth="yes"/>
      <point x="405" y="287"/>
      <point x="412" y="303"/>
      <point x="428" y="344" type="curve" smooth="yes"/>
      <point x="433" y="356"/>
      <point x="442" y="375"/>
      <point x="448" y="387" type="curve" smooth="yes"/>
      <point x="454" y="399"/>
      <point x="458" y="411"/>
      <point x="458" y="413" type="curve" smooth="yes"/>
      <point x="458" y="415"/>
      <point x="460" y="418"/>
      <point x="461" y="419" type="curve" smooth="yes"/>
      <point x="463" y="420"/>
      <point x="465" y="424"/>
      <point x="466" y="427" type="curve" smooth="yes"/>
      <point x="468" y="431"/>
      <point x="472" y="438"/>
      <point x="475" y="443" type="curve" smooth="yes"/>
      <point x="479" y="448"/>
      <point x="485" y="459"/>
      <point x="489" y="467" type="curve" smooth="yes"/>
      <point x="492" y="475"/>
      <point x="496" y="482"/>
      <point x="497" y="482" type="curve" smooth="yes"/>
      <point x="500" y="484"/>
      <point x="509" y="502"/>
      <point x="509" y="506" type="curve" smooth="yes"/>
      <point x="509" y="507"/>
      <point x="511" y="511"/>
      <point x="513" y="514" type="curve" smooth="yes"/>
      <point x="518" y="519"/>
      <point x="520" y="523"/>
      <point x="533" y="544" type="curve" smooth="yes"/>
      <point x="537" y="551"/>
      <point x="543" y="559"/>
      <point x="546" y="562" type="curve" smooth="yes"/>
      <point x="554" y="571"/>
      <point x="561" y="585"/>
      <point x="565" y="601" type="curve" smooth="yes"/>
      <point x="568" y="614"/>
      <point x="568" y="618"/>
      <point x="566" y="627" type="curve" smooth="yes"/>
      <point x="565" y="634"/>
      <point x="565" y="642"/>
      <point x="566" y="649" type="curve" smooth="yes"/>
      <point x="571" y="682"/>
      <point x="570" y="686"/>
      <point x="554" y="695" type="curve" smooth="yes"/>
      <point x="545" y="700"/>
      <point x="543" y="700"/>
      <point x="514" y="700" type="curve" smooth="yes"/>
      <point x="498" y="700"/>
      <point x="478" y="699"/>
      <point x="470" y="698" type="curve" smooth="yes"/>
      <point x="462" y="697"/>
      <point x="454" y="696"/>
      <point x="452" y="696" type="curve" smooth="yes"/>
      <point x="451" y="696"/>
      <point x="438" y="697"/>
      <point x="423" y="698" type="curve" smooth="yes"/>
      <point x="396" y="700"/>
      <point x="384" y="700"/>
      <point x="314" y="700" type="curve" smooth="yes"/>
      <point x="291" y="700"/>
      <point x="269" y="700"/>
      <point x="265" y="700" type="curve" smooth="yes"/>
      <point x="262" y="700"/>
      <point x="242" y="700"/>
      <point x="221" y="700" type="curve" smooth="yes"/>
      <point x="201" y="700"/>
      <point x="163" y="700"/>
      <point x="138" y="700" type="curve" smooth="yes"/>
      <point x="112" y="701"/>
      <point x="81" y="700"/>
      <point x="69" y="700" type="curve" smooth="yes"/>
    </contour>
  </outline>
</glyph>
<glyph name="eight" format="1">
  <advance width="650"/>
  <unicode hex="0038"/>
  <outline>
    <contour>
      <point x="147" y="706"/>
      <point x="50" y="606"/>
      <point x="50" y="486" type="curve" smooth="yes"/>
      <point x="50" y="405"/>
      <point x="95" y="369"/>
      <point x="140" y="334" type="curve" smooth="yes"/>
      <point x="149" y="327"/>
      <point x="146" y="324"/>
      <point x="138" y="320" type="curve" smooth="yes"/>
      <point x="53" y="277"/>
      <point x="28" y="231"/>
      <point x="28" y="172" type="curve" smooth="yes"/>
      <point x="28" y="54"/>
      <point x="148" y="-9"/>
      <point x="316" y="-9" type="curve" smooth="yes"/>
      <point x="501" y="-9"/>
      <point x="631" y="68"/>
      <point x="631" y="207" type="curve" smooth="yes"/>
      <point x="631" y="271"/>
      <point x="606" y="318"/>
      <point x="511" y="376" type="curve" smooth="yes"/>
      <point x="499" y="384"/>
      <point x="502" y="389"/>
      <point x="512" y="395" type="curve" smooth="yes"/>
      <point x="575" y="433"/>
      <point x="599" y="464"/>
      <point x="599" y="514" type="curve" smooth="yes"/>
      <point x="599" y="624"/>
      <point x="480" y="706"/>
      <point x="322" y="706" type="curve" smooth="yes"/>
    </contour>
    <contour>
      <point x="389" y="573"/>
      <point x="422" y="540"/>
      <point x="422" y="506" type="curve" smooth="yes"/>
      <point x="422" y="472"/>
      <point x="388" y="425"/>
      <point x="352" y="438" type="curve" smooth="yes"/>
      <point x="285" y="462" type="line" smooth="yes"/>
      <point x="256" y="472"/>
      <point x="240" y="489"/>
      <point x="240" y="514" type="curve" smooth="yes"/>
      <point x="240" y="551"/>
      <point x="275" y="573"/>
      <point x="326" y="573" type="curve" smooth="yes"/>
    </contour>
    <contour>
      <point x="246" y="123"/>
      <point x="208" y="153"/>
      <point x="208" y="194" type="curve" smooth="yes"/>
      <point x="208" y="238"/>
      <point x="260" y="284"/>
      <point x="296" y="271" type="curve" smooth="yes"/>
      <point x="363" y="247" type="line" smooth="yes"/>
      <point x="414" y="229"/>
      <point x="425" y="208"/>
      <point x="425" y="183" type="curve" smooth="yes"/>
      <point x="425" y="146"/>
      <point x="394" y="123"/>
      <point x="336" y="123" type="curve" smooth="yes"/>
    </contour>
  </outline>
</glyph>
<glyph name="nine" format="1">
  <advance width="703"/>
  <unicode hex="0039"/>
  <outline>
    <contour>
      <point x="528" y="-8"/>
      <point x="669" y="141"/>
      <point x="669" y="390" type="curve" smooth="yes"/>
      <point x="669" y="606"/>
      <point x="541" y="750"/>
      <point x="336" y="750" type="curve" smooth="yes"/>
      <point x="161" y="750"/>
      <point x="26" y="645"/>
      <point x="26" y="502" type="curve" smooth="yes"/>
      <point x="26" y="372"/>
      <point x="136" y="281"/>
      <point x="291" y="281" type="curve" smooth="yes"/>
      <point x="347" y="281"/>
      <point x="379" y="293"/>
      <point x="419" y="309" type="curve" smooth="yes"/>
      <point x="440" y="317"/>
      <point x="444" y="314"/>
      <point x="444" y="289" type="curve" smooth="yes"/>
      <point x="444" y="202"/>
      <point x="397" y="146"/>
      <point x="327" y="146" type="curve" smooth="yes"/>
      <point x="280" y="146"/>
      <point x="261" y="172"/>
      <point x="239" y="208" type="curve" smooth="yes"/>
      <point x="236" y="214"/>
      <point x="230" y="225"/>
      <point x="217" y="221" type="curve" smooth="yes"/>
      <point x="74" y="179" type="line" smooth="yes"/>
      <point x="60" y="175"/>
      <point x="60" y="163"/>
      <point x="62" y="152" type="curve" smooth="yes"/>
      <point x="74" y="89"/>
      <point x="175" y="-8"/>
      <point x="327" y="-8" type="curve" smooth="yes"/>
    </contour>
    <contour>
      <point x="296" y="425"/>
      <point x="250" y="453"/>
      <point x="250" y="511" type="curve" smooth="yes"/>
      <point x="250" y="567"/>
      <point x="292" y="606"/>
      <point x="344" y="606" type="curve" smooth="yes"/>
      <point x="402" y="606"/>
      <point x="442" y="559"/>
      <point x="442" y="479" type="curve" smooth="yes"/>
      <point x="442" y="461"/>
      <point x="440" y="457"/>
      <point x="432" y="451" type="curve" smooth="yes"/>
      <point x="416" y="439"/>
      <point x="376" y="425"/>
      <point x="343" y="425" type="curve" smooth="yes"/>
    </contour>
  </outline>
</glyph>
<glyph name="semicolon" format="1">
  <advance width="250"/>
  <unicode hex="003B"/>
  <outline>
    <contour>
      <point x="222" y="486"/>
      <point x="216" y="493"/>
      <point x="205" y="493" type="curve" smooth="yes"/>
      <point x="42" y="493" type="line" smooth="yes"/>
      <point x="31" y="493"/>
      <point x="24" y="486"/>
      <point x="24" y="472" type="curve" smooth="yes"/>
      <point x="24" y="327" type="line" smooth="yes"/>
      <point x="24" y="311"/>
      <point x="30" y="303"/>
      <point x="49" y="303" type="curve" smooth="yes"/>
      <point x="191" y="303" type="line" smooth="yes"/>
      <point x="213" y="303"/>
      <point x="222" y="311"/>
      <point x="222" y="330" type="curve" smooth="yes"/>
      <point x="222" y="474" type="line" smooth="yes"/>
    </contour>
    <contour>
      <point x="30" y="0"/>
      <point x="24" y="8"/>
      <point x="24" y="24" type="curve" smooth="yes"/>
      <point x="24" y="166" type="line" smooth="yes"/>
      <point x="24" y="180"/>
      <point x="31" y="187"/>
      <point x="42" y="187" type="curve" smooth="yes"/>
      <point x="205" y="187" type="line" smooth="yes"/>
      <point x="216" y="187"/>
      <point x="222" y="180"/>
      <point x="222" y="168" type="curve" smooth="yes"/>
      <point x="222" y="30" type="line" smooth="yes"/>
      <point x="222" y="24"/>
      <point x="221" y="21"/>
      <point x="218" y="16" type="curve" smooth="yes"/>
      <point x="110" y="-138" type="line" smooth="yes"/>
      <point x="100" y="-152"/>
      <point x="81" y="-160"/>
      <point x="67" y="-160" type="curve" smooth="yes"/>
      <point x="46" y="-160" type="line" smooth="yes"/>
      <point x="34" y="-160"/>
      <point x="26" y="-147"/>
      <point x="31" y="-136" type="curve" smooth="yes"/>
      <point x="78" y="-30" type="line" smooth="yes"/>
      <point x="86" y="-11"/>
      <point x="85" y="0"/>
      <point x="70" y="0" type="curve" smooth="yes"/>
      <point x="49" y="0" type="line" smooth="yes"/>
    </contour>
  </outline>
</glyph>
<glyph name="A" format="1">
  <advance width="700"/>
  <unicode hex="0041"/>
  <outline>
    <contour>
      <point x="440" y="700" type="line" smooth="yes"/>
      <point x="456" y="700"/>
      <point x="468" y="690"/>
      <point x="473" y="675" type="curve" smooth="yes"/>
      <point x="692" y="32" type="line" smooth="yes"/>
      <point x="696" y="19"/>
      <point x="693" y="0"/>
      <point x="679" y="0" type="curve" smooth="yes"/>
      <point x="497" y="0" type="line" smooth="yes"/>
      <point x="487" y="0"/>
      <point x="479" y="4"/>
      <point x="476" y="16" type="curve" smooth="yes"/>
      <point x="442" y="133" type="line" smooth="yes"/>
      <point x="440" y="140"/>
      <point x="437" y="144"/>
      <point x="428" y="144" type="curve" smooth="yes"/>
      <point x="238" y="144" type="line" smooth="yes"/>
      <point x="230" y="144"/>
      <point x="226" y="141"/>
      <point x="224" y="134" type="curve" smooth="yes"/>
      <point x="188" y="14" type="line" smooth="yes"/>
      <point x="186" y="7"/>
      <point x="178" y="0"/>
      <point x="165" y="0" type="curve" smooth="yes"/>
      <point x="22" y="0" type="line" smooth="yes"/>
      <point x="8" y="0"/>
      <point x="1" y="14"/>
      <point x="8" y="35" type="curve" smooth="yes"/>
      <point x="228" y="679" type="line" smooth="yes"/>
      <point x="233" y="694"/>
      <point x="240" y="700"/>
      <point x="256" y="700" type="curve" smooth="yes"/>
    </contour>
    <contour>
      <point x="337" y="477" type="line" smooth="yes"/>
      <point x="335" y="483"/>
      <point x="329" y="483"/>
      <point x="327" y="477" type="curve" smooth="yes"/>
      <point x="274" y="316" type="line" smooth="yes"/>
      <point x="270" y="304"/>
      <point x="272" y="296"/>
      <point x="283" y="296" type="curve" smooth="yes"/>
      <point x="380" y="296" type="line" smooth="yes"/>
      <point x="391" y="296"/>
      <point x="393" y="303"/>
      <point x="389" y="315" type="curve" smooth="yes"/>
    </contour>
  </outline>
</glyph>
<glyph name="B" format="1">
  <advance width="700"/>
  <unicode hex="0042"/>
  <outline>
    <contour>
      <point x="52" y="0"/>
      <point x="43" y="9"/>
      <point x="43" y="21" type="curve" smooth="yes"/>
      <point x="43" y="676" type="line" smooth="yes"/>
      <point x="43" y="690"/>
      <point x="53" y="700"/>
      <point x="67" y="700" type="curve" smooth="yes"/>
      <point x="365" y="700" type="line" smooth="yes"/>
      <point x="561" y="700"/>
      <point x="665" y="637"/>
      <point x="665" y="518" type="curve" smooth="yes"/>
      <point x="665" y="450"/>
      <point x="635" y="408"/>
      <point x="541" y="364" type="curve" smooth="yes"/>
      <point x="538" y="363"/>
      <point x="538" y="359"/>
      <point x="541" y="358" type="curve" smooth="yes"/>
      <point x="647" y="319"/>
      <point x="683" y="271"/>
      <point x="683" y="189" type="curve" smooth="yes"/>
      <point x="683" y="61"/>
      <point x="586" y="0"/>
      <point x="380" y="0" type="curve" smooth="yes"/>
      <point x="65" y="0" type="line" smooth="yes"/>
    </contour>
    <contour>
      <point x="255" y="435"/>
      <point x="259" y="429"/>
      <point x="271" y="429" type="curve" smooth="yes"/>
      <point x="380" y="429" type="line" smooth="yes"/>
      <point x="425" y="429"/>
      <point x="453" y="456"/>
      <point x="453" y="492" type="curve" smooth="yes"/>
      <point x="453" y="532"/>
      <point x="418" y="559"/>
      <point x="374" y="559" type="curve" smooth="yes"/>
      <point x="277" y="559" type="line" smooth="yes"/>
      <point x="261" y="559"/>
      <point x="255" y="554"/>
      <point x="255" y="540" type="curve" smooth="yes"/>
      <point x="255" y="449" type="line" smooth="yes"/>
    </contour>
    <contour>
      <point x="255" y="147"/>
      <point x="259" y="141"/>
      <point x="271" y="141" type="curve" smooth="yes"/>
      <point x="376" y="141" type="line" smooth="yes"/>
      <point x="431" y="141"/>
      <point x="459" y="177"/>
      <point x="459" y="213" type="curve" smooth="yes"/>
      <point x="459" y="253"/>
      <point x="428" y="280"/>
      <point x="380" y="280" type="curve" smooth="yes"/>
      <point x="277" y="280" type="line" smooth="yes"/>
      <point x="261" y="280"/>
      <point x="255" y="275"/>
      <point x="255" y="261" type="curve" smooth="yes"/>
      <point x="255" y="161" type="line" smooth="yes"/>
    </contour>
  </outline>
</glyph>
<glyph name="C" format="1">
  <advance width="700"/>
  <unicode hex="0043"/>
  <outline>
    <contour>
      <point x="523" y="708"/>
      <point x="637" y="618"/>
      <point x="662" y="493" type="curve" smooth="yes"/>
      <point x="667" y="466"/>
      <point x="664" y="462"/>
      <point x="649" y="460" type="curve"/>
      <point x="484" y="449" type="line"/>
      <point x="470" y="449"/>
      <point x="468" y="454"/>
      <point x="466" y="467" type="curve" smooth="yes"/>
      <point x="456" y="519"/>
      <point x="431" y="562"/>
      <point x="369" y="562" type="curve" smooth="yes"/>
      <point x="298" y="562"/>
      <point x="253" y="507"/>
      <point x="253" y="356" type="curve" smooth="yes"/>
      <point x="253" y="203"/>
      <point x="299" y="148"/>
      <point x="376" y="148" type="curve" smooth="yes"/>
      <point x="439" y="148"/>
      <point x="480" y="176"/>
      <point x="513" y="256" type="curve" smooth="yes"/>
      <point x="516" y="263"/>
      <point x="524" y="266"/>
      <point x="539" y="263" type="curve" smooth="yes"/>
      <point x="657" y="240" type="line" smooth="yes"/>
      <point x="664" y="238"/>
      <point x="674" y="233"/>
      <point x="670" y="209" type="curve" smooth="yes"/>
      <point x="661" y="158"/>
      <point x="580" y="-8"/>
      <point x="362" y="-8" type="curve" smooth="yes"/>
      <point x="159" y="-8"/>
      <point x="27" y="137"/>
      <point x="27" y="350" type="curve" smooth="yes"/>
      <point x="27" y="563"/>
      <point x="159" y="708"/>
      <point x="363" y="708" type="curve" smooth="yes"/>
    </contour>
  </outline>
</glyph>
<glyph name="D" format="1">
  <advance width="687"/>
  <unicode hex="0044"/>
  <outline>
    <contour>
      <point x="34" y="696"/>
      <point x="30" y="692"/>
      <point x="26" y="684" type="curve" smooth="yes"/>
      <point x="24" y="678"/>
      <point x="23" y="657"/>
      <point x="22" y="551" type="curve" smooth="yes"/>
      <point x="22" y="375"/>
      <point x="21" y="223"/>
      <point x="22" y="126" type="curve" smooth="yes"/>
      <point x="22" y="81"/>
      <point x="21" y="37"/>
      <point x="21" y="30" type="curve" smooth="yes"/>
      <point x="20" y="18"/>
      <point x="20" y="15"/>
      <point x="23" y="11" type="curve" smooth="yes"/>
      <point x="32" y="0"/>
      <point x="38" y="-1"/>
      <point x="75" y="0" type="curve" smooth="yes"/>
      <point x="155" y="3"/>
      <point x="234" y="4"/>
      <point x="291" y="3" type="curve" smooth="yes"/>
      <point x="297" y="3"/>
      <point x="341" y="5"/>
      <point x="361" y="6" type="curve" smooth="yes"/>
      <point x="393" y="9"/>
      <point x="436" y="17"/>
      <point x="446" y="23" type="curve" smooth="yes"/>
      <point x="450" y="25"/>
      <point x="455" y="27"/>
      <point x="459" y="28" type="curve" smooth="yes"/>
      <point x="462" y="28"/>
      <point x="466" y="30"/>
      <point x="467" y="31" type="curve" smooth="yes"/>
      <point x="468" y="31"/>
      <point x="474" y="34"/>
      <point x="480" y="36" type="curve" smooth="yes"/>
      <point x="499" y="44"/>
      <point x="504" y="46"/>
      <point x="526" y="61" type="curve" smooth="yes"/>
      <point x="563" y="85"/>
      <point x="596" y="119"/>
      <point x="616" y="152" type="curve" smooth="yes"/>
      <point x="620" y="158"/>
      <point x="626" y="168"/>
      <point x="630" y="175" type="curve" smooth="yes"/>
      <point x="639" y="188"/>
      <point x="659" y="246"/>
      <point x="659" y="257" type="curve" smooth="yes"/>
      <point x="659" y="260"/>
      <point x="660" y="269"/>
      <point x="661" y="276" type="curve" smooth="yes"/>
      <point x="666" y="311"/>
      <point x="667" y="325"/>
      <point x="667" y="358" type="curve" smooth="yes"/>
      <point x="668" y="397"/>
      <point x="665" y="419"/>
      <point x="655" y="458" type="curve" smooth="yes"/>
      <point x="648" y="482"/>
      <point x="636" y="515"/>
      <point x="629" y="523" type="curve" smooth="yes"/>
      <point x="626" y="527"/>
      <point x="622" y="534"/>
      <point x="620" y="539" type="curve" smooth="yes"/>
      <point x="618" y="544"/>
      <point x="612" y="554"/>
      <point x="606" y="560" type="curve" smooth="yes"/>
      <point x="601" y="566"/>
      <point x="595" y="574"/>
      <point x="593" y="577" type="curve" smooth="yes"/>
      <point x="581" y="591"/>
      <point x="572" y="600"/>
      <point x="560" y="609" type="curve" smooth="yes"/>
      <point x="553" y="614"/>
      <point x="544" y="620"/>
      <point x="541" y="624" type="curve" smooth="yes"/>
      <point x="518" y="643"/>
      <point x="462" y="669"/>
      <point x="431" y="675" type="curve" smooth="yes"/>
      <point x="424" y="677"/>
      <point x="406" y="680"/>
      <point x="391" y="683" type="curve" smooth="yes"/>
      <point x="360" y="690"/>
      <point x="341" y="692"/>
      <point x="286" y="693" type="curve" smooth="yes"/>
      <point x="231" y="694"/>
      <point x="93" y="698"/>
      <point x="83" y="698" type="curve" smooth="yes"/>
      <point x="79" y="699"/>
      <point x="70" y="700"/>
      <point x="64" y="700" type="curve" smooth="yes"/>
      <point x="57" y="701"/>
      <point x="48" y="700"/>
      <point x="44" y="699" type="curve" smooth="yes"/>
    </contour>
    <contour>
      <point x="293" y="550"/>
      <point x="303" y="549"/>
      <point x="307" y="549" type="curve" smooth="yes"/>
      <point x="346" y="542"/>
      <point x="350" y="540"/>
      <point x="373" y="527" type="curve" smooth="yes"/>
      <point x="405" y="508"/>
      <point x="432" y="473"/>
      <point x="439" y="442" type="curve" smooth="yes"/>
      <point x="440" y="436"/>
      <point x="442" y="429"/>
      <point x="443" y="426" type="curve" smooth="yes"/>
      <point x="447" y="416"/>
      <point x="447" y="404"/>
      <point x="447" y="353" type="curve" smooth="yes"/>
      <point x="447" y="310"/>
      <point x="446" y="296"/>
      <point x="444" y="287" type="curve" smooth="yes"/>
      <point x="442" y="281"/>
      <point x="441" y="273"/>
      <point x="441" y="270" type="curve" smooth="yes"/>
      <point x="441" y="263"/>
      <point x="431" y="240"/>
      <point x="420" y="222" type="curve" smooth="yes"/>
      <point x="411" y="206"/>
      <point x="394" y="187"/>
      <point x="382" y="179" type="curve" smooth="yes"/>
      <point x="368" y="170"/>
      <point x="346" y="160"/>
      <point x="337" y="158" type="curve" smooth="yes"/>
      <point x="332" y="158"/>
      <point x="326" y="156"/>
      <point x="323" y="155" type="curve" smooth="yes"/>
      <point x="314" y="153"/>
      <point x="287" y="149"/>
      <point x="265" y="148" type="curve" smooth="yes"/>
      <point x="238" y="147"/>
      <point x="238" y="147"/>
      <point x="238" y="174" type="curve" smooth="yes"/>
      <point x="237" y="291"/>
      <point x="238" y="433"/>
      <point x="239" y="434" type="curve" smooth="yes"/>
      <point x="240" y="435"/>
      <point x="239" y="459"/>
      <point x="238" y="487" type="curve" smooth="yes"/>
      <point x="237" y="538"/>
      <point x="237" y="548"/>
      <point x="242" y="551" type="curve" smooth="yes"/>
      <point x="243" y="552"/>
      <point x="249" y="552"/>
      <point x="256" y="552" type="curve" smooth="yes"/>
      <point x="263" y="551"/>
      <point x="275" y="551"/>
      <point x="284" y="550" type="curve" smooth="yes"/>
    </contour>
  </outline>
</glyph>
<glyph name="E" format="1">
  <advance width="598"/>
  <unicode hex="0045"/>
  <outline>
    <contour>
      <point x="41" y="693"/>
      <point x="30" y="690"/>
      <point x="28" y="688" type="curve" smooth="yes"/>
      <point x="26" y="687"/>
      <point x="25" y="681"/>
      <point x="25" y="673" type="curve" smooth="yes"/>
      <point x="25" y="666"/>
      <point x="24" y="659"/>
      <point x="23" y="658" type="curve" smooth="yes"/>
      <point x="22" y="657"/>
      <point x="21" y="534"/>
      <point x="21" y="385" type="curve" smooth="yes"/>
      <point x="21" y="237"/>
      <point x="20" y="92"/>
      <point x="20" y="64" type="curve" smooth="yes"/>
      <point x="20" y="36"/>
      <point x="20" y="12"/>
      <point x="21" y="10" type="curve" smooth="yes"/>
      <point x="22" y="8"/>
      <point x="26" y="5"/>
      <point x="30" y="3" type="curve" smooth="yes"/>
      <point x="37" y="0"/>
      <point x="45" y="0"/>
      <point x="83" y="0" type="curve" smooth="yes"/>
      <point x="147" y="1"/>
      <point x="415" y="1"/>
      <point x="489" y="1" type="curve" smooth="yes"/>
      <point x="559" y="0"/>
      <point x="565" y="1"/>
      <point x="570" y="12" type="curve" smooth="yes"/>
      <point x="572" y="16"/>
      <point x="574" y="34"/>
      <point x="576" y="74" type="curve" smooth="yes"/>
      <point x="580" y="140"/>
      <point x="579" y="145"/>
      <point x="567" y="153" type="curve" smooth="yes"/>
      <point x="559" y="157"/>
      <point x="559" y="157"/>
      <point x="522" y="156" type="curve" smooth="yes"/>
      <point x="502" y="155"/>
      <point x="454" y="155"/>
      <point x="415" y="155" type="curve" smooth="yes"/>
      <point x="361" y="155"/>
      <point x="344" y="154"/>
      <point x="338" y="152" type="curve" smooth="yes"/>
      <point x="333" y="150"/>
      <point x="329" y="150"/>
      <point x="327" y="151" type="curve" smooth="yes"/>
      <point x="325" y="152"/>
      <point x="309" y="154"/>
      <point x="290" y="154" type="curve" smooth="yes"/>
      <point x="263" y="154"/>
      <point x="255" y="154"/>
      <point x="253" y="152" type="curve" smooth="yes"/>
      <point x="251" y="150"/>
      <point x="250" y="150"/>
      <point x="249" y="151" type="curve" smooth="yes"/>
      <point x="248" y="152"/>
      <point x="246" y="153"/>
      <point x="243" y="153" type="curve" smooth="yes"/>
      <point x="234" y="153"/>
      <point x="233" y="156"/>
      <point x="233" y="202" type="curve" smooth="yes"/>
      <point x="233" y="246"/>
      <point x="236" y="268"/>
      <point x="240" y="273" type="curve" smooth="yes"/>
      <point x="243" y="276"/>
      <point x="267" y="276"/>
      <point x="388" y="275" type="curve" smooth="yes"/>
      <point x="439" y="275"/>
      <point x="441" y="275"/>
      <point x="444" y="290" type="curve" smooth="yes"/>
      <point x="447" y="302"/>
      <point x="446" y="404"/>
      <point x="443" y="413" type="curve" smooth="yes"/>
      <point x="440" y="423"/>
      <point x="434" y="426"/>
      <point x="410" y="428" type="curve" smooth="yes"/>
      <point x="397" y="429"/>
      <point x="386" y="430"/>
      <point x="384" y="430" type="curve" smooth="yes"/>
      <point x="349" y="428"/>
      <point x="336" y="428"/>
      <point x="283" y="428" type="curve" smooth="yes"/>
      <point x="231" y="429"/>
      <point x="235" y="425"/>
      <point x="236" y="481" type="curve" smooth="yes"/>
      <point x="236" y="541"/>
      <point x="237" y="543"/>
      <point x="262" y="543" type="curve" smooth="yes"/>
      <point x="268" y="543"/>
      <point x="327" y="543"/>
      <point x="393" y="542" type="curve" smooth="yes"/>
      <point x="460" y="541"/>
      <point x="522" y="541"/>
      <point x="532" y="540" type="curve" smooth="yes"/>
      <point x="553" y="539"/>
      <point x="561" y="542"/>
      <point x="565" y="553" type="curve" smooth="yes"/>
      <point x="567" y="557"/>
      <point x="567" y="579"/>
      <point x="567" y="621" type="curve" smooth="yes"/>
      <point x="567" y="683" type="line"/>
      <point x="562" y="689" type="line"/>
      <point x="556" y="694" type="line"/>
      <point x="482" y="693" type="line" smooth="yes"/>
      <point x="441" y="693"/>
      <point x="404" y="693"/>
      <point x="400" y="693" type="curve" smooth="yes"/>
      <point x="321" y="692"/>
      <point x="105" y="696"/>
      <point x="86" y="698" type="curve" smooth="yes"/>
      <point x="83" y="698"/>
      <point x="68" y="697"/>
      <point x="55" y="695" type="curve" smooth="yes"/>
    </contour>
  </outline>
</glyph>
<glyph name="F" format="1">
  <advance width="579"/>
  <unicode hex="0046"/>
  <outline>
    <contour>
      <point x="21" y="685"/>
      <point x="21" y="687"/>
      <point x="21" y="575" type="curve" smooth="yes"/>
      <point x="20" y="419"/>
      <point x="20" y="291"/>
      <point x="21" y="232" type="curve" smooth="yes"/>
      <point x="21" y="203"/>
      <point x="21" y="143"/>
      <point x="20" y="101" type="curve" smooth="yes"/>
      <point x="20" y="26"/>
      <point x="20" y="22"/>
      <point x="23" y="15" type="curve" smooth="yes"/>
      <point x="27" y="8"/>
      <point x="29" y="7"/>
      <point x="36" y="4" type="curve" smooth="yes"/>
      <point x="46" y="1"/>
      <point x="67" y="0"/>
      <point x="103" y="0" type="curve" smooth="yes"/>
      <point x="160" y="1"/>
      <point x="169" y="1"/>
      <point x="191" y="0" type="curve" smooth="yes"/>
      <point x="214" y="0"/>
      <point x="215" y="0"/>
      <point x="223" y="5" type="curve" smooth="yes"/>
      <point x="234" y="12"/>
      <point x="237" y="23"/>
      <point x="236" y="47" type="curve" smooth="yes"/>
      <point x="232" y="135"/>
      <point x="231" y="168"/>
      <point x="232" y="214" type="curve" smooth="yes"/>
      <point x="233" y="243"/>
      <point x="234" y="267"/>
      <point x="235" y="268" type="curve" smooth="yes"/>
      <point x="236" y="270"/>
      <point x="242" y="270"/>
      <point x="252" y="270" type="curve" smooth="yes"/>
      <point x="261" y="269"/>
      <point x="269" y="270"/>
      <point x="271" y="271" type="curve" smooth="yes"/>
      <point x="273" y="272"/>
      <point x="279" y="272"/>
      <point x="284" y="271" type="curve" smooth="yes"/>
      <point x="290" y="270"/>
      <point x="300" y="271"/>
      <point x="308" y="272" type="curve" smooth="yes"/>
      <point x="318" y="273"/>
      <point x="324" y="273"/>
      <point x="330" y="271" type="curve" smooth="yes"/>
      <point x="342" y="268"/>
      <point x="421" y="267"/>
      <point x="428" y="270" type="curve" smooth="yes"/>
      <point x="433" y="271"/>
      <point x="435" y="274"/>
      <point x="438" y="281" type="curve" smooth="yes"/>
      <point x="442" y="288"/>
      <point x="442" y="293"/>
      <point x="442" y="313" type="curve" smooth="yes"/>
      <point x="441" y="344"/>
      <point x="441" y="341"/>
      <point x="442" y="369" type="curve" smooth="yes"/>
      <point x="444" y="396"/>
      <point x="442" y="410"/>
      <point x="437" y="415" type="curve" smooth="yes"/>
      <point x="433" y="419"/>
      <point x="433" y="419"/>
      <point x="327" y="420" type="curve" smooth="yes"/>
      <point x="266" y="420"/>
      <point x="238" y="421"/>
      <point x="236" y="423" type="curve" smooth="yes"/>
      <point x="233" y="424"/>
      <point x="231" y="427"/>
      <point x="231" y="430" type="curve" smooth="yes"/>
      <point x="228" y="441"/>
      <point x="229" y="515"/>
      <point x="232" y="525" type="curve" smooth="yes"/>
      <point x="235" y="544"/>
      <point x="237" y="544"/>
      <point x="280" y="545" type="curve" smooth="yes"/>
      <point x="353" y="548"/>
      <point x="469" y="547"/>
      <point x="504" y="545" type="curve" smooth="yes"/>
      <point x="534" y="542"/>
      <point x="539" y="542"/>
      <point x="544" y="545" type="curve" smooth="yes"/>
      <point x="557" y="552"/>
      <point x="558" y="553"/>
      <point x="556" y="621" type="curve" smooth="yes"/>
      <point x="556" y="623"/>
      <point x="557" y="635"/>
      <point x="558" y="648" type="curve" smooth="yes"/>
      <point x="559" y="666"/>
      <point x="559" y="671"/>
      <point x="556" y="677" type="curve" smooth="yes"/>
      <point x="551" y="688"/>
      <point x="546" y="690"/>
      <point x="512" y="691" type="curve" smooth="yes"/>
      <point x="473" y="693"/>
      <point x="476" y="693"/>
      <point x="432" y="691" type="curve" smooth="yes"/>
      <point x="394" y="690"/>
      <point x="385" y="690"/>
      <point x="353" y="690" type="curve" smooth="yes"/>
      <point x="343" y="690"/>
      <point x="325" y="690"/>
      <point x="313" y="690" type="curve" smooth="yes"/>
      <point x="301" y="690"/>
      <point x="284" y="690"/>
      <point x="276" y="691" type="curve" smooth="yes"/>
      <point x="268" y="692"/>
      <point x="211" y="693"/>
      <point x="151" y="693" type="curve" smooth="yes"/>
      <point x="55" y="694"/>
      <point x="39" y="693"/>
      <point x="34" y="691" type="curve" smooth="yes"/>
    </contour>
  </outline>
</glyph>
<glyph name="G" format="1">
  <advance width="772"/>
  <unicode hex="0047"/>
  <outline>
    <contour>
      <point x="494" y="173"/>
      <point x="459" y="146"/>
      <point x="400" y="146" type="curve" smooth="yes"/>
      <point x="324" y="146"/>
      <point x="272" y="193"/>
      <point x="272" y="374" type="curve" smooth="yes"/>
      <point x="272" y="544"/>
      <point x="318" y="597"/>
      <point x="392" y="597" type="curve" smooth="yes"/>
      <point x="464" y="597"/>
      <point x="499" y="547"/>
      <point x="509" y="492" type="curve" smooth="yes"/>
      <point x="512" y="479"/>
      <point x="513" y="472"/>
      <point x="529" y="472" type="curve" smooth="yes"/>
      <point x="700" y="498" type="line" smooth="yes"/>
      <point x="716" y="500"/>
      <point x="720" y="505"/>
      <point x="714" y="533" type="curve" smooth="yes"/>
      <point x="690" y="640"/>
      <point x="577" y="752"/>
      <point x="397" y="752" type="curve" smooth="yes"/>
      <point x="183" y="752"/>
      <point x="34" y="599"/>
      <point x="34" y="368" type="curve" smooth="yes"/>
      <point x="34" y="145"/>
      <point x="173" y="-10"/>
      <point x="384" y="-10" type="curve" smooth="yes"/>
      <point x="502" y="-10"/>
      <point x="553" y="40"/>
      <point x="589" y="75" type="curve" smooth="yes"/>
      <point x="594" y="81"/>
      <point x="597" y="81"/>
      <point x="600" y="77" type="curve" smooth="yes"/>
      <point x="640" y="19" type="line" smooth="yes"/>
      <point x="649" y="5"/>
      <point x="660" y="0"/>
      <point x="672" y="0" type="curve" smooth="yes"/>
      <point x="710" y="0" type="line" smooth="yes"/>
      <point x="720" y="0"/>
      <point x="727" y="8"/>
      <point x="727" y="17" type="curve" smooth="yes"/>
      <point x="727" y="344" type="line" smooth="yes"/>
      <point x="727" y="362"/>
      <point x="714" y="375"/>
      <point x="689" y="375" type="curve" smooth="yes"/>
      <point x="409" y="377" type="line" smooth="yes"/>
      <point x="394" y="377"/>
      <point x="388" y="370"/>
      <point x="388" y="360" type="curve" smooth="yes"/>
      <point x="388" y="264" type="line" smooth="yes"/>
      <point x="388" y="247"/>
      <point x="394" y="242"/>
      <point x="408" y="242" type="curve" smooth="yes"/>
      <point x="502" y="242" type="line" smooth="yes"/>
      <point x="512" y="242"/>
      <point x="515" y="236"/>
      <point x="511" y="225" type="curve" smooth="yes"/>
    </contour>
  </outline>
</glyph>
<glyph name="J" format="1">
  <advance width="417"/>
  <unicode hex="004A"/>
  <outline>
    <contour>
      <point x="189" y="713"/>
      <point x="184" y="710"/>
      <point x="181" y="707" type="curve" smooth="yes"/>
      <point x="177" y="702"/>
      <point x="177" y="701"/>
      <point x="177" y="660" type="curve" smooth="yes"/>
      <point x="178" y="636"/>
      <point x="178" y="539"/>
      <point x="178" y="442" type="curve" smooth="yes"/>
      <point x="178" y="346"/>
      <point x="178" y="263"/>
      <point x="178" y="260" type="curve" smooth="yes"/>
      <point x="178" y="233"/>
      <point x="169" y="207"/>
      <point x="155" y="194" type="curve" smooth="yes"/>
      <point x="139" y="178"/>
      <point x="105" y="171"/>
      <point x="75" y="177" type="curve" smooth="yes"/>
      <point x="49" y="182"/>
      <point x="43" y="182"/>
      <point x="39" y="180" type="curve" smooth="yes"/>
      <point x="32" y="176"/>
      <point x="30" y="168"/>
      <point x="27" y="145" type="curve" smooth="yes"/>
      <point x="26" y="132"/>
      <point x="25" y="118"/>
      <point x="24" y="113" type="curve" smooth="yes"/>
      <point x="24" y="109"/>
      <point x="22" y="88"/>
      <point x="21" y="68" type="curve" smooth="yes"/>
      <point x="19" y="34"/>
      <point x="19" y="31"/>
      <point x="23" y="25" type="curve" smooth="yes"/>
      <point x="28" y="16"/>
      <point x="38" y="10"/>
      <point x="47" y="10" type="curve" smooth="yes"/>
      <point x="51" y="10"/>
      <point x="62" y="8"/>
      <point x="71" y="6" type="curve" smooth="yes"/>
      <point x="119" y="-5"/>
      <point x="226" y="-1"/>
      <point x="267" y="14" type="curve" smooth="yes"/>
      <point x="273" y="16"/>
      <point x="280" y="19"/>
      <point x="284" y="20" type="curve" smooth="yes"/>
      <point x="294" y="23"/>
      <point x="324" y="38"/>
      <point x="330" y="44" type="curve" smooth="yes"/>
      <point x="334" y="47"/>
      <point x="340" y="52"/>
      <point x="343" y="55" type="curve" smooth="yes"/>
      <point x="359" y="67"/>
      <point x="380" y="100"/>
      <point x="383" y="121" type="curve" smooth="yes"/>
      <point x="384" y="125"/>
      <point x="386" y="132"/>
      <point x="388" y="136" type="curve" smooth="yes"/>
      <point x="392" y="144"/>
      <point x="392" y="152"/>
      <point x="395" y="202" type="curve" smooth="yes"/>
      <point x="398" y="280"/>
      <point x="397" y="694"/>
      <point x="394" y="702" type="curve" smooth="yes"/>
      <point x="389" y="714"/>
      <point x="387" y="714"/>
      <point x="289" y="715" type="curve" smooth="yes"/>
      <point x="240" y="715"/>
      <point x="197" y="715"/>
      <point x="193" y="714" type="curve" smooth="yes"/>
    </contour>
  </outline>
</glyph>
<glyph name="K" format="1">
  <advance width="700"/>
  <unicode hex="004B"/>
  <outline>
    <contour>
      <point x="504" y="453" type="line" smooth="yes"/>
      <point x="498" y="466"/>
      <point x="499" y="473"/>
      <point x="507" y="483" type="curve" smooth="yes"/>
      <point x="662" y="673" type="line" smooth="yes"/>
      <point x="674" y="687"/>
      <point x="663" y="700"/>
      <point x="642" y="700" type="curve" smooth="yes"/>
      <point x="498" y="700" type="line" smooth="yes"/>
      <point x="476" y="700"/>
      <point x="468" y="695"/>
      <point x="458" y="681" type="curve" smooth="yes"/>
      <point x="284" y="437" type="line"/>
      <point x="277" y="428"/>
      <point x="270" y="427"/>
      <point x="270" y="442" type="curve" smooth="yes"/>
      <point x="270" y="681" type="line" smooth="yes"/>
      <point x="270" y="693"/>
      <point x="264" y="700"/>
      <point x="253" y="700" type="curve" smooth="yes"/>
      <point x="73" y="700" type="line" smooth="yes"/>
      <point x="62" y="700"/>
      <point x="55" y="693"/>
      <point x="55" y="679" type="curve" smooth="yes"/>
      <point x="51" y="24" type="line" smooth="yes"/>
      <point x="51" y="8"/>
      <point x="57" y="0"/>
      <point x="76" y="0" type="curve" smooth="yes"/>
      <point x="239" y="0" type="line" smooth="yes"/>
      <point x="261" y="0"/>
      <point x="270" y="8"/>
      <point x="270" y="27" type="curve" smooth="yes"/>
      <point x="270" y="170" type="line" smooth="yes"/>
      <point x="270" y="179"/>
      <point x="271" y="185"/>
      <point x="276" y="191" type="curve" smooth="yes"/>
      <point x="343" y="277" type="line" smooth="yes"/>
      <point x="352" y="289"/>
      <point x="358" y="291"/>
      <point x="363" y="281" type="curve" smooth="yes"/>
      <point x="479" y="19" type="line" smooth="yes"/>
      <point x="485" y="5"/>
      <point x="497" y="0"/>
      <point x="513" y="0" type="curve" smooth="yes"/>
      <point x="697" y="0" type="line" smooth="yes"/>
      <point x="716" y="0"/>
      <point x="717" y="14"/>
      <point x="710" y="29" type="curve" smooth="yes"/>
    </contour>
  </outline>
</glyph>
<glyph name="L" format="1">
  <advance width="580"/>
  <unicode hex="004C"/>
  <outline>
    <contour>
      <point x="40" y="693"/>
      <point x="47" y="700"/>
      <point x="58" y="700" type="curve" smooth="yes"/>
      <point x="234" y="700" type="line" smooth="yes"/>
      <point x="245" y="700"/>
      <point x="251" y="693"/>
      <point x="251" y="681" type="curve" smooth="yes"/>
      <point x="251" y="165" type="line" smooth="yes"/>
      <point x="251" y="155"/>
      <point x="254" y="152"/>
      <point x="262" y="152" type="curve" smooth="yes"/>
      <point x="547" y="152" type="line" smooth="yes"/>
      <point x="560" y="152"/>
      <point x="568" y="147"/>
      <point x="568" y="134" type="curve" smooth="yes"/>
      <point x="568" y="21" type="line" smooth="yes"/>
      <point x="568" y="9"/>
      <point x="561" y="0"/>
      <point x="545" y="0" type="curve" smooth="yes"/>
      <point x="61" y="0" type="line" smooth="yes"/>
      <point x="42" y="0"/>
      <point x="36" y="8"/>
      <point x="36" y="24" type="curve" smooth="yes"/>
      <point x="40" y="679" type="line" smooth="yes"/>
    </contour>
  </outline>
</glyph>
<glyph name="M" format="1">
  <advance width="866"/>
  <unicode hex="004D"/>
  <outline>
    <contour>
      <point x="32" y="700"/>
      <point x="27" y="697"/>
      <point x="25" y="695" type="curve" smooth="yes"/>
      <point x="21" y="690"/>
      <point x="21" y="687"/>
      <point x="21" y="512" type="curve" smooth="yes"/>
      <point x="21" y="414"/>
      <point x="21" y="331"/>
      <point x="21" y="328" type="curve" smooth="yes"/>
      <point x="21" y="325"/>
      <point x="21" y="263"/>
      <point x="20" y="191" type="curve" smooth="yes"/>
      <point x="20" y="13"/>
      <point x="20" y="18"/>
      <point x="24" y="12" type="curve" smooth="yes"/>
      <point x="25" y="9"/>
      <point x="30" y="5"/>
      <point x="33" y="3" type="curve" smooth="yes"/>
      <point x="39" y="0"/>
      <point x="42" y="0"/>
      <point x="58" y="0" type="curve" smooth="yes"/>
      <point x="68" y="1"/>
      <point x="103" y="2"/>
      <point x="134" y="2" type="curve" smooth="yes"/>
      <point x="205" y="3"/>
      <point x="200" y="1"/>
      <point x="200" y="31" type="curve" smooth="yes"/>
      <point x="200" y="42"/>
      <point x="200" y="51"/>
      <point x="199" y="52" type="curve" smooth="yes"/>
      <point x="197" y="55"/>
      <point x="192" y="207"/>
      <point x="193" y="243" type="curve" smooth="yes"/>
      <point x="193" y="258"/>
      <point x="193" y="311"/>
      <point x="193" y="361" type="curve" smooth="yes"/>
      <point x="193" y="412"/>
      <point x="193" y="455"/>
      <point x="194" y="456" type="curve" smooth="yes"/>
      <point x="195" y="459"/>
      <point x="195" y="460"/>
      <point x="197" y="458" type="curve" smooth="yes"/>
      <point x="200" y="455"/>
      <point x="210" y="426"/>
      <point x="210" y="420" type="curve" smooth="yes"/>
      <point x="210" y="417"/>
      <point x="213" y="409"/>
      <point x="217" y="401" type="curve" smooth="yes"/>
      <point x="220" y="393"/>
      <point x="225" y="380"/>
      <point x="228" y="371" type="curve" smooth="yes"/>
      <point x="230" y="362"/>
      <point x="233" y="352"/>
      <point x="234" y="347" type="curve" smooth="yes"/>
      <point x="239" y="331"/>
      <point x="281" y="207"/>
      <point x="283" y="201" type="curve" smooth="yes"/>
      <point x="285" y="198"/>
      <point x="287" y="192"/>
      <point x="288" y="187" type="curve" smooth="yes"/>
      <point x="289" y="182"/>
      <point x="291" y="177"/>
      <point x="292" y="176" type="curve" smooth="yes"/>
      <point x="293" y="175"/>
      <point x="294" y="169"/>
      <point x="296" y="163" type="curve" smooth="yes"/>
      <point x="297" y="157"/>
      <point x="300" y="147"/>
      <point x="303" y="140" type="curve" smooth="yes"/>
      <point x="310" y="120"/>
      <point x="313" y="108"/>
      <point x="315" y="101" type="curve" smooth="yes"/>
      <point x="316" y="97"/>
      <point x="319" y="86"/>
      <point x="322" y="76" type="curve" smooth="yes"/>
      <point x="325" y="65"/>
      <point x="330" y="48"/>
      <point x="333" y="37" type="curve" smooth="yes"/>
      <point x="336" y="25"/>
      <point x="339" y="14"/>
      <point x="341" y="12" type="curve" smooth="yes"/>
      <point x="347" y="3"/>
      <point x="349" y="3"/>
      <point x="413" y="3" type="curve" smooth="yes"/>
      <point x="467" y="3"/>
      <point x="473" y="3"/>
      <point x="478" y="6" type="curve" smooth="yes"/>
      <point x="484" y="10"/>
      <point x="492" y="26"/>
      <point x="494" y="38" type="curve" smooth="yes"/>
      <point x="495" y="42"/>
      <point x="497" y="50"/>
      <point x="499" y="55" type="curve" smooth="yes"/>
      <point x="501" y="61"/>
      <point x="503" y="68"/>
      <point x="504" y="73" type="curve" smooth="yes"/>
      <point x="505" y="81"/>
      <point x="516" y="117"/>
      <point x="523" y="136" type="curve" smooth="yes"/>
      <point x="526" y="143"/>
      <point x="529" y="153"/>
      <point x="530" y="158" type="curve" smooth="yes"/>
      <point x="532" y="170"/>
      <point x="537" y="185"/>
      <point x="542" y="199" type="curve" smooth="yes"/>
      <point x="544" y="206"/>
      <point x="549" y="221"/>
      <point x="552" y="234" type="curve" smooth="yes"/>
      <point x="556" y="246"/>
      <point x="562" y="262"/>
      <point x="565" y="269" type="curve" smooth="yes"/>
      <point x="568" y="276"/>
      <point x="572" y="285"/>
      <point x="573" y="290" type="curve" smooth="yes"/>
      <point x="581" y="313"/>
      <point x="599" y="365"/>
      <point x="600" y="368" type="curve" smooth="yes"/>
      <point x="601" y="370"/>
      <point x="605" y="384"/>
      <point x="610" y="400" type="curve" smooth="yes"/>
      <point x="614" y="415"/>
      <point x="619" y="433"/>
      <point x="622" y="440" type="curve" smooth="yes"/>
      <point x="625" y="446"/>
      <point x="627" y="453"/>
      <point x="627" y="455" type="curve" smooth="yes"/>
      <point x="627" y="461"/>
      <point x="632" y="457"/>
      <point x="634" y="450" type="curve" smooth="yes"/>
      <point x="635" y="443"/>
      <point x="634" y="215"/>
      <point x="632" y="192" type="curve" smooth="yes"/>
      <point x="632" y="185"/>
      <point x="631" y="150"/>
      <point x="630" y="114" type="curve" smooth="yes"/>
      <point x="630" y="77"/>
      <point x="629" y="41"/>
      <point x="628" y="34" type="curve" smooth="yes"/>
      <point x="627" y="18"/>
      <point x="629" y="12"/>
      <point x="639" y="7" type="curve" smooth="yes"/>
      <point x="644" y="4"/>
      <point x="655" y="4"/>
      <point x="740" y="4" type="curve" smooth="yes"/>
      <point x="835" y="4" type="line"/>
      <point x="841" y="10" type="line"/>
      <point x="846" y="15" type="line"/>
      <point x="845" y="128" type="line" smooth="yes"/>
      <point x="843" y="288"/>
      <point x="842" y="414"/>
      <point x="844" y="425" type="curve" smooth="yes"/>
      <point x="844" y="429"/>
      <point x="844" y="454"/>
      <point x="842" y="479" type="curve" smooth="yes"/>
      <point x="841" y="507"/>
      <point x="841" y="528"/>
      <point x="842" y="533" type="curve" smooth="yes"/>
      <point x="842" y="537"/>
      <point x="843" y="574"/>
      <point x="843" y="614" type="curve" smooth="yes"/>
      <point x="843" y="693"/>
      <point x="843" y="691"/>
      <point x="832" y="697" type="curve" smooth="yes"/>
      <point x="827" y="699"/>
      <point x="814" y="700"/>
      <point x="751" y="700" type="curve" smooth="yes"/>
      <point x="709" y="699"/>
      <point x="646" y="700"/>
      <point x="611" y="700" type="curve" smooth="yes"/>
      <point x="547" y="701" type="line"/>
      <point x="542" y="696" type="line" smooth="yes"/>
      <point x="533" y="690"/>
      <point x="533" y="689"/>
      <point x="510" y="605" type="curve" smooth="yes"/>
      <point x="506" y="592"/>
      <point x="499" y="572"/>
      <point x="495" y="559" type="curve" smooth="yes"/>
      <point x="487" y="538"/>
      <point x="483" y="525"/>
      <point x="476" y="500" type="curve" smooth="yes"/>
      <point x="475" y="494"/>
      <point x="467" y="469"/>
      <point x="458" y="443" type="curve" smooth="yes"/>
      <point x="449" y="417"/>
      <point x="442" y="394"/>
      <point x="442" y="393" type="curve" smooth="yes"/>
      <point x="442" y="388"/>
      <point x="438" y="380"/>
      <point x="435" y="380" type="curve" smooth="yes"/>
      <point x="434" y="380"/>
      <point x="432" y="385"/>
      <point x="430" y="391" type="curve" smooth="yes"/>
      <point x="428" y="397"/>
      <point x="424" y="405"/>
      <point x="423" y="408" type="curve" smooth="yes"/>
      <point x="421" y="411"/>
      <point x="416" y="424"/>
      <point x="412" y="435" type="curve" smooth="yes"/>
      <point x="408" y="447"/>
      <point x="404" y="458"/>
      <point x="403" y="459" type="curve" smooth="yes"/>
      <point x="402" y="460"/>
      <point x="400" y="467"/>
      <point x="397" y="475" type="curve" smooth="yes"/>
      <point x="393" y="490"/>
      <point x="390" y="500"/>
      <point x="375" y="547" type="curve" smooth="yes"/>
      <point x="371" y="562"/>
      <point x="365" y="580"/>
      <point x="363" y="588" type="curve" smooth="yes"/>
      <point x="360" y="595"/>
      <point x="356" y="609"/>
      <point x="352" y="618" type="curve" smooth="yes"/>
      <point x="349" y="627"/>
      <point x="344" y="644"/>
      <point x="340" y="656" type="curve" smooth="yes"/>
      <point x="332" y="688"/>
      <point x="329" y="694"/>
      <point x="320" y="699" type="curve" smooth="yes"/>
      <point x="313" y="702"/>
      <point x="306" y="702"/>
      <point x="235" y="702" type="curve" smooth="yes"/>
      <point x="114" y="701"/>
      <point x="102" y="701"/>
      <point x="98" y="698" type="curve" smooth="yes"/>
      <point x="95" y="697"/>
      <point x="92" y="696"/>
      <point x="91" y="697" type="curve" smooth="yes"/>
      <point x="88" y="699"/>
      <point x="75" y="700"/>
      <point x="53" y="702" type="curve" smooth="yes"/>
      <point x="47" y="703"/>
      <point x="39" y="703"/>
      <point x="35" y="701" type="curve" smooth="yes"/>
    </contour>
  </outline>
</glyph>
<glyph name="N" format="1">
  <advance width="730"/>
  <unicode hex="004E"/>
  <outline>
    <contour>
      <point x="510" y="700"/>
      <point x="503" y="693"/>
      <point x="503" y="681" type="curve" smooth="yes"/>
      <point x="503" y="376" type="line"/>
      <point x="503" y="361"/>
      <point x="498" y="358"/>
      <point x="488" y="372" type="curve" smooth="yes"/>
      <point x="262" y="683" type="line" smooth="yes"/>
      <point x="252" y="697"/>
      <point x="246" y="700"/>
      <point x="230" y="700" type="curve" smooth="yes"/>
      <point x="76" y="700" type="line" smooth="yes"/>
      <point x="62" y="700"/>
      <point x="56" y="694"/>
      <point x="56" y="679" type="curve" smooth="yes"/>
      <point x="56" y="19" type="line" smooth="yes"/>
      <point x="56" y="5"/>
      <point x="65" y="0"/>
      <point x="79" y="0" type="curve" smooth="yes"/>
      <point x="210" y="0" type="line" smooth="yes"/>
      <point x="227" y="0"/>
      <point x="233" y="6"/>
      <point x="233" y="21" type="curve" smooth="yes"/>
      <point x="229" y="366" type="line" smooth="yes"/>
      <point x="229" y="374"/>
      <point x="233" y="375"/>
      <point x="239" y="367" type="curve" smooth="yes"/>
      <point x="498" y="17" type="line" smooth="yes"/>
      <point x="506" y="6"/>
      <point x="510" y="0"/>
      <point x="521" y="0" type="curve" smooth="yes"/>
      <point x="651" y="0" type="line" smooth="yes"/>
      <point x="664" y="0"/>
      <point x="673" y="7"/>
      <point x="673" y="17" type="curve"/>
      <point x="673" y="684" type="line" smooth="yes"/>
      <point x="673" y="695"/>
      <point x="668" y="700"/>
      <point x="659" y="700" type="curve" smooth="yes"/>
      <point x="524" y="700" type="line" smooth="yes"/>
    </contour>
  </outline>
</glyph>
<glyph name="P" format="1">
  <advance width="700"/>
  <unicode hex="0050"/>
  <outline>
    <contour>
      <point x="684" y="627"/>
      <point x="555" y="700"/>
      <point x="395" y="700" type="curve" smooth="yes"/>
      <point x="69" y="700" type="line" smooth="yes"/>
      <point x="58" y="700"/>
      <point x="51" y="693"/>
      <point x="51" y="679" type="curve" smooth="yes"/>
      <point x="47" y="24" type="line" smooth="yes"/>
      <point x="47" y="8"/>
      <point x="53" y="0"/>
      <point x="72" y="0" type="curve" smooth="yes"/>
      <point x="235" y="0" type="line" smooth="yes"/>
      <point x="257" y="0"/>
      <point x="266" y="8"/>
      <point x="266" y="27" type="curve" smooth="yes"/>
      <point x="266" y="250" type="line" smooth="yes"/>
      <point x="266" y="257"/>
      <point x="269" y="261"/>
      <point x="278" y="261" type="curve" smooth="yes"/>
      <point x="419" y="261" type="line" smooth="yes"/>
      <point x="579" y="261"/>
      <point x="684" y="343"/>
      <point x="684" y="478" type="curve" smooth="yes"/>
    </contour>
    <contour>
      <point x="266" y="530" type="line" smooth="yes"/>
      <point x="266" y="544"/>
      <point x="272" y="549"/>
      <point x="288" y="549" type="curve" smooth="yes"/>
      <point x="381" y="549" type="line" smooth="yes"/>
      <point x="425" y="549"/>
      <point x="460" y="523"/>
      <point x="460" y="479" type="curve" smooth="yes"/>
      <point x="460" y="443"/>
      <point x="432" y="412"/>
      <point x="387" y="412" type="curve" smooth="yes"/>
      <point x="282" y="412" type="line" smooth="yes"/>
      <point x="270" y="412"/>
      <point x="266" y="418"/>
      <point x="266" y="432" type="curve" smooth="yes"/>
    </contour>
  </outline>
</glyph>
<glyph name="Q" format="1">
  <advance width="730"/>
  <unicode hex="0051"/>
  <outline>
    <contour>
      <point x="27" y="130"/>
      <point x="159" y="-8"/>
      <point x="367" y="-8" type="curve" smooth="yes"/>
      <point x="392" y="-8"/>
      <point x="412" y="-7"/>
      <point x="434" y="-4" type="curve" smooth="yes"/>
      <point x="441" y="-3"/>
      <point x="446" y="-4"/>
      <point x="449" y="-8" type="curve" smooth="yes"/>
      <point x="471" y="-37"/>
      <point x="490" y="-57"/>
      <point x="518" y="-78" type="curve" smooth="yes"/>
      <point x="553" y="-104"/>
      <point x="620" y="-121"/>
      <point x="665" y="-121" type="curve" smooth="yes"/>
      <point x="695" y="-121"/>
      <point x="706" y="-115"/>
      <point x="706" y="-92" type="curve" smooth="yes"/>
      <point x="706" y="12" type="line" smooth="yes"/>
      <point x="706" y="19"/>
      <point x="703" y="26"/>
      <point x="690" y="28" type="curve" smooth="yes"/>
      <point x="649" y="34"/>
      <point x="605" y="58"/>
      <point x="605" y="74" type="curve" smooth="yes"/>
      <point x="605" y="77"/>
      <point x="605" y="79"/>
      <point x="607" y="82" type="curve"/>
      <point x="670" y="144"/>
      <point x="706" y="235"/>
      <point x="706" y="348" type="curve" smooth="yes"/>
      <point x="706" y="567"/>
      <point x="571" y="711"/>
      <point x="367" y="711" type="curve" smooth="yes"/>
      <point x="162" y="711"/>
      <point x="27" y="567"/>
      <point x="27" y="348" type="curve" smooth="yes"/>
    </contour>
    <contour>
      <point x="252" y="502"/>
      <point x="285" y="565"/>
      <point x="367" y="565" type="curve" smooth="yes"/>
      <point x="448" y="565"/>
      <point x="481" y="502"/>
      <point x="481" y="346" type="curve" smooth="yes"/>
      <point x="481" y="195"/>
      <point x="450" y="139"/>
      <point x="367" y="139" type="curve" smooth="yes"/>
      <point x="283" y="139"/>
      <point x="252" y="195"/>
      <point x="252" y="346" type="curve" smooth="yes"/>
    </contour>
  </outline>
</glyph>
<glyph name="R" format="1">
  <advance width="700"/>
  <unicode hex="0052"/>
  <outline>
    <contour>
      <point x="555" y="306" type="line" smooth="yes"/>
      <point x="552" y="314"/>
      <point x="552" y="321"/>
      <point x="559" y="324" type="curve" smooth="yes"/>
      <point x="633" y="352"/>
      <point x="685" y="418"/>
      <point x="685" y="498" type="curve" smooth="yes"/>
      <point x="685" y="627"/>
      <point x="579" y="700"/>
      <point x="395" y="700" type="curve" smooth="yes"/>
      <point x="69" y="700" type="line" smooth="yes"/>
      <point x="58" y="700"/>
      <point x="51" y="693"/>
      <point x="51" y="679" type="curve" smooth="yes"/>
      <point x="47" y="24" type="line" smooth="yes"/>
      <point x="47" y="8"/>
      <point x="53" y="0"/>
      <point x="72" y="0" type="curve" smooth="yes"/>
      <point x="235" y="0" type="line" smooth="yes"/>
      <point x="257" y="0"/>
      <point x="266" y="8"/>
      <point x="266" y="27" type="curve" smooth="yes"/>
      <point x="266" y="279" type="line" smooth="yes"/>
      <point x="266" y="282"/>
      <point x="269" y="290"/>
      <point x="278" y="290" type="curve" smooth="yes"/>
      <point x="322" y="290" type="line" smooth="yes"/>
      <point x="340" y="290"/>
      <point x="347" y="285"/>
      <point x="351" y="275" type="curve" smooth="yes"/>
      <point x="440" y="20" type="line"/>
      <point x="444" y="7"/>
      <point x="452" y="0"/>
      <point x="465" y="0" type="curve" smooth="yes"/>
      <point x="657" y="0" type="line" smooth="yes"/>
      <point x="672" y="0"/>
      <point x="681" y="14"/>
      <point x="674" y="30" type="curve" smooth="yes"/>
    </contour>
    <contour>
      <point x="282" y="430" type="line" smooth="yes"/>
      <point x="270" y="430"/>
      <point x="266" y="436"/>
      <point x="266" y="450" type="curve" smooth="yes"/>
      <point x="266" y="542" type="line" smooth="yes"/>
      <point x="266" y="556"/>
      <point x="272" y="561"/>
      <point x="288" y="561" type="curve" smooth="yes"/>
      <point x="381" y="561" type="line" smooth="yes"/>
      <point x="425" y="561"/>
      <point x="462" y="535"/>
      <point x="462" y="494" type="curve" smooth="yes"/>
      <point x="462" y="458"/>
      <point x="435" y="430"/>
      <point x="387" y="430" type="curve" smooth="yes"/>
    </contour>
  </outline>
</glyph>
<glyph name="S" format="1">
  <advance width="686"/>
  <unicode hex="0053"/>
  <outline>
    <contour>
      <point x="496" y="529"/>
      <point x="502" y="528"/>
      <point x="512" y="535" type="curve" smooth="yes"/>
      <point x="621" y="614" type="line" smooth="yes"/>
      <point x="634" y="624"/>
      <point x="627" y="635"/>
      <point x="621" y="644" type="curve" smooth="yes"/>
      <point x="575" y="709"/>
      <point x="462" y="752"/>
      <point x="343" y="752" type="curve" smooth="yes"/>
      <point x="154" y="752"/>
      <point x="35" y="645"/>
      <point x="35" y="515" type="curve" smooth="yes"/>
      <point x="35" y="410"/>
      <point x="111" y="323"/>
      <point x="231" y="293" type="curve" smooth="yes"/>
      <point x="383" y="256" type="line" smooth="yes"/>
      <point x="426" y="246"/>
      <point x="446" y="226"/>
      <point x="446" y="202" type="curve" smooth="yes"/>
      <point x="446" y="165"/>
      <point x="398" y="144"/>
      <point x="325" y="144" type="curve" smooth="yes"/>
      <point x="246" y="144"/>
      <point x="207" y="167"/>
      <point x="163" y="224" type="curve" smooth="yes"/>
      <point x="155" y="234"/>
      <point x="143" y="238"/>
      <point x="125" y="226" type="curve" smooth="yes"/>
      <point x="22" y="155" type="line" smooth="yes"/>
      <point x="8" y="144"/>
      <point x="8" y="136"/>
      <point x="16" y="122" type="curve" smooth="yes"/>
      <point x="63" y="43"/>
      <point x="196" y="-10"/>
      <point x="342" y="-10" type="curve" smooth="yes"/>
      <point x="539" y="-10"/>
      <point x="662" y="86"/>
      <point x="662" y="234" type="curve" smooth="yes"/>
      <point x="662" y="337"/>
      <point x="604" y="421"/>
      <point x="479" y="452" type="curve" smooth="yes"/>
      <point x="313" y="495" type="line" smooth="yes"/>
      <point x="263" y="507"/>
      <point x="249" y="528"/>
      <point x="249" y="546" type="curve" smooth="yes"/>
      <point x="249" y="571"/>
      <point x="276" y="597"/>
      <point x="351" y="597" type="curve" smooth="yes"/>
      <point x="429" y="597"/>
      <point x="458" y="569"/>
      <point x="482" y="543" type="curve" smooth="yes"/>
    </contour>
  </outline>
</glyph>
<glyph name="T" format="1">
  <advance width="655"/>
  <unicode hex="0054"/>
  <outline>
    <contour>
      <point x="26" y="694"/>
      <point x="23" y="691"/>
      <point x="22" y="688" type="curve" smooth="yes"/>
      <point x="20" y="684"/>
      <point x="20" y="661"/>
      <point x="20" y="618" type="curve" smooth="yes"/>
      <point x="21" y="554" type="line"/>
      <point x="26" y="549" type="line" smooth="yes"/>
      <point x="30" y="546"/>
      <point x="34" y="544"/>
      <point x="44" y="542" type="curve" smooth="yes"/>
      <point x="58" y="541"/>
      <point x="116" y="541"/>
      <point x="184" y="544" type="curve" smooth="yes"/>
      <point x="202" y="545"/>
      <point x="217" y="545"/>
      <point x="220" y="544" type="curve" smooth="yes"/>
      <point x="223" y="542"/>
      <point x="223" y="541"/>
      <point x="222" y="526" type="curve" smooth="yes"/>
      <point x="221" y="517"/>
      <point x="220" y="413"/>
      <point x="220" y="296" type="curve" smooth="yes"/>
      <point x="219" y="156"/>
      <point x="218" y="70"/>
      <point x="217" y="49" type="curve" smooth="yes"/>
      <point x="214" y="17"/>
      <point x="214" y="16"/>
      <point x="218" y="11" type="curve" smooth="yes"/>
      <point x="225" y="1"/>
      <point x="229" y="1"/>
      <point x="316" y="1" type="curve" smooth="yes"/>
      <point x="361" y="0"/>
      <point x="402" y="0"/>
      <point x="407" y="0" type="curve" smooth="yes"/>
      <point x="421" y="0"/>
      <point x="427" y="2"/>
      <point x="430" y="8" type="curve" smooth="yes"/>
      <point x="432" y="12"/>
      <point x="433" y="57"/>
      <point x="433" y="255" type="curve" smooth="yes"/>
      <point x="434" y="388"/>
      <point x="434" y="506"/>
      <point x="433" y="517" type="curve" smooth="yes"/>
      <point x="433" y="547"/>
      <point x="430" y="545"/>
      <point x="490" y="543" type="curve" smooth="yes"/>
      <point x="518" y="542"/>
      <point x="559" y="542"/>
      <point x="583" y="542" type="curve" smooth="yes"/>
      <point x="627" y="542" type="line"/>
      <point x="631" y="547" type="line" smooth="yes"/>
      <point x="635" y="552"/>
      <point x="635" y="555"/>
      <point x="635" y="616" type="curve" smooth="yes"/>
      <point x="635" y="672"/>
      <point x="634" y="681"/>
      <point x="632" y="686" type="curve" smooth="yes"/>
      <point x="630" y="690"/>
      <point x="627" y="693"/>
      <point x="625" y="694" type="curve" smooth="yes"/>
      <point x="623" y="695"/>
      <point x="519" y="696"/>
      <point x="394" y="696" type="curve" smooth="yes"/>
      <point x="269" y="696"/>
      <point x="138" y="697"/>
      <point x="102" y="697" type="curve" smooth="yes"/>
      <point x="47" y="698"/>
      <point x="35" y="698"/>
      <point x="30" y="696" type="curve" smooth="yes"/>
    </contour>
  </outline>
</glyph>
<glyph name="U" format="1">
  <advance width="700"/>
  <unicode hex="0055"/>
  <outline>
    <contour>
      <point x="658" y="681" type="line" smooth="yes"/>
      <point x="658" y="693"/>
      <point x="652" y="700"/>
      <point x="641" y="700" type="curve" smooth="yes"/>
      <point x="503" y="700" type="line" smooth="yes"/>
      <point x="492" y="700"/>
      <point x="485" y="693"/>
      <point x="485" y="679" type="curve" smooth="yes"/>
      <point x="481" y="274" type="line" smooth="yes"/>
      <point x="480" y="169"/>
      <point x="433" y="139"/>
      <point x="376" y="139" type="curve" smooth="yes"/>
      <point x="314" y="139"/>
      <point x="268" y="175"/>
      <point x="268" y="271" type="curve" smooth="yes"/>
      <point x="268" y="681" type="line" smooth="yes"/>
      <point x="268" y="693"/>
      <point x="262" y="700"/>
      <point x="251" y="700" type="curve" smooth="yes"/>
      <point x="71" y="700" type="line" smooth="yes"/>
      <point x="60" y="700"/>
      <point x="53" y="693"/>
      <point x="53" y="679" type="curve" smooth="yes"/>
      <point x="48" y="294" type="line" smooth="yes"/>
      <point x="46" y="96"/>
      <point x="130" y="-11"/>
      <point x="356" y="-11" type="curve" smooth="yes"/>
      <point x="536" y="-11"/>
      <point x="658" y="57"/>
      <point x="658" y="275" type="curve" smooth="yes"/>
    </contour>
  </outline>
</glyph>
<glyph name="V" format="1">
  <advance width="680"/>
  <unicode hex="0056"/>
  <outline>
    <contour>
      <point x="518" y="700" type="line" smooth="yes"/>
      <point x="507" y="700"/>
      <point x="498" y="693"/>
      <point x="494" y="681" type="curve" smooth="yes"/>
      <point x="363" y="258" type="line" smooth="yes"/>
      <point x="360" y="248"/>
      <point x="357" y="248"/>
      <point x="354" y="257" type="curve" smooth="yes"/>
      <point x="226" y="681" type="line" smooth="yes"/>
      <point x="222" y="693"/>
      <point x="213" y="700"/>
      <point x="202" y="700" type="curve" smooth="yes"/>
      <point x="29" y="700" type="line" smooth="yes"/>
      <point x="14" y="700"/>
      <point x="6" y="687"/>
      <point x="11" y="673" type="curve" smooth="yes"/>
      <point x="230" y="24" type="line" smooth="yes"/>
      <point x="235" y="8"/>
      <point x="246" y="0"/>
      <point x="265" y="0" type="curve" smooth="yes"/>
      <point x="418" y="0" type="line" smooth="yes"/>
      <point x="437" y="0"/>
      <point x="448" y="8"/>
      <point x="453" y="24" type="curve" smooth="yes"/>
      <point x="672" y="673" type="line" smooth="yes"/>
      <point x="677" y="687"/>
      <point x="669" y="700"/>
      <point x="654" y="700" type="curve" smooth="yes"/>
    </contour>
  </outline>
</glyph>
<glyph name="X" format="1">
  <advance width="700"/>
  <unicode hex="0058"/>
  <outline>
    <contour>
      <point x="464" y="362" type="line" smooth="yes"/>
      <point x="454" y="376"/>
      <point x="453" y="382"/>
      <point x="463" y="396" type="curve" smooth="yes"/>
      <point x="653" y="669" type="line" smooth="yes"/>
      <point x="663" y="683"/>
      <point x="664" y="700"/>
      <point x="641" y="700" type="curve" smooth="yes"/>
      <point x="497" y="700" type="line" smooth="yes"/>
      <point x="476" y="700"/>
      <point x="467" y="694"/>
      <point x="459" y="681" type="curve" smooth="yes"/>
      <point x="369" y="529" type="line" smooth="yes"/>
      <point x="363" y="518"/>
      <point x="354" y="518"/>
      <point x="348" y="529" type="curve" smooth="yes"/>
      <point x="257" y="681" type="line" smooth="yes"/>
      <point x="249" y="694"/>
      <point x="240" y="700"/>
      <point x="219" y="700" type="curve" smooth="yes"/>
      <point x="33" y="700" type="line" smooth="yes"/>
      <point x="11" y="700"/>
      <point x="5" y="681"/>
      <point x="15" y="667" type="curve" smooth="yes"/>
      <point x="222" y="368" type="line" smooth="yes"/>
      <point x="232" y="354"/>
      <point x="232" y="348"/>
      <point x="223" y="334" type="curve" smooth="yes"/>
      <point x="26" y="48" type="line" smooth="yes"/>
      <point x="0" y="11"/>
      <point x="12" y="0"/>
      <point x="39" y="0" type="curve" smooth="yes"/>
      <point x="172" y="0" type="line" smooth="yes"/>
      <point x="191" y="0"/>
      <point x="204" y="5"/>
      <point x="212" y="19" type="curve" smooth="yes"/>
      <point x="317" y="198" type="line" smooth="yes"/>
      <point x="327" y="216"/>
      <point x="333" y="215"/>
      <point x="344" y="197" type="curve" smooth="yes"/>
      <point x="451" y="19" type="line" smooth="yes"/>
      <point x="459" y="6"/>
      <point x="472" y="0"/>
      <point x="491" y="0" type="curve" smooth="yes"/>
      <point x="668" y="0" type="line" smooth="yes"/>
      <point x="695" y="0"/>
      <point x="709" y="11"/>
      <point x="683" y="48" type="curve" smooth="yes"/>
    </contour>
  </outline>
</glyph>
<glyph name="Y" format="1">
  <advance width="728"/>
  <unicode hex="0059"/>
  <outline>
    <contour>
      <point x="15" y="701"/>
      <point x="12" y="692"/>
      <point x="33" y="662" type="curve" smooth="yes"/>
      <point x="39" y="652"/>
      <point x="48" y="638"/>
      <point x="53" y="631" type="curve" smooth="yes"/>
      <point x="57" y="623"/>
      <point x="66" y="610"/>
      <point x="71" y="601" type="curve" smooth="yes"/>
      <point x="77" y="593"/>
      <point x="86" y="577"/>
      <point x="92" y="567" type="curve" smooth="yes"/>
      <point x="116" y="527"/>
      <point x="125" y="513"/>
      <point x="129" y="507" type="curve" smooth="yes"/>
      <point x="132" y="503"/>
      <point x="140" y="489"/>
      <point x="148" y="476" type="curve" smooth="yes"/>
      <point x="164" y="447"/>
      <point x="179" y="423"/>
      <point x="192" y="405" type="curve" smooth="yes"/>
      <point x="197" y="397"/>
      <point x="202" y="390"/>
      <point x="203" y="388" type="curve" smooth="yes"/>
      <point x="204" y="386"/>
      <point x="212" y="374"/>
      <point x="221" y="359" type="curve" smooth="yes"/>
      <point x="244" y="324"/>
      <point x="255" y="305"/>
      <point x="258" y="296" type="curve" smooth="yes"/>
      <point x="260" y="291"/>
      <point x="261" y="281"/>
      <point x="260" y="260" type="curve" smooth="yes"/>
      <point x="258" y="168"/>
      <point x="257" y="15"/>
      <point x="259" y="11" type="curve" smooth="yes"/>
      <point x="260" y="9"/>
      <point x="265" y="6"/>
      <point x="269" y="4" type="curve" smooth="yes"/>
      <point x="277" y="0"/>
      <point x="280" y="0"/>
      <point x="351" y="0" type="curve" smooth="yes"/>
      <point x="391" y="0"/>
      <point x="431" y="0"/>
      <point x="439" y="0" type="curve" smooth="yes"/>
      <point x="457" y="-1"/>
      <point x="465" y="2"/>
      <point x="472" y="12" type="curve" smooth="yes"/>
      <point x="477" y="18" type="line"/>
      <point x="476" y="115" type="line" smooth="yes"/>
      <point x="476" y="168"/>
      <point x="475" y="231"/>
      <point x="475" y="256" type="curve" smooth="yes"/>
      <point x="474" y="281"/>
      <point x="475" y="305"/>
      <point x="476" y="310" type="curve" smooth="yes"/>
      <point x="477" y="315"/>
      <point x="481" y="324"/>
      <point x="486" y="331" type="curve" smooth="yes"/>
      <point x="501" y="355"/>
      <point x="508" y="365"/>
      <point x="511" y="369" type="curve" smooth="yes"/>
      <point x="513" y="371"/>
      <point x="518" y="380"/>
      <point x="522" y="389" type="curve" smooth="yes"/>
      <point x="527" y="397"/>
      <point x="534" y="409"/>
      <point x="537" y="414" type="curve" smooth="yes"/>
      <point x="541" y="420"/>
      <point x="544" y="426"/>
      <point x="545" y="428" type="curve" smooth="yes"/>
      <point x="545" y="430"/>
      <point x="547" y="433"/>
      <point x="549" y="433" type="curve" smooth="yes"/>
      <point x="550" y="434"/>
      <point x="553" y="438"/>
      <point x="555" y="443" type="curve" smooth="yes"/>
      <point x="557" y="447"/>
      <point x="561" y="453"/>
      <point x="564" y="456" type="curve" smooth="yes"/>
      <point x="567" y="458"/>
      <point x="569" y="461"/>
      <point x="569" y="463" type="curve" smooth="yes"/>
      <point x="569" y="464"/>
      <point x="572" y="470"/>
      <point x="576" y="475" type="curve" smooth="yes"/>
      <point x="579" y="480"/>
      <point x="584" y="489"/>
      <point x="587" y="493" type="curve" smooth="yes"/>
      <point x="595" y="506"/>
      <point x="612" y="533"/>
      <point x="615" y="537" type="curve" smooth="yes"/>
      <point x="617" y="539"/>
      <point x="620" y="544"/>
      <point x="622" y="549" type="curve" smooth="yes"/>
      <point x="625" y="553"/>
      <point x="629" y="560"/>
      <point x="632" y="564" type="curve" smooth="yes"/>
      <point x="635" y="569"/>
      <point x="642" y="580"/>
      <point x="648" y="590" type="curve" smooth="yes"/>
      <point x="654" y="599"/>
      <point x="663" y="613"/>
      <point x="668" y="620" type="curve" smooth="yes"/>
      <point x="673" y="627"/>
      <point x="676" y="633"/>
      <point x="676" y="634" type="curve" smooth="yes"/>
      <point x="676" y="634"/>
      <point x="680" y="641"/>
      <point x="685" y="648" type="curve" smooth="yes"/>
      <point x="690" y="656"/>
      <point x="696" y="666"/>
      <point x="697" y="671" type="curve" smooth="yes"/>
      <point x="699" y="675"/>
      <point x="702" y="681"/>
      <point x="704" y="684" type="curve" smooth="yes"/>
      <point x="709" y="690"/>
      <point x="709" y="695"/>
      <point x="702" y="700" type="curve" smooth="yes"/>
      <point x="697" y="704"/>
      <point x="696" y="704"/>
      <point x="644" y="703" type="curve" smooth="yes"/>
      <point x="615" y="703"/>
      <point x="578" y="703"/>
      <point x="561" y="703" type="curve" smooth="yes"/>
      <point x="529" y="704"/>
      <point x="524" y="703"/>
      <point x="516" y="695" type="curve" smooth="yes"/>
      <point x="515" y="693"/>
      <point x="505" y="677"/>
      <point x="496" y="660" type="curve" smooth="yes"/>
      <point x="487" y="643"/>
      <point x="478" y="626"/>
      <point x="476" y="624" type="curve" smooth="yes"/>
      <point x="474" y="621"/>
      <point x="470" y="613"/>
      <point x="466" y="606" type="curve" smooth="yes"/>
      <point x="462" y="599"/>
      <point x="457" y="590"/>
      <point x="453" y="585" type="curve" smooth="yes"/>
      <point x="445" y="572"/>
      <point x="403" y="493"/>
      <point x="395" y="473" type="curve" smooth="yes"/>
      <point x="392" y="465"/>
      <point x="386" y="463"/>
      <point x="383" y="468" type="curve" smooth="yes"/>
      <point x="380" y="471"/>
      <point x="373" y="485"/>
      <point x="356" y="520" type="curve" smooth="yes"/>
      <point x="349" y="535"/>
      <point x="338" y="555"/>
      <point x="331" y="566" type="curve" smooth="yes"/>
      <point x="325" y="577"/>
      <point x="319" y="588"/>
      <point x="317" y="591" type="curve" smooth="yes"/>
      <point x="316" y="593"/>
      <point x="312" y="600"/>
      <point x="308" y="606" type="curve" smooth="yes"/>
      <point x="294" y="629"/>
      <point x="288" y="641"/>
      <point x="277" y="660" type="curve" smooth="yes"/>
      <point x="264" y="685"/>
      <point x="256" y="695"/>
      <point x="251" y="698" type="curve" smooth="yes"/>
      <point x="248" y="700"/>
      <point x="226" y="701"/>
      <point x="173" y="701" type="curve" smooth="yes"/>
      <point x="133" y="701"/>
      <point x="92" y="702"/>
      <point x="82" y="704" type="curve" smooth="yes"/>
      <point x="72" y="705"/>
      <point x="63" y="705"/>
      <point x="62" y="705" type="curve" smooth="yes"/>
      <point x="62" y="705"/>
      <point x="55" y="704"/>
      <point x="47" y="704" type="curve" smooth="yes"/>
    </contour>
  </outline>
</glyph>
<glyph name="Z" format="1">
  <advance width="660"/>
  <unicode hex="005A"/>
  <outline>
    <contour>
      <point x="50" y="694"/>
      <point x="50" y="693"/>
      <point x="50" y="620" type="curve" smooth="yes"/>
      <point x="50" y="584"/>
      <point x="51" y="554"/>
      <point x="52" y="552" type="curve" smooth="yes"/>
      <point x="56" y="543"/>
      <point x="63" y="542"/>
      <point x="111" y="543" type="curve" smooth="yes"/>
      <point x="137" y="543"/>
      <point x="159" y="543"/>
      <point x="160" y="542" type="curve" smooth="yes"/>
      <point x="161" y="541"/>
      <point x="165" y="542"/>
      <point x="169" y="543" type="curve" smooth="yes"/>
      <point x="173" y="545"/>
      <point x="180" y="545"/>
      <point x="192" y="544" type="curve" smooth="yes"/>
      <point x="201" y="544"/>
      <point x="212" y="543"/>
      <point x="216" y="544" type="curve" smooth="yes"/>
      <point x="236" y="545"/>
      <point x="325" y="546"/>
      <point x="329" y="544" type="curve" smooth="yes"/>
      <point x="338" y="541"/>
      <point x="337" y="537"/>
      <point x="325" y="521" type="curve" smooth="yes"/>
      <point x="298" y="481"/>
      <point x="292" y="473"/>
      <point x="286" y="465" type="curve" smooth="yes"/>
      <point x="270" y="444"/>
      <point x="260" y="430"/>
      <point x="257" y="424" type="curve" smooth="yes"/>
      <point x="255" y="420"/>
      <point x="249" y="411"/>
      <point x="244" y="405" type="curve" smooth="yes"/>
      <point x="239" y="398"/>
      <point x="234" y="392"/>
      <point x="234" y="391" type="curve" smooth="yes"/>
      <point x="234" y="390"/>
      <point x="230" y="384"/>
      <point x="225" y="378" type="curve" smooth="yes"/>
      <point x="219" y="371"/>
      <point x="213" y="362"/>
      <point x="210" y="357" type="curve" smooth="yes"/>
      <point x="207" y="352"/>
      <point x="202" y="345"/>
      <point x="198" y="341" type="curve" smooth="yes"/>
      <point x="195" y="337"/>
      <point x="190" y="331"/>
      <point x="188" y="326" type="curve" smooth="yes"/>
      <point x="186" y="322"/>
      <point x="180" y="314"/>
      <point x="176" y="309" type="curve" smooth="yes"/>
      <point x="171" y="303"/>
      <point x="165" y="295"/>
      <point x="162" y="290" type="curve" smooth="yes"/>
      <point x="160" y="285"/>
      <point x="155" y="277"/>
      <point x="152" y="274" type="curve" smooth="yes"/>
      <point x="149" y="271"/>
      <point x="144" y="264"/>
      <point x="142" y="258" type="curve" smooth="yes"/>
      <point x="133" y="244"/>
      <point x="121" y="226"/>
      <point x="115" y="219" type="curve" smooth="yes"/>
      <point x="109" y="212"/>
      <point x="98" y="197"/>
      <point x="93" y="190" type="curve" smooth="yes"/>
      <point x="76" y="163"/>
      <point x="66" y="148"/>
      <point x="62" y="143" type="curve" smooth="yes"/>
      <point x="59" y="139"/>
      <point x="54" y="134"/>
      <point x="52" y="131" type="curve" smooth="yes"/>
      <point x="48" y="124"/>
      <point x="34" y="105"/>
      <point x="25" y="93" type="curve" smooth="yes"/>
      <point x="20" y="86" type="line"/>
      <point x="21" y="50" type="line" smooth="yes"/>
      <point x="21" y="29"/>
      <point x="22" y="13"/>
      <point x="24" y="10" type="curve" smooth="yes"/>
      <point x="29" y="0"/>
      <point x="32" y="0"/>
      <point x="83" y="0" type="curve" smooth="yes"/>
      <point x="131" y="1"/>
      <point x="183" y="1"/>
      <point x="460" y="0" type="curve" smooth="yes"/>
      <point x="608" y="0"/>
      <point x="621" y="0"/>
      <point x="625" y="3" type="curve" smooth="yes"/>
      <point x="636" y="10"/>
      <point x="637" y="13"/>
      <point x="635" y="79" type="curve" smooth="yes"/>
      <point x="635" y="113"/>
      <point x="634" y="143"/>
      <point x="633" y="147" type="curve" smooth="yes"/>
      <point x="632" y="156"/>
      <point x="626" y="161"/>
      <point x="615" y="161" type="curve" smooth="yes"/>
      <point x="611" y="161"/>
      <point x="566" y="160"/>
      <point x="515" y="160" type="curve" smooth="yes"/>
      <point x="464" y="159"/>
      <point x="401" y="158"/>
      <point x="374" y="158" type="curve" smooth="yes"/>
      <point x="326" y="157" type="line"/>
      <point x="325" y="161" type="line" smooth="yes"/>
      <point x="324" y="165"/>
      <point x="325" y="168"/>
      <point x="328" y="171" type="curve" smooth="yes"/>
      <point x="330" y="174"/>
      <point x="338" y="185"/>
      <point x="344" y="196" type="curve" smooth="yes"/>
      <point x="360" y="221"/>
      <point x="376" y="244"/>
      <point x="381" y="249" type="curve" smooth="yes"/>
      <point x="384" y="253"/>
      <point x="409" y="289"/>
      <point x="417" y="302" type="curve" smooth="yes"/>
      <point x="419" y="305"/>
      <point x="425" y="313"/>
      <point x="430" y="320" type="curve" smooth="yes"/>
      <point x="450" y="344"/>
      <point x="450" y="344"/>
      <point x="485" y="397" type="curve" smooth="yes"/>
      <point x="493" y="409"/>
      <point x="506" y="427"/>
      <point x="513" y="438" type="curve" smooth="yes"/>
      <point x="521" y="449"/>
      <point x="529" y="460"/>
      <point x="531" y="464" type="curve" smooth="yes"/>
      <point x="533" y="467"/>
      <point x="541" y="479"/>
      <point x="549" y="490" type="curve" smooth="yes"/>
      <point x="557" y="501"/>
      <point x="566" y="513"/>
      <point x="568" y="516" type="curve" smooth="yes"/>
      <point x="578" y="531"/>
      <point x="598" y="558"/>
      <point x="603" y="564" type="curve" smooth="yes"/>
      <point x="606" y="568"/>
      <point x="610" y="574"/>
      <point x="611" y="576" type="curve" smooth="yes"/>
      <point x="612" y="579"/>
      <point x="616" y="584"/>
      <point x="620" y="589" type="curve" smooth="yes"/>
      <point x="633" y="605"/>
      <point x="637" y="616"/>
      <point x="639" y="645" type="curve" smooth="yes"/>
      <point x="642" y="699"/>
      <point x="637" y="704"/>
      <point x="593" y="701" type="curve" smooth="yes"/>
      <point x="579" y="701"/>
      <point x="567" y="700"/>
      <point x="564" y="700" type="curve" smooth="yes"/>
      <point x="561" y="700"/>
      <point x="541" y="700"/>
      <point x="518" y="700" type="curve" smooth="yes"/>
      <point x="496" y="700"/>
      <point x="474" y="700"/>
      <point x="470" y="700" type="curve" smooth="yes"/>
      <point x="467" y="700"/>
      <point x="459" y="700"/>
      <point x="453" y="700" type="curve" smooth="yes"/>
      <point x="447" y="700"/>
      <point x="441" y="700"/>
      <point x="439" y="700" type="curve" smooth="yes"/>
      <point x="438" y="700"/>
      <point x="430" y="700"/>
      <point x="422" y="700" type="curve" smooth="yes"/>
      <point x="414" y="700"/>
      <point x="398" y="700"/>
      <point x="386" y="700" type="curve" smooth="yes"/>
      <point x="374" y="700"/>
      <point x="355" y="700"/>
      <point x="343" y="700" type="curve" smooth="yes"/>
      <point x="331" y="700"/>
      <point x="316" y="700"/>
      <point x="310" y="700" type="curve" smooth="yes"/>
      <point x="254" y="700"/>
      <point x="233" y="700"/>
      <point x="225" y="698" type="curve" smooth="yes"/>
      <point x="218" y="697"/>
      <point x="212" y="697"/>
      <point x="205" y="698" type="curve" smooth="yes"/>
      <point x="193" y="701"/>
      <point x="184" y="701"/>
      <point x="148" y="699" type="curve" smooth="yes"/>
      <point x="114" y="698"/>
      <point x="103" y="698"/>
      <point x="97" y="701" type="curve" smooth="yes"/>
      <point x="90" y="703"/>
      <point x="73" y="703"/>
      <point x="63" y="699" type="curve" smooth="yes"/>
    </contour>
  </outline>
</glyph>
<glyph name="a" format="1">
  <advance width="560"/>
  <unicode hex="0061"/>
  <outline>
    <contour>
      <point x="341" y="46"/>
      <point x="344" y="47"/>
      <point x="348" y="25" type="curve" smooth="yes"/>
      <point x="350" y="11"/>
      <point x="353" y="0"/>
      <point x="375" y="0" type="curve" smooth="yes"/>
      <point x="492" y="0" type="line" smooth="yes"/>
      <point x="524" y="0"/>
      <point x="552" y="5"/>
      <point x="544" y="29" type="curve" smooth="yes"/>
      <point x="537" y="51"/>
      <point x="533" y="68"/>
      <point x="533" y="97" type="curve" smooth="yes"/>
      <point x="533" y="375" type="line" smooth="yes"/>
      <point x="533" y="478"/>
      <point x="478" y="538"/>
      <point x="289" y="540" type="curve" smooth="yes"/>
      <point x="136" y="540"/>
      <point x="79" y="499"/>
      <point x="41" y="421" type="curve" smooth="yes"/>
      <point x="36" y="410"/>
      <point x="39" y="391"/>
      <point x="48" y="389" type="curve" smooth="yes"/>
      <point x="179" y="363" type="line" smooth="yes"/>
      <point x="197" y="360"/>
      <point x="201" y="361"/>
      <point x="206" y="374" type="curve" smooth="yes"/>
      <point x="223" y="411"/>
      <point x="256" y="421"/>
      <point x="284" y="421" type="curve" smooth="yes"/>
      <point x="324" y="421"/>
      <point x="343" y="400"/>
      <point x="343" y="363" type="curve" smooth="yes"/>
      <point x="343" y="346" type="line" smooth="yes"/>
      <point x="343" y="334"/>
      <point x="333" y="332"/>
      <point x="325" y="332" type="curve" smooth="yes"/>
      <point x="118" y="325"/>
      <point x="14" y="254"/>
      <point x="14" y="143" type="curve" smooth="yes"/>
      <point x="14" y="52"/>
      <point x="74" y="-10"/>
      <point x="187" y="-10" type="curve" smooth="yes"/>
      <point x="240" y="-10"/>
      <point x="270" y="4"/>
      <point x="318" y="32" type="curve" smooth="yes"/>
    </contour>
    <contour>
      <point x="343" y="160" type="line" smooth="yes"/>
      <point x="343" y="143"/>
      <point x="337" y="135"/>
      <point x="327" y="127" type="curve" smooth="yes"/>
      <point x="313" y="117"/>
      <point x="291" y="108"/>
      <point x="268" y="108" type="curve" smooth="yes"/>
      <point x="229" y="108"/>
      <point x="208" y="127"/>
      <point x="208" y="156" type="curve" smooth="yes"/>
      <point x="208" y="212"/>
      <point x="293" y="234"/>
      <point x="325" y="234" type="curve" smooth="yes"/>
      <point x="337" y="234"/>
      <point x="343" y="228"/>
      <point x="343" y="216" type="curve" smooth="yes"/>
    </contour>
    <contour>
      <point x="512" y="10" type="move" name="ogonek"/>
    </contour>
    <contour>
      <point x="288" y="530" type="move" name="top"/>
    </contour>
  </outline>
</glyph>
<glyph name="b" format="1">
  <advance width="580"/>
  <unicode hex="0062"/>
  <outline>
    <contour>
      <point x="155" y="0"/>
      <point x="162" y="7"/>
      <point x="167" y="22" type="curve" smooth="yes"/>
      <point x="182" y="66" type="line" smooth="yes"/>
      <point x="185" y="74"/>
      <point x="189" y="75"/>
      <point x="194" y="69" type="curve" smooth="yes"/>
      <point x="231" y="25"/>
      <point x="282" y="-3"/>
      <point x="342" y="-3" type="curve" smooth="yes"/>
      <point x="480" y="-3"/>
      <point x="555" y="97"/>
      <point x="555" y="254" type="curve" smooth="yes"/>
      <point x="555" y="409"/>
      <point x="484" y="505"/>
      <point x="362" y="505" type="curve" smooth="yes"/>
      <point x="319" y="505"/>
      <point x="280" y="494"/>
      <point x="242" y="461" type="curve" smooth="yes"/>
      <point x="232" y="453"/>
      <point x="224" y="453"/>
      <point x="224" y="468" type="curve" smooth="yes"/>
      <point x="224" y="681" type="line" smooth="yes"/>
      <point x="224" y="693"/>
      <point x="218" y="700"/>
      <point x="207" y="700" type="curve" smooth="yes"/>
      <point x="56" y="700" type="line" smooth="yes"/>
      <point x="45" y="700"/>
      <point x="38" y="693"/>
      <point x="38" y="679" type="curve" smooth="yes"/>
      <point x="34" y="24" type="line" smooth="yes"/>
      <point x="34" y="8"/>
      <point x="40" y="0"/>
      <point x="59" y="0" type="curve" smooth="yes"/>
      <point x="143" y="0" type="line" smooth="yes"/>
    </contour>
    <contour>
      <point x="244" y="380"/>
      <point x="264" y="395"/>
      <point x="294" y="395" type="curve" smooth="yes"/>
      <point x="340" y="395"/>
      <point x="364" y="360"/>
      <point x="364" y="250" type="curve" smooth="yes"/>
      <point x="364" y="140"/>
      <point x="340" y="101"/>
      <point x="291" y="101" type="curve" smooth="yes"/>
      <point x="251" y="101"/>
      <point x="225" y="127"/>
      <point x="225" y="175" type="curve" smooth="yes"/>
      <point x="225" y="357" type="line"/>
    </contour>
  </outline>
</glyph>
<glyph name="c" format="1">
  <advance width="540"/>
  <unicode hex="0063"/>
  <outline>
    <contour>
      <point x="424" y="507"/>
      <point x="498" y="421"/>
      <point x="514" y="349" type="curve" smooth="yes"/>
      <point x="518" y="333"/>
      <point x="513" y="326"/>
      <point x="497" y="325" type="curve" smooth="yes"/>
      <point x="367" y="318" type="line" smooth="yes"/>
      <point x="357" y="317"/>
      <point x="353" y="321"/>
      <point x="351" y="331" type="curve" smooth="yes"/>
      <point x="347" y="355"/>
      <point x="339" y="391"/>
      <point x="294" y="391" type="curve" smooth="yes"/>
      <point x="246" y="391"/>
      <point x="216" y="351"/>
      <point x="216" y="250" type="curve" smooth="yes"/>
      <point x="216" y="145"/>
      <point x="249" y="108"/>
      <point x="304" y="108" type="curve" smooth="yes"/>
      <point x="356" y="108"/>
      <point x="374" y="140"/>
      <point x="397" y="182" type="curve" smooth="yes"/>
      <point x="400" y="187"/>
      <point x="404" y="189"/>
      <point x="416" y="187" type="curve" smooth="yes"/>
      <point x="505" y="170" type="line" smooth="yes"/>
      <point x="515" y="168"/>
      <point x="517" y="162"/>
      <point x="514" y="148" type="curve" smooth="yes"/>
      <point x="504" y="100"/>
      <point x="442" y="-8"/>
      <point x="289" y="-8" type="curve" smooth="yes"/>
      <point x="138" y="-8"/>
      <point x="27" y="96"/>
      <point x="27" y="248" type="curve" smooth="yes"/>
      <point x="27" y="402"/>
      <point x="140" y="507"/>
      <point x="289" y="507" type="curve" smooth="yes"/>
    </contour>
  </outline>
</glyph>
<glyph name="e" format="1">
  <advance width="560"/>
  <unicode hex="0065"/>
  <outline>
    <contour>
      <point x="217" y="211"/>
      <point x="222" y="216"/>
      <point x="231" y="216" type="curve" smooth="yes"/>
      <point x="525" y="216" type="line" smooth="yes"/>
      <point x="541" y="217"/>
      <point x="542" y="224"/>
      <point x="542" y="240" type="curve" smooth="yes"/>
      <point x="542" y="409"/>
      <point x="433" y="507"/>
      <point x="285" y="507" type="curve" smooth="yes"/>
      <point x="145" y="507"/>
      <point x="23" y="400"/>
      <point x="23" y="242" type="curve" smooth="yes"/>
      <point x="23" y="94"/>
      <point x="138" y="-8"/>
      <point x="289" y="-8" type="curve" smooth="yes"/>
      <point x="395" y="-8"/>
      <point x="459" y="18"/>
      <point x="527" y="111" type="curve" smooth="yes"/>
      <point x="535" y="122"/>
      <point x="532" y="130"/>
      <point x="523" y="134" type="curve" smooth="yes"/>
      <point x="437" y="169" type="line" smooth="yes"/>
      <point x="425" y="174"/>
      <point x="422" y="173"/>
      <point x="417" y="168" type="curve" smooth="yes"/>
      <point x="376" y="127"/>
      <point x="346" y="115"/>
      <point x="314" y="115" type="curve" smooth="yes"/>
      <point x="260" y="115"/>
      <point x="217" y="143"/>
      <point x="217" y="200" type="curve" smooth="yes"/>
    </contour>
    <contour>
      <point x="219" y="373"/>
      <point x="255" y="399"/>
      <point x="294" y="399" type="curve" smooth="yes"/>
      <point x="341" y="399"/>
      <point x="359" y="351"/>
      <point x="359" y="327" type="curve" smooth="yes"/>
      <point x="359" y="315"/>
      <point x="355" y="313"/>
      <point x="343" y="313" type="curve" smooth="yes"/>
      <point x="220" y="314" type="line"/>
    </contour>
  </outline>
</glyph>
<glyph name="g" format="1">
  <advance width="645"/>
  <unicode hex="0067"/>
  <outline>
    <contour>
      <point x="204" y="500"/>
      <point x="187" y="495"/>
      <point x="152" y="482" type="curve" smooth="yes"/>
      <point x="123" y="470"/>
      <point x="85" y="438"/>
      <point x="72" y="414" type="curve" smooth="yes"/>
      <point x="61" y="395"/>
      <point x="54" y="364"/>
      <point x="56" y="345" type="curve" smooth="yes"/>
      <point x="59" y="314"/>
      <point x="69" y="292"/>
      <point x="94" y="269" type="curve" smooth="yes"/>
      <point x="113" y="250"/>
      <point x="131" y="237"/>
      <point x="146" y="232" type="curve" smooth="yes"/>
      <point x="161" y="227"/>
      <point x="160" y="223"/>
      <point x="137" y="212" type="curve" smooth="yes"/>
      <point x="94" y="191"/>
      <point x="63" y="164"/>
      <point x="57" y="144" type="curve" smooth="yes"/>
      <point x="53" y="132"/>
      <point x="49" y="108"/>
      <point x="49" y="101" type="curve" smooth="yes"/>
      <point x="49" y="98"/>
      <point x="51" y="91"/>
      <point x="54" y="86" type="curve" smooth="yes"/>
      <point x="64" y="68"/>
      <point x="71" y="60"/>
      <point x="84" y="53" type="curve" smooth="yes"/>
      <point x="91" y="49"/>
      <point x="98" y="45"/>
      <point x="100" y="44" type="curve" smooth="yes"/>
      <point x="101" y="43"/>
      <point x="105" y="41"/>
      <point x="108" y="40" type="curve" smooth="yes"/>
      <point x="119" y="36"/>
      <point x="113" y="30"/>
      <point x="98" y="27" type="curve" smooth="yes"/>
      <point x="93" y="26"/>
      <point x="87" y="24"/>
      <point x="84" y="21" type="curve" smooth="yes"/>
      <point x="81" y="19"/>
      <point x="76" y="17"/>
      <point x="74" y="17" type="curve" smooth="yes"/>
      <point x="71" y="17"/>
      <point x="66" y="14"/>
      <point x="62" y="11" type="curve" smooth="yes"/>
      <point x="58" y="8"/>
      <point x="53" y="5"/>
      <point x="52" y="5" type="curve" smooth="yes"/>
      <point x="51" y="5"/>
      <point x="46" y="1"/>
      <point x="40" y="-5" type="curve" smooth="yes"/>
      <point x="30" y="-15"/>
      <point x="22" y="-32"/>
      <point x="20" y="-46" type="curve" smooth="yes"/>
      <point x="18" y="-63"/>
      <point x="30" y="-87"/>
      <point x="47" y="-99" type="curve" smooth="yes"/>
      <point x="56" y="-106"/>
      <point x="94" y="-126"/>
      <point x="99" y="-126" type="curve" smooth="yes"/>
      <point x="100" y="-126"/>
      <point x="106" y="-128"/>
      <point x="113" y="-130" type="curve" smooth="yes"/>
      <point x="134" y="-139"/>
      <point x="177" y="-144"/>
      <point x="238" y="-146" type="curve" smooth="yes"/>
      <point x="324" y="-149"/>
      <point x="396" y="-147"/>
      <point x="424" y="-140" type="curve" smooth="yes"/>
      <point x="431" y="-139"/>
      <point x="439" y="-137"/>
      <point x="443" y="-137" type="curve" smooth="yes"/>
      <point x="449" y="-137"/>
      <point x="455" y="-136"/>
      <point x="491" y="-122" type="curve" smooth="yes"/>
      <point x="521" y="-111"/>
      <point x="534" y="-102"/>
      <point x="556" y="-80" type="curve" smooth="yes"/>
      <point x="562" y="-74"/>
      <point x="576" y="-57"/>
      <point x="576" y="-55" type="curve" smooth="yes"/>
      <point x="576" y="-54"/>
      <point x="580" y="-45"/>
      <point x="585" y="-35" type="curve" smooth="yes"/>
      <point x="592" y="-18"/>
      <point x="594" y="-13"/>
      <point x="595" y="-1" type="curve" smooth="yes"/>
      <point x="596" y="28"/>
      <point x="588" y="59"/>
      <point x="573" y="79" type="curve" smooth="yes"/>
      <point x="559" y="97"/>
      <point x="546" y="110"/>
      <point x="539" y="111" type="curve" smooth="yes"/>
      <point x="536" y="112"/>
      <point x="532" y="115"/>
      <point x="529" y="117" type="curve" smooth="yes"/>
      <point x="523" y="123"/>
      <point x="494" y="138"/>
      <point x="488" y="138" type="curve" smooth="yes"/>
      <point x="485" y="138"/>
      <point x="477" y="139"/>
      <point x="469" y="141" type="curve" smooth="yes"/>
      <point x="435" y="148"/>
      <point x="407" y="151"/>
      <point x="354" y="152" type="curve" smooth="yes"/>
      <point x="343" y="153"/>
      <point x="325" y="153"/>
      <point x="313" y="154" type="curve" smooth="yes"/>
      <point x="301" y="155"/>
      <point x="288" y="156"/>
      <point x="283" y="156" type="curve" smooth="yes"/>
      <point x="241" y="159"/>
      <point x="231" y="160"/>
      <point x="221" y="164" type="curve" smooth="yes"/>
      <point x="212" y="168"/>
      <point x="211" y="170"/>
      <point x="210" y="175" type="curve" smooth="yes"/>
      <point x="208" y="183"/>
      <point x="212" y="190"/>
      <point x="220" y="196" type="curve" smooth="yes"/>
      <point x="227" y="200"/>
      <point x="250" y="204"/>
      <point x="267" y="203" type="curve" smooth="yes"/>
      <point x="288" y="203"/>
      <point x="348" y="204"/>
      <point x="361" y="205" type="curve" smooth="yes"/>
      <point x="367" y="205"/>
      <point x="378" y="208"/>
      <point x="386" y="210" type="curve" smooth="yes"/>
      <point x="394" y="212"/>
      <point x="405" y="215"/>
      <point x="410" y="216" type="curve" smooth="yes"/>
      <point x="415" y="217"/>
      <point x="426" y="221"/>
      <point x="434" y="225" type="curve" smooth="yes"/>
      <point x="443" y="230"/>
      <point x="452" y="233"/>
      <point x="453" y="233" type="curve" smooth="yes"/>
      <point x="455" y="233"/>
      <point x="458" y="235"/>
      <point x="461" y="237" type="curve" smooth="yes"/>
      <point x="463" y="239"/>
      <point x="469" y="242"/>
      <point x="473" y="244" type="curve" smooth="yes"/>
      <point x="485" y="250"/>
      <point x="511" y="277"/>
      <point x="519" y="291" type="curve" smooth="yes"/>
      <point x="528" y="309"/>
      <point x="535" y="328"/>
      <point x="537" y="344" type="curve" smooth="yes"/>
      <point x="538" y="357"/>
      <point x="538" y="362"/>
      <point x="533" y="384" type="curve" smooth="yes"/>
      <point x="529" y="405"/>
      <point x="529" y="409"/>
      <point x="531" y="412" type="curve" smooth="yes"/>
      <point x="537" y="420"/>
      <point x="555" y="421"/>
      <point x="572" y="415" type="curve" smooth="yes"/>
      <point x="582" y="411"/>
      <point x="589" y="406"/>
      <point x="602" y="393" type="curve" smooth="yes"/>
      <point x="604" y="391"/>
      <point x="608" y="389"/>
      <point x="611" y="389" type="curve" smooth="yes"/>
      <point x="620" y="389"/>
      <point x="623" y="395"/>
      <point x="624" y="414" type="curve" smooth="yes"/>
      <point x="626" y="432"/>
      <point x="624" y="492"/>
      <point x="622" y="497" type="curve" smooth="yes"/>
      <point x="618" y="505"/>
      <point x="594" y="509"/>
      <point x="573" y="506" type="curve" smooth="yes"/>
      <point x="559" y="504"/>
      <point x="536" y="495"/>
      <point x="534" y="491" type="curve" smooth="yes"/>
      <point x="533" y="490"/>
      <point x="531" y="489"/>
      <point x="528" y="489" type="curve" smooth="yes"/>
      <point x="523" y="489"/>
      <point x="500" y="473"/>
      <point x="492" y="464" type="curve" smooth="yes"/>
      <point x="483" y="455"/>
      <point x="478" y="456"/>
      <point x="461" y="467" type="curve" smooth="yes"/>
      <point x="442" y="482"/>
      <point x="426" y="488"/>
      <point x="381" y="499" type="curve" smooth="yes"/>
      <point x="350" y="507"/>
      <point x="285" y="510"/>
      <point x="249" y="505" type="curve" smooth="yes"/>
    </contour>
    <contour>
      <point x="342" y="413"/>
      <point x="356" y="401"/>
      <point x="364" y="385" type="curve" smooth="yes"/>
      <point x="370" y="372"/>
      <point x="371" y="370"/>
      <point x="371" y="355" type="curve" smooth="yes"/>
      <point x="371" y="337"/>
      <point x="368" y="328"/>
      <point x="358" y="313" type="curve" smooth="yes"/>
      <point x="354" y="305"/>
      <point x="350" y="301"/>
      <point x="346" y="300" type="curve" smooth="yes"/>
      <point x="343" y="299"/>
      <point x="335" y="296"/>
      <point x="329" y="293" type="curve" smooth="yes"/>
      <point x="318" y="287"/>
      <point x="316" y="287"/>
      <point x="296" y="287" type="curve" smooth="yes"/>
      <point x="273" y="287"/>
      <point x="270" y="288"/>
      <point x="252" y="301" type="curve" smooth="yes"/>
      <point x="239" y="310"/>
      <point x="225" y="329"/>
      <point x="223" y="342" type="curve" smooth="yes"/>
      <point x="221" y="355"/>
      <point x="224" y="374"/>
      <point x="228" y="384" type="curve" smooth="yes"/>
      <point x="236" y="400"/>
      <point x="251" y="412"/>
      <point x="277" y="421" type="curve" smooth="yes"/>
      <point x="290" y="425"/>
      <point x="310" y="424"/>
      <point x="325" y="419" type="curve" smooth="yes"/>
    </contour>
    <contour>
      <point x="291" y="11"/>
      <point x="312" y="10"/>
      <point x="329" y="10" type="curve" smooth="yes"/>
      <point x="356" y="9"/>
      <point x="383" y="8"/>
      <point x="383" y="7" type="curve" smooth="yes"/>
      <point x="383" y="7"/>
      <point x="387" y="6"/>
      <point x="392" y="6" type="curve" smooth="yes"/>
      <point x="404" y="5"/>
      <point x="411" y="2"/>
      <point x="422" y="-5" type="curve" smooth="yes"/>
      <point x="441" y="-19"/>
      <point x="439" y="-35"/>
      <point x="415" y="-46" type="curve" smooth="yes"/>
      <point x="404" y="-51"/>
      <point x="397" y="-53"/>
      <point x="374" y="-54" type="curve" smooth="yes"/>
      <point x="366" y="-55"/>
      <point x="354" y="-57"/>
      <point x="346" y="-58" type="curve" smooth="yes"/>
      <point x="336" y="-60"/>
      <point x="325" y="-60"/>
      <point x="301" y="-59" type="curve" smooth="yes"/>
      <point x="263" y="-57"/>
      <point x="223" y="-53"/>
      <point x="220" y="-50" type="curve" smooth="yes"/>
      <point x="219" y="-49"/>
      <point x="214" y="-48"/>
      <point x="210" y="-48" type="curve" smooth="yes"/>
      <point x="203" y="-48"/>
      <point x="186" y="-43"/>
      <point x="180" y="-40" type="curve" smooth="yes"/>
      <point x="172" y="-36"/>
      <point x="166" y="-21"/>
      <point x="168" y="-11" type="curve" smooth="yes"/>
      <point x="171" y="-2"/>
      <point x="190" y="10"/>
      <point x="205" y="13" type="curve" smooth="yes"/>
      <point x="215" y="14"/>
      <point x="246" y="14"/>
      <point x="283" y="12" type="curve" smooth="yes"/>
    </contour>
    <contour>
      <point x="565" y="-14"/>
      <point x="563" y="-14"/>
      <point x="562" y="-14" type="curve" smooth="yes"/>
      <point x="560" y="-13"/>
      <point x="561" y="-11"/>
      <point x="563" y="-8" type="curve" smooth="yes"/>
      <point x="566" y="-5"/>
      <point x="567" y="-5"/>
      <point x="567" y="-8" type="curve" smooth="yes"/>
      <point x="568" y="-9"/>
      <point x="567" y="-12"/>
      <point x="566" y="-13" type="curve" smooth="yes"/>
    </contour>
  </outline>
</glyph>
<glyph name="h" format="1">
  <advance width="602"/>
  <unicode hex="0068"/>
  <outline>
    <contour>
      <point x="235" y="721" type="line" smooth="yes"/>
      <point x="235" y="734"/>
      <point x="229" y="742"/>
      <point x="217" y="742" type="curve" smooth="yes"/>
      <point x="57" y="742" type="line" smooth="yes"/>
      <point x="45" y="742"/>
      <point x="38" y="733"/>
      <point x="38" y="719" type="curve" smooth="yes"/>
      <point x="38" y="25" type="line" smooth="yes"/>
      <point x="38" y="7"/>
      <point x="45" y="0"/>
      <point x="64" y="0" type="curve" smooth="yes"/>
      <point x="205" y="0" type="line" smooth="yes"/>
      <point x="229" y="0"/>
      <point x="238" y="8"/>
      <point x="238" y="29" type="curve" smooth="yes"/>
      <point x="238" y="349" type="line"/>
      <point x="257" y="383"/>
      <point x="281" y="399"/>
      <point x="312" y="399" type="curve" smooth="yes"/>
      <point x="344" y="399"/>
      <point x="364" y="381"/>
      <point x="364" y="351" type="curve" smooth="yes"/>
      <point x="364" y="25" type="line" smooth="yes"/>
      <point x="364" y="6"/>
      <point x="370" y="0"/>
      <point x="387" y="0" type="curve" smooth="yes"/>
      <point x="534" y="0" type="line" smooth="yes"/>
      <point x="555" y="0"/>
      <point x="564" y="10"/>
      <point x="564" y="30" type="curve" smooth="yes"/>
      <point x="564" y="375" type="line" smooth="yes"/>
      <point x="564" y="481"/>
      <point x="507" y="540"/>
      <point x="408" y="540" type="curve" smooth="yes"/>
      <point x="355" y="540"/>
      <point x="305" y="523"/>
      <point x="248" y="468" type="curve" smooth="yes"/>
      <point x="240" y="461"/>
      <point x="235" y="464"/>
      <point x="235" y="472" type="curve" smooth="yes"/>
    </contour>
  </outline>
</glyph>
<glyph name="i" format="1">
  <advance width="284"/>
  <unicode hex="0069"/>
  <outline>
    <contour>
      <point x="242" y="522"/>
      <point x="235" y="530"/>
      <point x="224" y="530" type="curve" smooth="yes"/>
      <point x="61" y="530" type="line" smooth="yes"/>
      <point x="49" y="530"/>
      <point x="42" y="522"/>
      <point x="42" y="507" type="curve" smooth="yes"/>
      <point x="42" y="25" type="line" smooth="yes"/>
      <point x="42" y="8"/>
      <point x="48" y="0"/>
      <point x="68" y="0" type="curve" smooth="yes"/>
      <point x="209" y="0" type="line" smooth="yes"/>
      <point x="232" y="0"/>
      <point x="242" y="8"/>
      <point x="242" y="29" type="curve" smooth="yes"/>
      <point x="242" y="510" type="line" smooth="yes"/>
    </contour>
    <contour>
      <point x="242" y="734"/>
      <point x="235" y="742"/>
      <point x="224" y="742" type="curve" smooth="yes"/>
      <point x="61" y="742" type="line" smooth="yes"/>
      <point x="49" y="742"/>
      <point x="42" y="734"/>
      <point x="42" y="719" type="curve" smooth="yes"/>
      <point x="42" y="600" type="line" smooth="yes"/>
      <point x="42" y="583"/>
      <point x="48" y="574"/>
      <point x="68" y="574" type="curve" smooth="yes"/>
      <point x="209" y="574" type="line" smooth="yes"/>
      <point x="232" y="574"/>
      <point x="242" y="583"/>
      <point x="242" y="603" type="curve" smooth="yes"/>
      <point x="242" y="721" type="line" smooth="yes"/>
    </contour>
  </outline>
</glyph>
<glyph name="k" format="1">
  <advance width="560"/>
  <unicode hex="006B"/>
  <outline>
    <contour>
      <point x="427" y="318" type="line" smooth="yes"/>
      <point x="418" y="335"/>
      <point x="420" y="341"/>
      <point x="429" y="351" type="curve" smooth="yes"/>
      <point x="550" y="473" type="line" smooth="yes"/>
      <point x="563" y="486"/>
      <point x="559" y="500"/>
      <point x="537" y="500" type="curve" smooth="yes"/>
      <point x="408" y="500" type="line" smooth="yes"/>
      <point x="398" y="500"/>
      <point x="388" y="494"/>
      <point x="379" y="484" type="curve" smooth="yes"/>
      <point x="237" y="325" type="line" smooth="yes"/>
      <point x="229" y="316"/>
      <point x="226" y="321"/>
      <point x="226" y="327" type="curve" smooth="yes"/>
      <point x="226" y="681" type="line" smooth="yes"/>
      <point x="226" y="693"/>
      <point x="220" y="700"/>
      <point x="209" y="700" type="curve" smooth="yes"/>
      <point x="58" y="700" type="line" smooth="yes"/>
      <point x="47" y="700"/>
      <point x="40" y="693"/>
      <point x="40" y="679" type="curve" smooth="yes"/>
      <point x="36" y="24" type="line" smooth="yes"/>
      <point x="36" y="8"/>
      <point x="42" y="0"/>
      <point x="61" y="0" type="curve" smooth="yes"/>
      <point x="195" y="0" type="line" smooth="yes"/>
      <point x="217" y="0"/>
      <point x="226" y="8"/>
      <point x="226" y="27" type="curve" smooth="yes"/>
      <point x="226" y="123" type="line" smooth="yes"/>
      <point x="226" y="138"/>
      <point x="228" y="144"/>
      <point x="234" y="149" type="curve" smooth="yes"/>
      <point x="279" y="192" type="line" smooth="yes"/>
      <point x="289" y="201"/>
      <point x="294" y="199"/>
      <point x="299" y="187" type="curve" smooth="yes"/>
      <point x="367" y="25" type="line" smooth="yes"/>
      <point x="374" y="9"/>
      <point x="382" y="0"/>
      <point x="398" y="0" type="curve" smooth="yes"/>
      <point x="560" y="0" type="line" smooth="yes"/>
      <point x="577" y="0"/>
      <point x="583" y="16"/>
      <point x="578" y="26" type="curve" smooth="yes"/>
    </contour>
  </outline>
</glyph>
<glyph name="l" format="1">
  <advance width="270"/>
  <unicode hex="006C"/>
  <outline>
    <contour>
      <point x="231" y="693"/>
      <point x="225" y="700"/>
      <point x="214" y="700" type="curve" smooth="yes"/>
      <point x="63" y="700" type="line" smooth="yes"/>
      <point x="52" y="700"/>
      <point x="45" y="693"/>
      <point x="45" y="679" type="curve" smooth="yes"/>
      <point x="41" y="24" type="line" smooth="yes"/>
      <point x="41" y="8"/>
      <point x="47" y="0"/>
      <point x="66" y="0" type="curve" smooth="yes"/>
      <point x="200" y="0" type="line" smooth="yes"/>
      <point x="222" y="0"/>
      <point x="231" y="8"/>
      <point x="231" y="27" type="curve" smooth="yes"/>
      <point x="231" y="681" type="line" smooth="yes"/>
    </contour>
  </outline>
</glyph>
<glyph name="m" format="1">
  <advance width="860"/>
  <unicode hex="006D"/>
  <outline>
    <contour>
      <point x="635" y="505"/>
      <point x="564" y="466"/>
      <point x="529" y="421" type="curve" smooth="yes"/>
      <point x="524" y="415"/>
      <point x="519" y="415"/>
      <point x="517" y="420" type="curve" smooth="yes"/>
      <point x="496" y="475"/>
      <point x="446" y="505"/>
      <point x="382" y="505" type="curve" smooth="yes"/>
      <point x="325" y="505"/>
      <point x="272" y="476"/>
      <point x="231" y="435" type="curve" smooth="yes"/>
      <point x="224" y="428"/>
      <point x="219" y="431"/>
      <point x="219" y="439" type="curve" smooth="yes"/>
      <point x="219" y="481" type="line" smooth="yes"/>
      <point x="219" y="493"/>
      <point x="213" y="500"/>
      <point x="202" y="500" type="curve" smooth="yes"/>
      <point x="54" y="500" type="line" smooth="yes"/>
      <point x="43" y="500"/>
      <point x="36" y="492"/>
      <point x="36" y="479" type="curve" smooth="yes"/>
      <point x="32" y="24" type="line" smooth="yes"/>
      <point x="32" y="7"/>
      <point x="39" y="0"/>
      <point x="57" y="0" type="curve" smooth="yes"/>
      <point x="191" y="0" type="line" smooth="yes"/>
      <point x="213" y="0"/>
      <point x="222" y="8"/>
      <point x="222" y="27" type="curve" smooth="yes"/>
      <point x="222" y="329" type="line"/>
      <point x="240" y="362"/>
      <point x="262" y="377"/>
      <point x="291" y="377" type="curve" smooth="yes"/>
      <point x="321" y="377"/>
      <point x="340" y="360"/>
      <point x="340" y="331" type="curve" smooth="yes"/>
      <point x="340" y="24" type="line" smooth="yes"/>
      <point x="340" y="6"/>
      <point x="346" y="0"/>
      <point x="362" y="0" type="curve" smooth="yes"/>
      <point x="500" y="0" type="line" smooth="yes"/>
      <point x="520" y="0"/>
      <point x="529" y="9"/>
      <point x="529" y="28" type="curve" smooth="yes"/>
      <point x="529" y="314" type="line" smooth="yes"/>
      <point x="529" y="323"/>
      <point x="529" y="331"/>
      <point x="536" y="340" type="curve" smooth="yes"/>
      <point x="551" y="360"/>
      <point x="577" y="377"/>
      <point x="601" y="377" type="curve" smooth="yes"/>
      <point x="631" y="377"/>
      <point x="650" y="360"/>
      <point x="650" y="331" type="curve" smooth="yes"/>
      <point x="650" y="24" type="line" smooth="yes"/>
      <point x="650" y="6"/>
      <point x="656" y="0"/>
      <point x="672" y="0" type="curve" smooth="yes"/>
      <point x="807" y="0" type="line" smooth="yes"/>
      <point x="827" y="0"/>
      <point x="836" y="9"/>
      <point x="836" y="28" type="curve" smooth="yes"/>
      <point x="836" y="352" type="line" smooth="yes"/>
      <point x="836" y="450"/>
      <point x="776" y="505"/>
      <point x="692" y="505" type="curve" smooth="yes"/>
    </contour>
  </outline>
</glyph>
<glyph name="o" format="1">
  <advance width="560"/>
  <unicode hex="006F"/>
  <outline>
    <contour>
      <point x="131" y="508"/>
      <point x="16" y="405"/>
      <point x="16" y="247" type="curve" smooth="yes"/>
      <point x="16" y="97"/>
      <point x="125" y="-8"/>
      <point x="279" y="-8" type="curve" smooth="yes"/>
      <point x="435" y="-8"/>
      <point x="544" y="98"/>
      <point x="544" y="247" type="curve" smooth="yes"/>
      <point x="544" y="399"/>
      <point x="438" y="508"/>
      <point x="280" y="508" type="curve" smooth="yes"/>
    </contour>
    <contour>
      <point x="230" y="111"/>
      <point x="208" y="153"/>
      <point x="208" y="251" type="curve" smooth="yes"/>
      <point x="208" y="350"/>
      <point x="230" y="393"/>
      <point x="280" y="393" type="curve" smooth="yes"/>
      <point x="331" y="393"/>
      <point x="353" y="350"/>
      <point x="353" y="251" type="curve" smooth="yes"/>
      <point x="353" y="154"/>
      <point x="331" y="111"/>
      <point x="280" y="111" type="curve" smooth="yes"/>
    </contour>
  </outline>
</glyph>
<glyph name="p" format="1">
  <advance width="580"/>
  <unicode hex="0070"/>
  <outline>
    <contour>
      <point x="60" y="500" type="line" smooth="yes"/>
      <point x="41" y="500"/>
      <point x="35" y="492"/>
      <point x="35" y="476" type="curve" smooth="yes"/>
      <point x="39" y="-135" type="line" smooth="yes"/>
      <point x="39" y="-149"/>
      <point x="46" y="-156"/>
      <point x="57" y="-156" type="curve" smooth="yes"/>
      <point x="203" y="-156" type="line" smooth="yes"/>
      <point x="214" y="-156"/>
      <point x="220" y="-149"/>
      <point x="220" y="-137" type="curve" smooth="yes"/>
      <point x="220" y="34" type="line" smooth="yes"/>
      <point x="220" y="53"/>
      <point x="225" y="52"/>
      <point x="240" y="39" type="curve" smooth="yes"/>
      <point x="279" y="5"/>
      <point x="318" y="-5"/>
      <point x="361" y="-5" type="curve" smooth="yes"/>
      <point x="466" y="-5"/>
      <point x="553" y="65"/>
      <point x="553" y="252" type="curve" smooth="yes"/>
      <point x="553" y="426"/>
      <point x="472" y="505"/>
      <point x="367" y="505" type="curve" smooth="yes"/>
      <point x="309" y="505"/>
      <point x="272" y="487"/>
      <point x="235" y="456" type="curve" smooth="yes"/>
      <point x="228" y="450"/>
      <point x="221" y="450"/>
      <point x="221" y="458" type="curve" smooth="yes"/>
      <point x="221" y="478" type="line" smooth="yes"/>
      <point x="221" y="494"/>
      <point x="214" y="500"/>
      <point x="196" y="500" type="curve" smooth="yes"/>
    </contour>
    <contour>
      <point x="223" y="343" type="line" smooth="yes"/>
      <point x="223" y="373"/>
      <point x="252" y="396"/>
      <point x="289" y="396" type="curve" smooth="yes"/>
      <point x="338" y="396"/>
      <point x="363" y="367"/>
      <point x="363" y="258" type="curve" smooth="yes"/>
      <point x="363" y="137"/>
      <point x="336" y="105"/>
      <point x="289" y="105" type="curve" smooth="yes"/>
      <point x="259" y="105"/>
      <point x="239" y="120"/>
      <point x="223" y="143" type="curve"/>
    </contour>
  </outline>
</glyph>
<glyph name="q" format="1">
  <advance width="580"/>
  <unicode hex="0071"/>
  <outline>
    <contour>
      <point x="434" y="500"/>
      <point x="427" y="493"/>
      <point x="422" y="478" type="curve" smooth="yes"/>
      <point x="407" y="434" type="line" smooth="yes"/>
      <point x="404" y="426"/>
      <point x="400" y="425"/>
      <point x="395" y="431" type="curve" smooth="yes"/>
      <point x="358" y="475"/>
      <point x="307" y="505"/>
      <point x="238" y="505" type="curve" smooth="yes"/>
      <point x="109" y="505"/>
      <point x="29" y="403"/>
      <point x="29" y="236" type="curve" smooth="yes"/>
      <point x="29" y="81"/>
      <point x="105" y="-9"/>
      <point x="227" y="-9" type="curve" smooth="yes"/>
      <point x="269" y="-9"/>
      <point x="310" y="10"/>
      <point x="344" y="37" type="curve" smooth="yes"/>
      <point x="354" y="45"/>
      <point x="361" y="44"/>
      <point x="361" y="26" type="curve" smooth="yes"/>
      <point x="361" y="-138" type="line" smooth="yes"/>
      <point x="361" y="-150"/>
      <point x="367" y="-157"/>
      <point x="378" y="-157" type="curve" smooth="yes"/>
      <point x="533" y="-157" type="line" smooth="yes"/>
      <point x="544" y="-157"/>
      <point x="551" y="-150"/>
      <point x="551" y="-136" type="curve" smooth="yes"/>
      <point x="555" y="476" type="line" smooth="yes"/>
      <point x="555" y="492"/>
      <point x="549" y="500"/>
      <point x="530" y="500" type="curve" smooth="yes"/>
      <point x="446" y="500" type="line" smooth="yes"/>
    </contour>
    <contour>
      <point x="342" y="115"/>
      <point x="320" y="104"/>
      <point x="292" y="104" type="curve" smooth="yes"/>
      <point x="246" y="104"/>
      <point x="223" y="140"/>
      <point x="223" y="250" type="curve" smooth="yes"/>
      <point x="223" y="360"/>
      <point x="249" y="402"/>
      <point x="295" y="402" type="curve" smooth="yes"/>
      <point x="335" y="402"/>
      <point x="361" y="371"/>
      <point x="361" y="325" type="curve" smooth="yes"/>
      <point x="361" y="135" type="line"/>
    </contour>
  </outline>
</glyph>
<glyph name="s" format="1">
  <advance width="520"/>
  <unicode hex="0073"/>
  <outline>
    <contour>
      <point x="367" y="347"/>
      <point x="374" y="343"/>
      <point x="385" y="348" type="curve" smooth="yes"/>
      <point x="472" y="389" type="line" smooth="yes"/>
      <point x="485" y="395"/>
      <point x="476" y="412"/>
      <point x="473" y="417" type="curve" smooth="yes"/>
      <point x="446" y="467"/>
      <point x="361" y="511"/>
      <point x="251" y="511" type="curve" smooth="yes"/>
      <point x="109" y="511"/>
      <point x="30" y="437"/>
      <point x="30" y="339" type="curve" smooth="yes"/>
      <point x="30" y="253"/>
      <point x="90" y="206"/>
      <point x="189" y="188" type="curve" smooth="yes"/>
      <point x="287" y="170" type="line" smooth="yes"/>
      <point x="326" y="163"/>
      <point x="334" y="152"/>
      <point x="334" y="140" type="curve" smooth="yes"/>
      <point x="334" y="116"/>
      <point x="302" y="107"/>
      <point x="260" y="107" type="curve" smooth="yes"/>
      <point x="184" y="107"/>
      <point x="155" y="137"/>
      <point x="132" y="161" type="curve" smooth="yes"/>
      <point x="125" y="168"/>
      <point x="119" y="171"/>
      <point x="103" y="163" type="curve" smooth="yes"/>
      <point x="21" y="123" type="line" smooth="yes"/>
      <point x="10" y="118"/>
      <point x="12" y="107"/>
      <point x="18" y="95" type="curve" smooth="yes"/>
      <point x="47" y="38"/>
      <point x="134" y="-9"/>
      <point x="260" y="-9" type="curve" smooth="yes"/>
      <point x="401" y="-9"/>
      <point x="501" y="50"/>
      <point x="501" y="159" type="curve" smooth="yes"/>
      <point x="501" y="231"/>
      <point x="457" y="295"/>
      <point x="339" y="321" type="curve" smooth="yes"/>
      <point x="235" y="344" type="line" smooth="yes"/>
      <point x="198" y="352"/>
      <point x="194" y="360"/>
      <point x="194" y="368" type="curve" smooth="yes"/>
      <point x="194" y="389"/>
      <point x="224" y="400"/>
      <point x="260" y="400" type="curve" smooth="yes"/>
      <point x="311" y="400"/>
      <point x="337" y="377"/>
      <point x="358" y="356" type="curve" smooth="yes"/>
    </contour>
  </outline>
</glyph>
<glyph name="t" format="1">
  <advance width="430"/>
  <unicode hex="0074"/>
  <outline>
    <contour>
      <point x="407" y="395"/>
      <point x="415" y="404"/>
      <point x="415" y="417" type="curve" smooth="yes"/>
      <point x="415" y="512" type="line" smooth="yes"/>
      <point x="415" y="525"/>
      <point x="406" y="531"/>
      <point x="393" y="531" type="curve" smooth="yes"/>
      <point x="301" y="531" type="line" smooth="yes"/>
      <point x="294" y="531"/>
      <point x="290" y="535"/>
      <point x="290" y="542" type="curve" smooth="yes"/>
      <point x="290" y="688" type="line" smooth="yes"/>
      <point x="290" y="702"/>
      <point x="282" y="710"/>
      <point x="271" y="710" type="curve" smooth="yes"/>
      <point x="124" y="710" type="line" smooth="yes"/>
      <point x="112" y="710"/>
      <point x="107" y="703"/>
      <point x="106" y="690" type="curve" smooth="yes"/>
      <point x="90" y="542" type="line" smooth="yes"/>
      <point x="89" y="534"/>
      <point x="85" y="530"/>
      <point x="78" y="530" type="curve" smooth="yes"/>
      <point x="19" y="530" type="line" smooth="yes"/>
      <point x="5" y="530"/>
      <point x="-3" y="524"/>
      <point x="-3" y="511" type="curve" smooth="yes"/>
      <point x="-3" y="417" type="line" smooth="yes"/>
      <point x="-3" y="404"/>
      <point x="4" y="395"/>
      <point x="21" y="395" type="curve" smooth="yes"/>
      <point x="69" y="395" type="line" smooth="yes"/>
      <point x="81" y="395"/>
      <point x="84" y="389"/>
      <point x="84" y="377" type="curve" smooth="yes"/>
      <point x="84" y="133" type="line" smooth="yes"/>
      <point x="84" y="47"/>
      <point x="154" y="0"/>
      <point x="250" y="0" type="curve" smooth="yes"/>
      <point x="295" y="0"/>
      <point x="341" y="1"/>
      <point x="385" y="7" type="curve" smooth="yes"/>
      <point x="404" y="11"/>
      <point x="414" y="21"/>
      <point x="414" y="37" type="curve" smooth="yes"/>
      <point x="415" y="117" type="line" smooth="yes"/>
      <point x="415" y="128"/>
      <point x="408" y="137"/>
      <point x="397" y="137" type="curve" smooth="yes"/>
      <point x="354" y="137" type="line" smooth="yes"/>
      <point x="305" y="137"/>
      <point x="284" y="155"/>
      <point x="284" y="190" type="curve" smooth="yes"/>
      <point x="284" y="382" type="line" smooth="yes"/>
      <point x="284" y="391"/>
      <point x="290" y="395"/>
      <point x="297" y="395" type="curve" smooth="yes"/>
      <point x="390" y="395" type="line" smooth="yes"/>
    </contour>
    <contour>
      <point x="205" y="265" type="move" name="center"/>
    </contour>
    <contour>
      <point x="246" y="0" type="move" name="bottom"/>
    </contour>
    <contour>
      <point x="390" y="635" type="move" name="topright"/>
    </contour>
  </outline>
</glyph>
<glyph name="v" format="1">
  <advance width="569"/>
  <unicode hex="0076"/>
  <outline>
    <contour>
      <point x="32" y="503"/>
      <point x="26" y="501"/>
      <point x="24" y="500" type="curve" smooth="yes"/>
      <point x="19" y="495"/>
      <point x="19" y="484"/>
      <point x="23" y="473" type="curve" smooth="yes"/>
      <point x="25" y="468"/>
      <point x="27" y="462"/>
      <point x="27" y="460" type="curve" smooth="yes"/>
      <point x="27" y="458"/>
      <point x="30" y="451"/>
      <point x="33" y="444" type="curve" smooth="yes"/>
      <point x="47" y="414"/>
      <point x="59" y="386"/>
      <point x="65" y="368" type="curve" smooth="yes"/>
      <point x="68" y="359"/>
      <point x="72" y="349"/>
      <point x="74" y="346" type="curve" smooth="yes"/>
      <point x="76" y="342"/>
      <point x="80" y="331"/>
      <point x="84" y="322" type="curve" smooth="yes"/>
      <point x="87" y="313"/>
      <point x="92" y="301"/>
      <point x="94" y="296" type="curve" smooth="yes"/>
      <point x="97" y="290"/>
      <point x="105" y="272"/>
      <point x="112" y="255" type="curve" smooth="yes"/>
      <point x="119" y="238"/>
      <point x="127" y="220"/>
      <point x="129" y="215" type="curve" smooth="yes"/>
      <point x="131" y="210"/>
      <point x="134" y="201"/>
      <point x="136" y="195" type="curve" smooth="yes"/>
      <point x="140" y="186"/>
      <point x="149" y="163"/>
      <point x="168" y="116" type="curve" smooth="yes"/>
      <point x="171" y="109"/>
      <point x="177" y="92"/>
      <point x="183" y="79" type="curve" smooth="yes"/>
      <point x="188" y="66"/>
      <point x="193" y="54"/>
      <point x="193" y="52" type="curve" smooth="yes"/>
      <point x="193" y="51"/>
      <point x="194" y="49"/>
      <point x="195" y="48" type="curve" smooth="yes"/>
      <point x="196" y="47"/>
      <point x="199" y="41"/>
      <point x="201" y="33" type="curve" smooth="yes"/>
      <point x="204" y="22"/>
      <point x="207" y="17"/>
      <point x="213" y="11" type="curve" smooth="yes"/>
      <point x="224" y="1"/>
      <point x="230" y="0"/>
      <point x="272" y="2" type="curve" smooth="yes"/>
      <point x="288" y="2"/>
      <point x="308" y="2"/>
      <point x="317" y="1" type="curve" smooth="yes"/>
      <point x="331" y="-1"/>
      <point x="335" y="0"/>
      <point x="342" y="3" type="curve" smooth="yes"/>
      <point x="346" y="5"/>
      <point x="352" y="8"/>
      <point x="354" y="10" type="curve" smooth="yes"/>
      <point x="358" y="14"/>
      <point x="370" y="39"/>
      <point x="370" y="43" type="curve" smooth="yes"/>
      <point x="370" y="45"/>
      <point x="372" y="49"/>
      <point x="374" y="53" type="curve" smooth="yes"/>
      <point x="376" y="57"/>
      <point x="379" y="64"/>
      <point x="380" y="69" type="curve" smooth="yes"/>
      <point x="381" y="73"/>
      <point x="384" y="79"/>
      <point x="385" y="81" type="curve" smooth="yes"/>
      <point x="387" y="85"/>
      <point x="395" y="103"/>
      <point x="402" y="121" type="curve" smooth="yes"/>
      <point x="404" y="127"/>
      <point x="407" y="134"/>
      <point x="409" y="136" type="curve" smooth="yes"/>
      <point x="410" y="138"/>
      <point x="411" y="141"/>
      <point x="411" y="142" type="curve" smooth="yes"/>
      <point x="411" y="144"/>
      <point x="413" y="149"/>
      <point x="415" y="153" type="curve" smooth="yes"/>
      <point x="417" y="158"/>
      <point x="422" y="170"/>
      <point x="426" y="180" type="curve" smooth="yes"/>
      <point x="430" y="190"/>
      <point x="435" y="203"/>
      <point x="438" y="208" type="curve" smooth="yes"/>
      <point x="440" y="213"/>
      <point x="444" y="224"/>
      <point x="447" y="232" type="curve" smooth="yes"/>
      <point x="454" y="251"/>
      <point x="460" y="264"/>
      <point x="469" y="285" type="curve" smooth="yes"/>
      <point x="472" y="294"/>
      <point x="476" y="304"/>
      <point x="478" y="308" type="curve" smooth="yes"/>
      <point x="480" y="317"/>
      <point x="494" y="348"/>
      <point x="509" y="381" type="curve" smooth="yes"/>
      <point x="515" y="395"/>
      <point x="521" y="407"/>
      <point x="521" y="408" type="curve" smooth="yes"/>
      <point x="521" y="410"/>
      <point x="528" y="428"/>
      <point x="535" y="441" type="curve" smooth="yes"/>
      <point x="543" y="457"/>
      <point x="550" y="479"/>
      <point x="549" y="485" type="curve" smooth="yes"/>
      <point x="548" y="487"/>
      <point x="545" y="492"/>
      <point x="542" y="495" type="curve" smooth="yes"/>
      <point x="536" y="500"/>
      <point x="535" y="501"/>
      <point x="513" y="501" type="curve" smooth="yes"/>
      <point x="501" y="501"/>
      <point x="475" y="502"/>
      <point x="455" y="502" type="curve" smooth="yes"/>
      <point x="410" y="503"/>
      <point x="410" y="503"/>
      <point x="398" y="473" type="curve" smooth="yes"/>
      <point x="390" y="454"/>
      <point x="386" y="442"/>
      <point x="374" y="408" type="curve" smooth="yes"/>
      <point x="372" y="402"/>
      <point x="369" y="393"/>
      <point x="367" y="387" type="curve" smooth="yes"/>
      <point x="366" y="382"/>
      <point x="363" y="373"/>
      <point x="360" y="367" type="curve" smooth="yes"/>
      <point x="354" y="353"/>
      <point x="350" y="344"/>
      <point x="340" y="314" type="curve" smooth="yes"/>
      <point x="336" y="301"/>
      <point x="330" y="286"/>
      <point x="327" y="281" type="curve" smooth="yes"/>
      <point x="324" y="276"/>
      <point x="321" y="269"/>
      <point x="320" y="264" type="curve" smooth="yes"/>
      <point x="318" y="256"/>
      <point x="313" y="252"/>
      <point x="309" y="256" type="curve" smooth="yes"/>
      <point x="307" y="258"/>
      <point x="281" y="322"/>
      <point x="273" y="345" type="curve" smooth="yes"/>
      <point x="270" y="353"/>
      <point x="265" y="367"/>
      <point x="262" y="376" type="curve" smooth="yes"/>
      <point x="255" y="394"/>
      <point x="253" y="399"/>
      <point x="238" y="443" type="curve" smooth="yes"/>
      <point x="223" y="484"/>
      <point x="218" y="496"/>
      <point x="212" y="499" type="curve" smooth="yes"/>
      <point x="209" y="501"/>
      <point x="196" y="502"/>
      <point x="159" y="503" type="curve" smooth="yes"/>
      <point x="132" y="503"/>
      <point x="96" y="504"/>
      <point x="80" y="504" type="curve" smooth="yes"/>
      <point x="63" y="505"/>
      <point x="45" y="505"/>
      <point x="38" y="504" type="curve" smooth="yes"/>
    </contour>
  </outline>
</glyph>
<glyph name="x" format="1">
  <advance width="530"/>
  <unicode hex="0078"/>
  <outline>
    <contour>
      <point x="364" y="263" type="line" smooth="yes"/>
      <point x="354" y="276"/>
      <point x="352" y="284"/>
      <point x="363" y="297" type="curve" smooth="yes"/>
      <point x="505" y="473" type="line" smooth="yes"/>
      <point x="516" y="486"/>
      <point x="515" y="500"/>
      <point x="492" y="500" type="curve" smooth="yes"/>
      <point x="382" y="500" type="line" smooth="yes"/>
      <point x="361" y="500"/>
      <point x="353" y="494"/>
      <point x="344" y="481" type="curve" smooth="yes"/>
      <point x="283" y="395" type="line" smooth="yes"/>
      <point x="275" y="384"/>
      <point x="272" y="385"/>
      <point x="266" y="395" type="curve" smooth="yes"/>
      <point x="212" y="481" type="line" smooth="yes"/>
      <point x="204" y="494"/>
      <point x="195" y="500"/>
      <point x="174" y="500" type="curve" smooth="yes"/>
      <point x="20" y="500" type="line" smooth="yes"/>
      <point x="-2" y="500"/>
      <point x="-9" y="481"/>
      <point x="2" y="467" type="curve" smooth="yes"/>
      <point x="157" y="269" type="line" smooth="yes"/>
      <point x="168" y="255"/>
      <point x="168" y="248"/>
      <point x="158" y="235" type="curve" smooth="yes"/>
      <point x="6" y="48" type="line" smooth="yes"/>
      <point x="-24" y="12"/>
      <point x="-8" y="0"/>
      <point x="19" y="0" type="curve" smooth="yes"/>
      <point x="118" y="0" type="line" smooth="yes"/>
      <point x="137" y="0"/>
      <point x="149" y="5"/>
      <point x="158" y="19" type="curve" smooth="yes"/>
      <point x="231" y="131" type="line" smooth="yes"/>
      <point x="243" y="149"/>
      <point x="246" y="148"/>
      <point x="258" y="130" type="curve" smooth="yes"/>
      <point x="331" y="19" type="line" smooth="yes"/>
      <point x="340" y="6"/>
      <point x="352" y="0"/>
      <point x="371" y="0" type="curve" smooth="yes"/>
      <point x="528" y="0" type="line" smooth="yes"/>
      <point x="555" y="0"/>
      <point x="560" y="11"/>
      <point x="536" y="41" type="curve" smooth="yes"/>
    </contour>
  </outline>
</glyph>
<glyph name="y" format="1">
  <advance width="570"/>
  <unicode hex="0079"/>
  <outline>
    <contour>
      <point x="26" y="500"/>
      <point x="20" y="492"/>
      <point x="20" y="482" type="curve" smooth="yes"/>
      <point x="20" y="472"/>
      <point x="24" y="460"/>
      <point x="39" y="429" type="curve" smooth="yes"/>
      <point x="45" y="415"/>
      <point x="53" y="396"/>
      <point x="57" y="385" type="curve" smooth="yes"/>
      <point x="62" y="374"/>
      <point x="68" y="360"/>
      <point x="71" y="353" type="curve" smooth="yes"/>
      <point x="74" y="346"/>
      <point x="78" y="335"/>
      <point x="81" y="329" type="curve" smooth="yes"/>
      <point x="83" y="324"/>
      <point x="87" y="313"/>
      <point x="90" y="307" type="curve" smooth="yes"/>
      <point x="94" y="301"/>
      <point x="96" y="294"/>
      <point x="96" y="293" type="curve" smooth="yes"/>
      <point x="96" y="292"/>
      <point x="98" y="286"/>
      <point x="101" y="280" type="curve" smooth="yes"/>
      <point x="107" y="266"/>
      <point x="131" y="204"/>
      <point x="143" y="172" type="curve" smooth="yes"/>
      <point x="145" y="166"/>
      <point x="149" y="158"/>
      <point x="151" y="155" type="curve" smooth="yes"/>
      <point x="153" y="151"/>
      <point x="157" y="143"/>
      <point x="159" y="136" type="curve" smooth="yes"/>
      <point x="170" y="107"/>
      <point x="174" y="97"/>
      <point x="179" y="88" type="curve" smooth="yes"/>
      <point x="186" y="77"/>
      <point x="205" y="21"/>
      <point x="205" y="13" type="curve" smooth="yes"/>
      <point x="205" y="3"/>
      <point x="197" y="-8"/>
      <point x="185" y="-16" type="curve" smooth="yes"/>
      <point x="173" y="-23"/>
      <point x="173" y="-23"/>
      <point x="143" y="-25" type="curve" smooth="yes"/>
      <point x="125" y="-27"/>
      <point x="103" y="-27"/>
      <point x="90" y="-26" type="curve" smooth="yes"/>
      <point x="65" y="-25"/>
      <point x="55" y="-27"/>
      <point x="51" y="-36" type="curve" smooth="yes"/>
      <point x="49" y="-41"/>
      <point x="44" y="-114"/>
      <point x="46" y="-117" type="curve" smooth="yes"/>
      <point x="47" y="-118"/>
      <point x="48" y="-125"/>
      <point x="48" y="-133" type="curve" smooth="yes"/>
      <point x="50" y="-149"/>
      <point x="51" y="-152"/>
      <point x="61" y="-156" type="curve" smooth="yes"/>
      <point x="79" y="-163"/>
      <point x="183" y="-157"/>
      <point x="209" y="-147" type="curve" smooth="yes"/>
      <point x="213" y="-146"/>
      <point x="219" y="-144"/>
      <point x="222" y="-143" type="curve" smooth="yes"/>
      <point x="226" y="-143"/>
      <point x="233" y="-139"/>
      <point x="240" y="-135" type="curve" smooth="yes"/>
      <point x="246" y="-132"/>
      <point x="256" y="-126"/>
      <point x="262" y="-123" type="curve" smooth="yes"/>
      <point x="283" y="-112"/>
      <point x="320" y="-67"/>
      <point x="330" y="-43" type="curve" smooth="yes"/>
      <point x="331" y="-40"/>
      <point x="335" y="-33"/>
      <point x="339" y="-27" type="curve" smooth="yes"/>
      <point x="342" y="-20"/>
      <point x="347" y="-11"/>
      <point x="349" y="-6" type="curve" smooth="yes"/>
      <point x="356" y="15"/>
      <point x="372" y="52"/>
      <point x="374" y="54" type="curve" smooth="yes"/>
      <point x="375" y="56"/>
      <point x="377" y="61"/>
      <point x="378" y="66" type="curve" smooth="yes"/>
      <point x="381" y="75"/>
      <point x="384" y="85"/>
      <point x="394" y="109" type="curve" smooth="yes"/>
      <point x="398" y="117"/>
      <point x="401" y="127"/>
      <point x="402" y="131" type="curve" smooth="yes"/>
      <point x="403" y="134"/>
      <point x="410" y="150"/>
      <point x="418" y="167" type="curve" smooth="yes"/>
      <point x="425" y="183"/>
      <point x="431" y="197"/>
      <point x="431" y="199" type="curve" smooth="yes"/>
      <point x="431" y="201"/>
      <point x="433" y="204"/>
      <point x="434" y="206" type="curve" smooth="yes"/>
      <point x="435" y="208"/>
      <point x="439" y="216"/>
      <point x="442" y="224" type="curve" smooth="yes"/>
      <point x="454" y="254"/>
      <point x="471" y="295"/>
      <point x="477" y="308" type="curve" smooth="yes"/>
      <point x="481" y="315"/>
      <point x="486" y="326"/>
      <point x="488" y="333" type="curve" smooth="yes"/>
      <point x="490" y="339"/>
      <point x="493" y="346"/>
      <point x="494" y="346" type="curve" smooth="yes"/>
      <point x="495" y="347"/>
      <point x="496" y="349"/>
      <point x="496" y="350" type="curve" smooth="yes"/>
      <point x="496" y="355"/>
      <point x="514" y="399"/>
      <point x="527" y="426" type="curve" smooth="yes"/>
      <point x="547" y="467"/>
      <point x="548" y="470"/>
      <point x="550" y="480" type="curve" smooth="yes"/>
      <point x="551" y="487"/>
      <point x="550" y="489"/>
      <point x="547" y="493" type="curve" smooth="yes"/>
      <point x="544" y="497"/>
      <point x="541" y="498"/>
      <point x="532" y="498" type="curve" smooth="yes"/>
      <point x="506" y="498"/>
      <point x="436" y="498"/>
      <point x="425" y="498" type="curve" smooth="yes"/>
      <point x="405" y="497"/>
      <point x="404" y="496"/>
      <point x="386" y="440" type="curve" smooth="yes"/>
      <point x="380" y="418"/>
      <point x="376" y="408"/>
      <point x="364" y="377" type="curve" smooth="yes"/>
      <point x="359" y="364"/>
      <point x="354" y="350"/>
      <point x="352" y="345" type="curve" smooth="yes"/>
      <point x="349" y="333"/>
      <point x="341" y="312"/>
      <point x="337" y="305" type="curve" smooth="yes"/>
      <point x="336" y="302"/>
      <point x="332" y="292"/>
      <point x="329" y="283" type="curve" smooth="yes"/>
      <point x="322" y="262"/>
      <point x="319" y="254"/>
      <point x="313" y="249" type="curve" smooth="yes"/>
      <point x="308" y="244"/>
      <point x="303" y="247"/>
      <point x="302" y="257" type="curve" smooth="yes"/>
      <point x="301" y="261"/>
      <point x="299" y="268"/>
      <point x="297" y="272" type="curve" smooth="yes"/>
      <point x="295" y="277"/>
      <point x="293" y="282"/>
      <point x="293" y="283" type="curve" smooth="yes"/>
      <point x="293" y="284"/>
      <point x="289" y="294"/>
      <point x="283" y="305" type="curve" smooth="yes"/>
      <point x="278" y="316"/>
      <point x="272" y="332"/>
      <point x="270" y="340" type="curve" smooth="yes"/>
      <point x="267" y="349"/>
      <point x="263" y="361"/>
      <point x="261" y="366" type="curve" smooth="yes"/>
      <point x="256" y="378"/>
      <point x="253" y="387"/>
      <point x="240" y="425" type="curve" smooth="yes"/>
      <point x="236" y="438"/>
      <point x="232" y="451"/>
      <point x="231" y="452" type="curve" smooth="yes"/>
      <point x="230" y="454"/>
      <point x="228" y="461"/>
      <point x="226" y="467" type="curve" smooth="yes"/>
      <point x="221" y="485"/>
      <point x="218" y="493"/>
      <point x="212" y="496" type="curve" smooth="yes"/>
      <point x="208" y="499"/>
      <point x="200" y="500"/>
      <point x="151" y="500" type="curve" smooth="yes"/>
      <point x="101" y="500"/>
      <point x="72" y="502"/>
      <point x="48" y="504" type="curve" smooth="yes"/>
      <point x="44" y="504"/>
      <point x="38" y="504"/>
      <point x="34" y="503" type="curve" smooth="yes"/>
    </contour>
  </outline>
</glyph>
<glyph name="z" format="1">
  <advance width="513"/>
  <unicode hex="007A"/>
  <outline>
    <contour>
      <point x="117" y="498"/>
      <point x="102" y="497"/>
      <point x="85" y="497" type="curve" smooth="yes"/>
      <point x="54" y="496"/>
      <point x="54" y="496"/>
      <point x="48" y="491" type="curve" smooth="yes"/>
      <point x="43" y="486" type="line"/>
      <point x="41" y="439" type="line" smooth="yes"/>
      <point x="40" y="414"/>
      <point x="40" y="391"/>
      <point x="41" y="389" type="curve" smooth="yes"/>
      <point x="42" y="383"/>
      <point x="52" y="377"/>
      <point x="63" y="376" type="curve" smooth="yes"/>
      <point x="69" y="375"/>
      <point x="85" y="376"/>
      <point x="97" y="377" type="curve" smooth="yes"/>
      <point x="110" y="378"/>
      <point x="128" y="379"/>
      <point x="136" y="379" type="curve" smooth="yes"/>
      <point x="145" y="380"/>
      <point x="170" y="381"/>
      <point x="192" y="383" type="curve" smooth="yes"/>
      <point x="240" y="387"/>
      <point x="247" y="386"/>
      <point x="248" y="382" type="curve" smooth="yes"/>
      <point x="248" y="380"/>
      <point x="244" y="373"/>
      <point x="238" y="366" type="curve" smooth="yes"/>
      <point x="232" y="360"/>
      <point x="225" y="351"/>
      <point x="223" y="346" type="curve" smooth="yes"/>
      <point x="221" y="342"/>
      <point x="217" y="335"/>
      <point x="214" y="332" type="curve" smooth="yes"/>
      <point x="212" y="328"/>
      <point x="210" y="324"/>
      <point x="210" y="323" type="curve" smooth="yes"/>
      <point x="210" y="322"/>
      <point x="205" y="317"/>
      <point x="200" y="311" type="curve" smooth="yes"/>
      <point x="194" y="306"/>
      <point x="190" y="301"/>
      <point x="190" y="300" type="curve" smooth="yes"/>
      <point x="190" y="299"/>
      <point x="187" y="297"/>
      <point x="183" y="294" type="curve" smooth="yes"/>
      <point x="177" y="289"/>
      <point x="166" y="276"/>
      <point x="157" y="263" type="curve" smooth="yes"/>
      <point x="152" y="255"/>
      <point x="126" y="222"/>
      <point x="123" y="220" type="curve" smooth="yes"/>
      <point x="122" y="219"/>
      <point x="116" y="213"/>
      <point x="112" y="205" type="curve" smooth="yes"/>
      <point x="107" y="198"/>
      <point x="101" y="190"/>
      <point x="98" y="188" type="curve" smooth="yes"/>
      <point x="93" y="183"/>
      <point x="77" y="161"/>
      <point x="77" y="158" type="curve" smooth="yes"/>
      <point x="77" y="157"/>
      <point x="74" y="153"/>
      <point x="70" y="148" type="curve" smooth="yes"/>
      <point x="51" y="128"/>
      <point x="48" y="123"/>
      <point x="37" y="108" type="curve" smooth="yes"/>
      <point x="30" y="100"/>
      <point x="24" y="90"/>
      <point x="23" y="86" type="curve" smooth="yes"/>
      <point x="19" y="74"/>
      <point x="19" y="22"/>
      <point x="23" y="13" type="curve" smooth="yes"/>
      <point x="29" y="0"/>
      <point x="31" y="-1"/>
      <point x="99" y="1" type="curve" smooth="yes"/>
      <point x="173" y="3"/>
      <point x="145" y="3"/>
      <point x="314" y="1" type="curve" smooth="yes"/>
      <point x="392" y="0"/>
      <point x="460" y="0"/>
      <point x="465" y="0" type="curve" smooth="yes"/>
      <point x="476" y="0"/>
      <point x="484" y="4"/>
      <point x="487" y="12" type="curve" smooth="yes"/>
      <point x="492" y="20"/>
      <point x="495" y="93"/>
      <point x="492" y="106" type="curve" smooth="yes"/>
      <point x="490" y="111"/>
      <point x="480" y="118"/>
      <point x="476" y="116" type="curve" smooth="yes"/>
      <point x="475" y="115"/>
      <point x="473" y="116"/>
      <point x="472" y="117" type="curve" smooth="yes"/>
      <point x="469" y="119"/>
      <point x="468" y="119"/>
      <point x="423" y="118" type="curve" smooth="yes"/>
      <point x="405" y="118"/>
      <point x="370" y="117"/>
      <point x="347" y="117" type="curve" smooth="yes"/>
      <point x="323" y="117"/>
      <point x="302" y="117"/>
      <point x="299" y="115" type="curve" smooth="yes"/>
      <point x="296" y="114"/>
      <point x="288" y="114"/>
      <point x="281" y="115" type="curve" smooth="yes"/>
      <point x="271" y="116"/>
      <point x="267" y="117"/>
      <point x="266" y="119" type="curve" smooth="yes"/>
      <point x="263" y="124"/>
      <point x="265" y="127"/>
      <point x="280" y="146" type="curve" smooth="yes"/>
      <point x="287" y="155"/>
      <point x="299" y="170"/>
      <point x="307" y="181" type="curve" smooth="yes"/>
      <point x="314" y="191"/>
      <point x="326" y="205"/>
      <point x="332" y="212" type="curve" smooth="yes"/>
      <point x="338" y="219"/>
      <point x="344" y="225"/>
      <point x="345" y="227" type="curve" smooth="yes"/>
      <point x="346" y="229"/>
      <point x="351" y="235"/>
      <point x="355" y="240" type="curve" smooth="yes"/>
      <point x="359" y="246"/>
      <point x="368" y="258"/>
      <point x="374" y="266" type="curve" smooth="yes"/>
      <point x="381" y="275"/>
      <point x="390" y="286"/>
      <point x="394" y="292" type="curve" smooth="yes"/>
      <point x="398" y="298"/>
      <point x="409" y="311"/>
      <point x="417" y="321" type="curve" smooth="yes"/>
      <point x="426" y="331"/>
      <point x="438" y="347"/>
      <point x="444" y="355" type="curve" smooth="yes"/>
      <point x="450" y="364"/>
      <point x="460" y="376"/>
      <point x="466" y="382" type="curve" smooth="yes"/>
      <point x="472" y="389"/>
      <point x="481" y="400"/>
      <point x="485" y="408" type="curve" smooth="yes"/>
      <point x="492" y="421" type="line"/>
      <point x="492" y="454" type="line" smooth="yes"/>
      <point x="492" y="485"/>
      <point x="491" y="487"/>
      <point x="487" y="491" type="curve" smooth="yes"/>
      <point x="483" y="496" type="line"/>
      <point x="364" y="496" type="line" smooth="yes"/>
      <point x="299" y="496"/>
      <point x="239" y="496"/>
      <point x="231" y="496" type="curve" smooth="yes"/>
      <point x="208" y="495"/>
      <point x="133" y="497"/>
      <point x="125" y="498" type="curve" smooth="yes"/>
      <point x="122" y="499"/>
      <point x="118" y="499"/>
      <point x="117" y="498" type="curve" smooth="yes"/>
    </contour>
    <contour>
      <point x="67" y="382"/>
      <point x="66" y="381"/>
      <point x="64" y="381" type="curve" smooth="yes"/>
      <point x="62" y="382"/>
      <point x="60" y="382"/>
      <point x="59" y="382" type="curve" smooth="yes"/>
      <point x="59" y="382"/>
      <point x="60" y="383"/>
      <point x="61" y="384" type="curve" smooth="yes"/>
      <point x="64" y="386"/>
      <point x="67" y="385"/>
      <point x="67" y="383" type="curve" smooth="yes"/>
    </contour>
  </outline>
</glyph>
<glyph name="brokenbar" format="1">
  <advance width="233"/>
  <unicode hex="00A6"/>
  <outline>
    <contour>
      <point x="179" y="423"/>
      <point x="187" y="430"/>
      <point x="187" y="441" type="curve" smooth="yes"/>
      <point x="187" y="828" type="line" smooth="yes"/>
      <point x="187" y="840"/>
      <point x="179" y="847"/>
      <point x="164" y="847" type="curve" smooth="yes"/>
      <point x="71" y="847" type="line" smooth="yes"/>
      <point x="54" y="847"/>
      <point x="46" y="841"/>
      <point x="46" y="821" type="curve" smooth="yes"/>
      <point x="46" y="456" type="line" smooth="yes"/>
      <point x="46" y="433"/>
      <point x="54" y="423"/>
      <point x="74" y="423" type="curve" smooth="yes"/>
      <point x="167" y="423" type="line" smooth="yes"/>
    </contour>
    <contour>
      <point x="179" y="-165"/>
      <point x="187" y="-158"/>
      <point x="187" y="-147" type="curve" smooth="yes"/>
      <point x="187" y="240" type="line" smooth="yes"/>
      <point x="187" y="252"/>
      <point x="179" y="259"/>
      <point x="164" y="259" type="curve" smooth="yes"/>
      <point x="71" y="259" type="line" smooth="yes"/>
      <point x="54" y="259"/>
      <point x="46" y="253"/>
      <point x="46" y="233" type="curve" smooth="yes"/>
      <point x="46" y="-132" type="line" smooth="yes"/>
      <point x="46" y="-155"/>
      <point x="54" y="-165"/>
      <point x="74" y="-165" type="curve" smooth="yes"/>
      <point x="167" y="-165" type="line" smooth="yes"/>
    </contour>
  </outline>
</glyph>
<glyph name="Eth" format="1">
  <advance width="768"/>
  <unicode hex="00D0"/>
  <outline>
    <contour>
      <point x="379" y="436"/>
      <point x="372" y="444"/>
      <point x="361" y="444" type="curve" smooth="yes"/>
      <point x="0" y="444" type="line" smooth="yes"/>
      <point x="-12" y="444"/>
      <point x="-19" y="436"/>
      <point x="-19" y="421" type="curve" smooth="yes"/>
      <point x="-19" y="308" type="line" smooth="yes"/>
      <point x="-19" y="291"/>
      <point x="-13" y="283"/>
      <point x="7" y="283" type="curve" smooth="yes"/>
      <point x="346" y="283" type="line" smooth="yes"/>
      <point x="369" y="283"/>
      <point x="379" y="291"/>
      <point x="379" y="311" type="curve" smooth="yes"/>
      <point x="379" y="424" type="line" smooth="yes"/>
    </contour>
    <component base="D"/>
  </outline>
</glyph>
<glyph name="Thorn" format="1">
  <advance width="720"/>
  <unicode hex="00DE"/>
  <outline>
    <contour>
      <point x="283" y="608" type="line" smooth="yes"/>
      <point x="276" y="608"/>
      <point x="273" y="612"/>
      <point x="273" y="620" type="curve" smooth="yes"/>
      <point x="273" y="721" type="line" smooth="yes"/>
      <point x="273" y="734"/>
      <point x="267" y="742"/>
      <point x="255" y="742" type="curve" smooth="yes"/>
      <point x="65" y="742" type="line" smooth="yes"/>
      <point x="54" y="742"/>
      <point x="46" y="734"/>
      <point x="46" y="719" type="curve" smooth="yes"/>
      <point x="46" y="25" type="line" smooth="yes"/>
      <point x="46" y="8"/>
      <point x="52" y="0"/>
      <point x="72" y="0" type="curve" smooth="yes"/>
      <point x="240" y="0" type="line" smooth="yes"/>
      <point x="263" y="0"/>
      <point x="273" y="8"/>
      <point x="273" y="29" type="curve" smooth="yes"/>
      <point x="273" y="131" type="line" smooth="yes"/>
      <point x="273" y="138"/>
      <point x="276" y="142"/>
      <point x="285" y="142" type="curve" smooth="yes"/>
      <point x="435" y="142" type="line" smooth="yes"/>
      <point x="598" y="142"/>
      <point x="710" y="229"/>
      <point x="710" y="372" type="curve" smooth="yes"/>
      <point x="710" y="530"/>
      <point x="573" y="608"/>
      <point x="409" y="608" type="curve" smooth="yes"/>
    </contour>
    <contour>
      <point x="290" y="302" type="line" smooth="yes"/>
      <point x="277" y="302"/>
      <point x="273" y="309"/>
      <point x="273" y="324" type="curve" smooth="yes"/>
      <point x="273" y="427" type="line" smooth="yes"/>
      <point x="273" y="442"/>
      <point x="279" y="448"/>
      <point x="296" y="448" type="curve" smooth="yes"/>
      <point x="395" y="448" type="line" smooth="yes"/>
      <point x="441" y="448"/>
      <point x="478" y="420"/>
      <point x="478" y="375" type="curve" smooth="yes"/>
      <point x="478" y="335"/>
      <point x="449" y="302"/>
      <point x="401" y="302" type="curve" smooth="yes"/>
    </contour>
  </outline>
</glyph>
<glyph name="Hbar" format="1">
  <advance width="799"/>
  <unicode hex="0126"/>
  <outline>
    <contour>
      <point x="799" y="651"/>
      <point x="793" y="658"/>
      <point x="783" y="658" type="curve" smooth="yes"/>
      <point x="16" y="658" type="line" smooth="yes"/>
      <point x="6" y="658"/>
      <point x="0" y="651"/>
      <point x="0" y="638" type="curve" smooth="yes"/>
      <point x="0" y="567" type="line" smooth="yes"/>
      <point x="0" y="552"/>
      <point x="5" y="545"/>
      <point x="22" y="545" type="curve" smooth="yes"/>
      <point x="770" y="545" type="line" smooth="yes"/>
      <point x="790" y="545"/>
      <point x="799" y="552"/>
      <point x="799" y="569" type="curve" smooth="yes"/>
      <point x="799" y="640" type="line" smooth="yes"/>
    </contour>
    <component base="H" xOffset="25"/>
  </outline>
</glyph>
<glyph name="hbar" format="1">
  <advance width="602"/>
  <unicode hex="0127"/>
  <outline>
    <contour>
      <point x="337" y="690"/>
      <point x="331" y="697"/>
      <point x="321" y="697" type="curve" smooth="yes"/>
      <point x="-4" y="697" type="line" smooth="yes"/>
      <point x="-14" y="697"/>
      <point x="-20" y="690"/>
      <point x="-20" y="677" type="curve" smooth="yes"/>
      <point x="-20" y="611" type="line" smooth="yes"/>
      <point x="-20" y="596"/>
      <point x="-15" y="589"/>
      <point x="2" y="589" type="curve" smooth="yes"/>
      <point x="308" y="589" type="line" smooth="yes"/>
      <point x="328" y="589"/>
      <point x="337" y="596"/>
      <point x="337" y="613" type="curve" smooth="yes"/>
      <point x="337" y="679" type="line" smooth="yes"/>
    </contour>
    <component base="h"/>
  </outline>
</glyph>
<glyph name="lslash" format="1">
  <advance width="383"/>
  <unicode hex="0142"/>
  <outline>
    <contour>
      <point x="363" y="518"/>
      <point x="356" y="525"/>
      <point x="339" y="520" type="curve" smooth="yes"/>
      <point x="39" y="424" type="line" smooth="yes"/>
      <point x="27" y="420"/>
      <point x="20" y="416"/>
      <point x="20" y="401" type="curve" smooth="yes"/>
      <point x="20" y="281" type="line" smooth="yes"/>
      <point x="20" y="264"/>
      <point x="26" y="256"/>
      <point x="46" y="263" type="curve" smooth="yes"/>
      <point x="343" y="365" type="line" smooth="yes"/>
      <point x="357" y="370"/>
      <point x="363" y="377"/>
      <point x="363" y="389" type="curve" smooth="yes"/>
      <point x="363" y="502" type="line" smooth="yes"/>
    </contour>
    <component base="l" xOffset="48"/>
  </outline>
</glyph>
<glyph name="Eng" format="1">
  <advance width="766"/>
  <unicode hex="014A"/>
  <outline>
    <contour>
      <point x="543" y="742" type="line" smooth="yes"/>
      <point x="528" y="742"/>
      <point x="521" y="734"/>
      <point x="521" y="721" type="curve" smooth="yes"/>
      <point x="521" y="434" type="line" smooth="yes"/>
      <point x="521" y="418"/>
      <point x="514" y="418"/>
      <point x="505" y="430" type="curve"/>
      <point x="265" y="724" type="line" smooth="yes"/>
      <point x="253" y="739"/>
      <point x="248" y="742"/>
      <point x="231" y="742" type="curve" smooth="yes"/>
      <point x="68" y="742" type="line" smooth="yes"/>
      <point x="53" y="742"/>
      <point x="46" y="735"/>
      <point x="46" y="719" type="curve" smooth="yes"/>
      <point x="46" y="20" type="line" smooth="yes"/>
      <point x="46" y="5"/>
      <point x="56" y="0"/>
      <point x="71" y="0" type="curve" smooth="yes"/>
      <point x="207" y="0" type="line" smooth="yes"/>
      <point x="225" y="0"/>
      <point x="232" y="6"/>
      <point x="232" y="22" type="curve"/>
      <point x="231" y="386" type="line"/>
      <point x="231" y="393"/>
      <point x="235" y="395"/>
      <point x="241" y="388" type="curve" smooth="yes"/>
      <point x="481" y="97" type="line"/>
      <point x="479" y="34"/>
      <point x="451" y="10"/>
      <point x="403" y="10" type="curve" smooth="yes"/>
      <point x="381" y="10"/>
      <point x="358" y="15"/>
      <point x="342" y="17" type="curve" smooth="yes"/>
      <point x="326" y="19"/>
      <point x="319" y="9"/>
      <point x="318" y="-6" type="curve" smooth="yes"/>
      <point x="309" y="-120" type="line" smooth="yes"/>
      <point x="307" y="-148"/>
      <point x="317" y="-159"/>
      <point x="340" y="-163" type="curve" smooth="yes"/>
      <point x="385" y="-171"/>
      <point x="429" y="-175"/>
      <point x="470" y="-175" type="curve" smooth="yes"/>
      <point x="622" y="-175"/>
      <point x="703" y="-114"/>
      <point x="703" y="47" type="curve" smooth="yes"/>
      <point x="703" y="725" type="line" smooth="yes"/>
      <point x="703" y="736"/>
      <point x="698" y="742"/>
      <point x="688" y="742" type="curve" smooth="yes"/>
    </contour>
  </outline>
</glyph>
<glyph name="tbar" format="1">
  <advance width="430"/>
  <unicode hex="0167"/>
  <outline>
    <contour>
      <point x="408" y="328"/>
      <point x="402" y="335"/>
      <point x="392" y="335" type="curve" smooth="yes"/>
      <point x="17" y="335" type="line" smooth="yes"/>
      <point x="7" y="335"/>
      <point x="1" y="328"/>
      <point x="1" y="315" type="curve" smooth="yes"/>
      <point x="1" y="249" type="line" smooth="yes"/>
      <point x="1" y="234"/>
      <point x="6" y="227"/>
      <point x="23" y="227" type="curve" smooth="yes"/>
      <point x="379" y="227" type="line" smooth="yes"/>
      <point x="399" y="227"/>
      <point x="408" y="234"/>
      <point x="408" y="251" type="curve" smooth="yes"/>
      <point x="408" y="317" type="line" smooth="yes"/>
    </contour>
    <component base="t"/>
  </outline>
</glyph>
<glyph name="apostrophemod" format="1">
  <advance width="194"/>
  <unicode hex="02BC"/>
  <outline>
    <contour>
      <point x="45" y="592"/>
      <point x="40" y="596"/>
      <point x="40" y="608" type="curve" smooth="yes"/>
      <point x="40" y="726" type="line" smooth="yes"/>
      <point x="40" y="737"/>
      <point x="46" y="742"/>
      <point x="54" y="742" type="curve" smooth="yes"/>
      <point x="141" y="742" type="line" smooth="yes"/>
      <point x="149" y="742"/>
      <point x="154" y="737"/>
      <point x="154" y="729" type="curve" smooth="yes"/>
      <point x="154" y="591" type="line" smooth="yes"/>
      <point x="154" y="587"/>
      <point x="152" y="583"/>
      <point x="151" y="581" type="curve" smooth="yes"/>
      <point x="113" y="461" type="line" smooth="yes"/>
      <point x="109" y="449"/>
      <point x="102" y="445"/>
      <point x="83" y="445" type="curve" smooth="yes"/>
      <point x="56" y="445" type="line" smooth="yes"/>
      <point x="47" y="445"/>
      <point x="44" y="454"/>
      <point x="46" y="461" type="curve" smooth="yes"/>
      <point x="77" y="568" type="line" smooth="yes"/>
      <point x="81" y="581"/>
      <point x="81" y="587"/>
      <point x="70" y="589" type="curve" smooth="yes"/>
      <point x="58" y="591" type="line" smooth="yes"/>
    </contour>
  </outline>
</glyph>
<glyph name="firsttonechinese" format="1">
  <advance width="431"/>
  <unicode hex="02C9"/>
  <outline>
    <contour>
      <point x="421" y="735"/>
      <point x="415" y="742"/>
      <point x="405" y="742" type="curve" smooth="yes"/>
      <point x="26" y="742" type="line" smooth="yes"/>
      <point x="16" y="742"/>
      <point x="10" y="735"/>
      <point x="10" y="722" type="curve" smooth="yes"/>
      <point x="10" y="636" type="line" smooth="yes"/>
      <point x="10" y="621"/>
      <point x="15" y="614"/>
      <point x="32" y="614" type="curve" smooth="yes"/>
      <point x="392" y="614" type="line" smooth="yes"/>
      <point x="412" y="614"/>
      <point x="421" y="621"/>
      <point x="421" y="638" type="curve" smooth="yes"/>
      <point x="421" y="724" type="line" smooth="yes"/>
    </contour>
  </outline>
</glyph>
<glyph name="ogonek" format="1">
  <advance width="241"/>
  <unicode hex="02DB"/>
  <outline>
    <contour>
      <point x="104" y="6" type="line"/>
      <point x="26" y="-22"/>
      <point x="10" y="-53"/>
      <point x="10" y="-87" type="curve" smooth="yes"/>
      <point x="10" y="-147"/>
      <point x="59" y="-174"/>
      <point x="131" y="-174" type="curve" smooth="yes"/>
      <point x="179" y="-174"/>
      <point x="236" y="-162"/>
      <point x="254" y="-150" type="curve" smooth="yes"/>
      <point x="261" y="-145"/>
      <point x="261" y="-142"/>
      <point x="260" y="-138" type="curve" smooth="yes"/>
      <point x="240" y="-79" type="line" smooth="yes"/>
      <point x="238" y="-72"/>
      <point x="235" y="-69"/>
      <point x="229" y="-72" type="curve" smooth="yes"/>
      <point x="210" y="-82"/>
      <point x="196" y="-88"/>
      <point x="180" y="-88" type="curve" smooth="yes"/>
      <point x="161" y="-88"/>
      <point x="148" y="-79"/>
      <point x="148" y="-59" type="curve" smooth="yes"/>
      <point x="148" y="-37"/>
      <point x="165" y="-18"/>
      <point x="240" y="6" type="curve"/>
    </contour>
    <contour>
      <point x="218" y="10" type="move" name="_ogonek"/>
    </contour>
  </outline>
</glyph>
<glyph name="tilde" format="1">
  <advance width="460"/>
  <unicode hex="02DC"/>
  <outline>
    <contour>
      <point x="450" y="659"/>
      <point x="451" y="672"/>
      <point x="447" y="680" type="curve" smooth="yes"/>
      <point x="416" y="744" type="line" smooth="yes"/>
      <point x="411" y="754"/>
      <point x="403" y="753"/>
      <point x="392" y="746" type="curve" smooth="yes"/>
      <point x="368" y="730"/>
      <point x="352" y="719"/>
      <point x="314" y="719" type="curve" smooth="yes"/>
      <point x="265" y="719"/>
      <point x="230" y="751"/>
      <point x="160" y="751" type="curve" smooth="yes"/>
      <point x="100" y="751"/>
      <point x="45" y="721"/>
      <point x="18" y="689" type="curve" smooth="yes"/>
      <point x="8" y="677"/>
      <point x="7" y="672"/>
      <point x="13" y="662" type="curve" smooth="yes"/>
      <point x="52" y="597" type="line" smooth="yes"/>
      <point x="55" y="592"/>
      <point x="60" y="592"/>
      <point x="68" y="597" type="curve" smooth="yes"/>
      <point x="105" y="620"/>
      <point x="123" y="625"/>
      <point x="154" y="625" type="curve" smooth="yes"/>
      <point x="213" y="625"/>
      <point x="248" y="597"/>
      <point x="313" y="597" type="curve" smooth="yes"/>
      <point x="360" y="597"/>
      <point x="404" y="616"/>
      <point x="445" y="654" type="curve" smooth="yes"/>
    </contour>
    <contour>
      <point x="229" y="530" type="move" name="_top"/>
    </contour>
  </outline>
</glyph>
<glyph name="breveinvertedcomb" format="1">
  <advance width="416"/>
  <unicode hex="0311"/>
  <outline>
    <component base="breve" xOffset="-3" yOffset="1335" yScale="-1"/>
    <contour>
      <point x="208" y="530" type="move" name="_top"/>
    </contour>
  </outline>
</glyph>
<glyph name="mu" format="1">
  <advance width="602"/>
  <unicode hex="03BC"/>
  <outline>
    <contour>
      <point x="395" y="530" type="line" smooth="yes"/>
      <point x="372" y="530"/>
      <point x="362" y="521"/>
      <point x="362" y="501" type="curve" smooth="yes"/>
      <point x="362" y="171" type="line"/>
      <point x="344" y="148"/>
      <point x="317" y="130"/>
      <point x="287" y="130" type="curve" smooth="yes"/>
      <point x="258" y="130"/>
      <point x="238" y="148"/>
      <point x="238" y="179" type="curve" smooth="yes"/>
      <point x="238" y="504" type="line" smooth="yes"/>
      <point x="238" y="523"/>
      <point x="232" y="530"/>
      <point x="215" y="530" type="curve" smooth="yes"/>
      <point x="69" y="530" type="line" smooth="yes"/>
      <point x="47" y="530"/>
      <point x="38" y="520"/>
      <point x="38" y="500" type="curve" smooth="yes"/>
      <point x="38" y="-140" type="line" smooth="yes"/>
      <point x="38" y="-157"/>
      <point x="45" y="-165"/>
      <point x="65" y="-165" type="curve" smooth="yes"/>
      <point x="205" y="-165" type="line" smooth="yes"/>
      <point x="228" y="-165"/>
      <point x="238" y="-157"/>
      <point x="238" y="-136" type="curve" smooth="yes"/>
      <point x="238" y="-22" type="line" smooth="yes"/>
      <point x="238" y="-10"/>
      <point x="241" y="-5"/>
      <point x="256" y="0" type="curve" smooth="yes"/>
      <point x="289" y="10"/>
      <point x="323" y="32"/>
      <point x="353" y="68" type="curve"/>
      <point x="360" y="75"/>
      <point x="365" y="72"/>
      <point x="365" y="64" type="curve" smooth="yes"/>
      <point x="365" y="20" type="line" smooth="yes"/>
      <point x="365" y="7"/>
      <point x="372" y="0"/>
      <point x="383" y="0" type="curve" smooth="yes"/>
      <point x="541" y="0" type="line" smooth="yes"/>
      <point x="553" y="0"/>
      <point x="560" y="8"/>
      <point x="560" y="22" type="curve" smooth="yes"/>
      <point x="564" y="504" type="line" smooth="yes"/>
      <point x="564" y="522"/>
      <point x="557" y="530"/>
      <point x="538" y="530" type="curve" smooth="yes"/>
    </contour>
  </outline>
</glyph>
<glyph name="emdash" format="1">
  <advance width="928"/>
  <unicode hex="2014"/>
  <outline>
    <contour>
      <point x="888" y="315"/>
      <point x="881" y="323"/>
      <point x="870" y="323" type="curve" smooth="yes"/>
      <point x="59" y="323" type="line" smooth="yes"/>
      <point x="47" y="323"/>
      <point x="40" y="315"/>
      <point x="40" y="300" type="curve" smooth="yes"/>
      <point x="40" y="207" type="line" smooth="yes"/>
      <point x="40" y="190"/>
      <point x="46" y="182"/>
      <point x="66" y="182" type="curve" smooth="yes"/>
      <point x="855" y="182" type="line" smooth="yes"/>
      <point x="878" y="182"/>
      <point x="888" y="190"/>
      <point x="888" y="210" type="curve" smooth="yes"/>
      <point x="888" y="303" type="line" smooth="yes"/>
    </contour>
  </outline>
</glyph>
<glyph name="perthousand" format="1">
  <advance width="1399"/>
  <unicode hex="2030"/>
  <outline>
    <contour>
      <point x="118" y="753"/>
      <point x="30" y="650"/>
      <point x="30" y="541" type="curve" smooth="yes"/>
      <point x="30" y="433"/>
      <point x="116" y="334"/>
      <point x="229" y="334" type="curve" smooth="yes"/>
      <point x="341" y="334"/>
      <point x="426" y="433"/>
      <point x="426" y="541" type="curve" smooth="yes"/>
      <point x="426" y="650"/>
      <point x="339" y="753"/>
      <point x="229" y="753" type="curve" smooth="yes"/>
    </contour>
    <contour>
      <point x="187" y="432"/>
      <point x="175" y="469"/>
      <point x="175" y="540" type="curve" smooth="yes"/>
      <point x="175" y="615"/>
      <point x="188" y="656"/>
      <point x="228" y="656" type="curve" smooth="yes"/>
      <point x="268" y="656"/>
      <point x="281" y="616"/>
      <point x="281" y="540" type="curve" smooth="yes"/>
      <point x="281" y="469"/>
      <point x="270" y="432"/>
      <point x="228" y="432" type="curve" smooth="yes"/>
    </contour>
    <contour>
      <point x="625" y="409"/>
      <point x="537" y="306"/>
      <point x="537" y="197" type="curve" smooth="yes"/>
      <point x="537" y="89"/>
      <point x="623" y="-10"/>
      <point x="736" y="-10" type="curve" smooth="yes"/>
      <point x="848" y="-10"/>
      <point x="933" y="89"/>
      <point x="933" y="197" type="curve" smooth="yes"/>
      <point x="933" y="306"/>
      <point x="846" y="409"/>
      <point x="736" y="409" type="curve" smooth="yes"/>
    </contour>
    <contour>
      <point x="694" y="88"/>
      <point x="682" y="125"/>
      <point x="682" y="196" type="curve" smooth="yes"/>
      <point x="682" y="271"/>
      <point x="695" y="312"/>
      <point x="735" y="312" type="curve" smooth="yes"/>
      <point x="775" y="312"/>
      <point x="788" y="272"/>
      <point x="788" y="196" type="curve" smooth="yes"/>
      <point x="788" y="125"/>
      <point x="777" y="88"/>
      <point x="735" y="88" type="curve" smooth="yes"/>
    </contour>
    <contour>
      <point x="1061" y="409"/>
      <point x="973" y="306"/>
      <point x="973" y="197" type="curve" smooth="yes"/>
      <point x="973" y="89"/>
      <point x="1059" y="-10"/>
      <point x="1172" y="-10" type="curve" smooth="yes"/>
      <point x="1284" y="-10"/>
      <point x="1369" y="89"/>
      <point x="1369" y="197" type="curve" smooth="yes"/>
      <point x="1369" y="306"/>
      <point x="1282" y="409"/>
      <point x="1172" y="409" type="curve" smooth="yes"/>
    </contour>
    <contour>
      <point x="1130" y="88"/>
      <point x="1118" y="125"/>
      <point x="1118" y="196" type="curve" smooth="yes"/>
      <point x="1118" y="271"/>
      <point x="1131" y="312"/>
      <point x="1171" y="312" type="curve" smooth="yes"/>
      <point x="1211" y="312"/>
      <point x="1224" y="272"/>
      <point x="1224" y="196" type="curve" smooth="yes"/>
      <point x="1224" y="125"/>
      <point x="1213" y="88"/>
      <point x="1171" y="88" type="curve" smooth="yes"/>
    </contour>
    <component base="fraction" xOffset="360"/>
  </outline>
</glyph>
